STARTFONT 2.1
FONT -FontForge-SimSun-Book-R-Normal--9-90-75-75-P-79-ISO10646-1
SIZE 9 75 75
FONTBOUNDINGBOX 9 9 0 -2
COMMENT "Generated by fontforge, http://fontforge.sourceforge.net"
COMMENT "Copyright 2009 Zpix by SolidZORO"
STARTPROPERTIES 38
FOUNDRY "FontForge"
FAMILY_NAME "Zpix"
WEIGHT_NAME "Book"
SLANT "R"
SETWIDTH_NAME "Normal"
ADD_STYLE_NAME ""
PIXEL_SIZE 9
POINT_SIZE 90
RESOLUTION_X 75
RESOLUTION_Y 75
SPACING "P"
AVERAGE_WIDTH 79
CHARSET_REGISTRY "ISO10646"
CHARSET_ENCODING "1"
FONTNAME_REGISTRY ""
CHARSET_COLLECTIONS "ASCII ISOLatin1Encoding ISO8859-5 JISX0208.1997 GB2312.1980 BIG5 ISO10646-1"
FONT_NAME "Zpix"
FACE_NAME "Zpix"
FONT_VERSION "R1"
FONT_ASCENT 7
FONT_DESCENT 2
UNDERLINE_POSITION -1
UNDERLINE_THICKNESS 1
X_HEIGHT 4
CAP_HEIGHT 6
RAW_ASCENT 859
RAW_DESCENT 140
RELATIVE_WEIGHT 40
RELATIVE_SETWIDTH 50
SUPERSCRIPT_X 0
SUPERSCRIPT_Y 4
SUPERSCRIPT_SIZE 4
SUBSCRIPT_X 0
SUBSCRIPT_Y 0
SUBSCRIPT_SIZE 4
FIGURE_WIDTH 4
AVG_LOWERCASE_WIDTH 63
AVG_UPPERCASE_WIDTH 69
ENDPROPERTIES
CHARS 17262
STARTCHAR exclam
ENCODING 33
SWIDTH 200 0
DWIDTH 4 0
BBX 1 1 0 0
BITMAP
00
ENDCHAR
STARTCHAR quotedbl
ENCODING 34
SWIDTH 399 0
DWIDTH 4 0
BBX 1 1 0 0
BITMAP
00
ENDCHAR
STARTCHAR numbersign
ENCODING 35
SWIDTH 600 0
DWIDTH 4 0
BBX 1 1 0 0
BITMAP
00
ENDCHAR
STARTCHAR dollar
ENCODING 36
SWIDTH 600 0
DWIDTH 4 0
BBX 1 1 0 0
BITMAP
00
ENDCHAR
STARTCHAR percent
ENCODING 37
SWIDTH 600 0
DWIDTH 4 0
BBX 1 1 0 0
BITMAP
00
ENDCHAR
STARTCHAR ampersand
ENCODING 38
SWIDTH 399 0
DWIDTH 4 0
BBX 1 1 0 0
BITMAP
00
ENDCHAR
STARTCHAR quotesingle
ENCODING 39
SWIDTH 200 0
DWIDTH 4 0
BBX 1 1 0 0
BITMAP
00
ENDCHAR
STARTCHAR parenleft
ENCODING 40
SWIDTH 300 0
DWIDTH 4 0
BBX 1 1 0 0
BITMAP
00
ENDCHAR
STARTCHAR parenright
ENCODING 41
SWIDTH 300 0
DWIDTH 4 0
BBX 1 1 0 0
BITMAP
00
ENDCHAR
STARTCHAR asterisk
ENCODING 42
SWIDTH 399 0
DWIDTH 4 0
BBX 1 1 0 0
BITMAP
00
ENDCHAR
STARTCHAR plus
ENCODING 43
SWIDTH 600 0
DWIDTH 4 0
BBX 1 1 0 0
BITMAP
00
ENDCHAR
STARTCHAR comma
ENCODING 44
SWIDTH 200 0
DWIDTH 4 0
BBX 1 1 0 0
BITMAP
00
ENDCHAR
STARTCHAR hyphen
ENCODING 45
SWIDTH 500 0
DWIDTH 4 0
BBX 1 1 0 0
BITMAP
00
ENDCHAR
STARTCHAR period
ENCODING 46
SWIDTH 200 0
DWIDTH 4 0
BBX 1 1 0 0
BITMAP
00
ENDCHAR
STARTCHAR slash
ENCODING 47
SWIDTH 600 0
DWIDTH 4 0
BBX 1 1 0 0
BITMAP
00
ENDCHAR
STARTCHAR zero
ENCODING 48
SWIDTH 500 0
DWIDTH 4 0
BBX 1 1 0 0
BITMAP
00
ENDCHAR
STARTCHAR one
ENCODING 49
SWIDTH 399 0
DWIDTH 4 0
BBX 1 1 0 0
BITMAP
00
ENDCHAR
STARTCHAR two
ENCODING 50
SWIDTH 500 0
DWIDTH 4 0
BBX 1 1 0 0
BITMAP
00
ENDCHAR
STARTCHAR three
ENCODING 51
SWIDTH 500 0
DWIDTH 4 0
BBX 1 1 0 0
BITMAP
00
ENDCHAR
STARTCHAR four
ENCODING 52
SWIDTH 500 0
DWIDTH 4 0
BBX 1 1 0 0
BITMAP
00
ENDCHAR
STARTCHAR five
ENCODING 53
SWIDTH 500 0
DWIDTH 4 0
BBX 1 1 0 0
BITMAP
00
ENDCHAR
STARTCHAR six
ENCODING 54
SWIDTH 500 0
DWIDTH 4 0
BBX 1 1 0 0
BITMAP
00
ENDCHAR
STARTCHAR seven
ENCODING 55
SWIDTH 500 0
DWIDTH 4 0
BBX 1 1 0 0
BITMAP
00
ENDCHAR
STARTCHAR eight
ENCODING 56
SWIDTH 500 0
DWIDTH 4 0
BBX 1 1 0 0
BITMAP
00
ENDCHAR
STARTCHAR nine
ENCODING 57
SWIDTH 500 0
DWIDTH 4 0
BBX 1 1 0 0
BITMAP
00
ENDCHAR
STARTCHAR colon
ENCODING 58
SWIDTH 200 0
DWIDTH 4 0
BBX 1 1 0 0
BITMAP
00
ENDCHAR
STARTCHAR semicolon
ENCODING 59
SWIDTH 200 0
DWIDTH 4 0
BBX 1 1 0 0
BITMAP
00
ENDCHAR
STARTCHAR less
ENCODING 60
SWIDTH 399 0
DWIDTH 4 0
BBX 1 1 0 0
BITMAP
00
ENDCHAR
STARTCHAR equal
ENCODING 61
SWIDTH 500 0
DWIDTH 4 0
BBX 1 1 0 0
BITMAP
00
ENDCHAR
STARTCHAR greater
ENCODING 62
SWIDTH 399 0
DWIDTH 4 0
BBX 1 1 0 0
BITMAP
00
ENDCHAR
STARTCHAR question
ENCODING 63
SWIDTH 399 0
DWIDTH 4 0
BBX 1 1 0 0
BITMAP
00
ENDCHAR
STARTCHAR at
ENCODING 64
SWIDTH 500 0
DWIDTH 4 0
BBX 1 1 0 0
BITMAP
00
ENDCHAR
STARTCHAR A
ENCODING 65
SWIDTH 500 0
DWIDTH 4 0
BBX 1 1 0 0
BITMAP
00
ENDCHAR
STARTCHAR B
ENCODING 66
SWIDTH 500 0
DWIDTH 4 0
BBX 1 1 0 0
BITMAP
00
ENDCHAR
STARTCHAR C
ENCODING 67
SWIDTH 500 0
DWIDTH 4 0
BBX 1 1 0 0
BITMAP
00
ENDCHAR
STARTCHAR D
ENCODING 68
SWIDTH 500 0
DWIDTH 4 0
BBX 1 1 0 0
BITMAP
00
ENDCHAR
STARTCHAR E
ENCODING 69
SWIDTH 399 0
DWIDTH 4 0
BBX 1 1 0 0
BITMAP
00
ENDCHAR
STARTCHAR F
ENCODING 70
SWIDTH 399 0
DWIDTH 4 0
BBX 1 1 0 0
BITMAP
00
ENDCHAR
STARTCHAR G
ENCODING 71
SWIDTH 500 0
DWIDTH 4 0
BBX 1 1 0 0
BITMAP
00
ENDCHAR
STARTCHAR H
ENCODING 72
SWIDTH 500 0
DWIDTH 4 0
BBX 1 1 0 0
BITMAP
00
ENDCHAR
STARTCHAR I
ENCODING 73
SWIDTH 200 0
DWIDTH 4 0
BBX 1 1 0 0
BITMAP
00
ENDCHAR
STARTCHAR J
ENCODING 74
SWIDTH 399 0
DWIDTH 4 0
BBX 1 1 0 0
BITMAP
00
ENDCHAR
STARTCHAR K
ENCODING 75
SWIDTH 500 0
DWIDTH 4 0
BBX 1 1 0 0
BITMAP
00
ENDCHAR
STARTCHAR L
ENCODING 76
SWIDTH 399 0
DWIDTH 4 0
BBX 1 1 0 0
BITMAP
00
ENDCHAR
STARTCHAR M
ENCODING 77
SWIDTH 600 0
DWIDTH 4 0
BBX 1 1 0 0
BITMAP
00
ENDCHAR
STARTCHAR N
ENCODING 78
SWIDTH 500 0
DWIDTH 4 0
BBX 1 1 0 0
BITMAP
00
ENDCHAR
STARTCHAR O
ENCODING 79
SWIDTH 500 0
DWIDTH 4 0
BBX 1 1 0 0
BITMAP
00
ENDCHAR
STARTCHAR P
ENCODING 80
SWIDTH 500 0
DWIDTH 4 0
BBX 1 1 0 0
BITMAP
00
ENDCHAR
STARTCHAR Q
ENCODING 81
SWIDTH 500 0
DWIDTH 4 0
BBX 1 1 0 0
BITMAP
00
ENDCHAR
STARTCHAR R
ENCODING 82
SWIDTH 500 0
DWIDTH 4 0
BBX 1 1 0 0
BITMAP
00
ENDCHAR
STARTCHAR S
ENCODING 83
SWIDTH 500 0
DWIDTH 4 0
BBX 1 1 0 0
BITMAP
00
ENDCHAR
STARTCHAR T
ENCODING 84
SWIDTH 399 0
DWIDTH 4 0
BBX 1 1 0 0
BITMAP
00
ENDCHAR
STARTCHAR U
ENCODING 85
SWIDTH 500 0
DWIDTH 4 0
BBX 1 1 0 0
BITMAP
00
ENDCHAR
STARTCHAR V
ENCODING 86
SWIDTH 600 0
DWIDTH 4 0
BBX 1 1 0 0
BITMAP
00
ENDCHAR
STARTCHAR W
ENCODING 87
SWIDTH 600 0
DWIDTH 4 0
BBX 1 1 0 0
BITMAP
00
ENDCHAR
STARTCHAR X
ENCODING 88
SWIDTH 500 0
DWIDTH 4 0
BBX 1 1 0 0
BITMAP
00
ENDCHAR
STARTCHAR Y
ENCODING 89
SWIDTH 600 0
DWIDTH 4 0
BBX 1 1 0 0
BITMAP
00
ENDCHAR
STARTCHAR Z
ENCODING 90
SWIDTH 500 0
DWIDTH 4 0
BBX 1 1 0 0
BITMAP
00
ENDCHAR
STARTCHAR bracketleft
ENCODING 91
SWIDTH 300 0
DWIDTH 4 0
BBX 1 1 0 0
BITMAP
00
ENDCHAR
STARTCHAR backslash
ENCODING 92
SWIDTH 600 0
DWIDTH 4 0
BBX 1 1 0 0
BITMAP
00
ENDCHAR
STARTCHAR bracketright
ENCODING 93
SWIDTH 300 0
DWIDTH 4 0
BBX 1 1 0 0
BITMAP
00
ENDCHAR
STARTCHAR asciicircum
ENCODING 94
SWIDTH 600 0
DWIDTH 4 0
BBX 1 1 0 0
BITMAP
00
ENDCHAR
STARTCHAR underscore
ENCODING 95
SWIDTH 500 0
DWIDTH 4 0
BBX 1 1 0 0
BITMAP
00
ENDCHAR
STARTCHAR grave
ENCODING 96
SWIDTH 300 0
DWIDTH 4 0
BBX 1 1 0 0
BITMAP
00
ENDCHAR
STARTCHAR a
ENCODING 97
SWIDTH 500 0
DWIDTH 4 0
BBX 1 1 0 0
BITMAP
00
ENDCHAR
STARTCHAR b
ENCODING 98
SWIDTH 500 0
DWIDTH 4 0
BBX 1 1 0 0
BITMAP
00
ENDCHAR
STARTCHAR c
ENCODING 99
SWIDTH 500 0
DWIDTH 4 0
BBX 1 1 0 0
BITMAP
00
ENDCHAR
STARTCHAR d
ENCODING 100
SWIDTH 500 0
DWIDTH 4 0
BBX 1 1 0 0
BITMAP
00
ENDCHAR
STARTCHAR e
ENCODING 101
SWIDTH 399 0
DWIDTH 4 0
BBX 1 1 0 0
BITMAP
00
ENDCHAR
STARTCHAR f
ENCODING 102
SWIDTH 399 0
DWIDTH 4 0
BBX 1 1 0 0
BITMAP
00
ENDCHAR
STARTCHAR g
ENCODING 103
SWIDTH 500 0
DWIDTH 4 0
BBX 1 1 0 0
BITMAP
00
ENDCHAR
STARTCHAR h
ENCODING 104
SWIDTH 500 0
DWIDTH 4 0
BBX 1 1 0 0
BITMAP
00
ENDCHAR
STARTCHAR i
ENCODING 105
SWIDTH 200 0
DWIDTH 4 0
BBX 1 1 0 0
BITMAP
00
ENDCHAR
STARTCHAR j
ENCODING 106
SWIDTH 399 0
DWIDTH 4 0
BBX 1 1 0 0
BITMAP
00
ENDCHAR
STARTCHAR k
ENCODING 107
SWIDTH 500 0
DWIDTH 4 0
BBX 1 1 0 0
BITMAP
00
ENDCHAR
STARTCHAR l
ENCODING 108
SWIDTH 399 0
DWIDTH 4 0
BBX 1 1 0 0
BITMAP
00
ENDCHAR
STARTCHAR m
ENCODING 109
SWIDTH 600 0
DWIDTH 4 0
BBX 1 1 0 0
BITMAP
00
ENDCHAR
STARTCHAR n
ENCODING 110
SWIDTH 500 0
DWIDTH 4 0
BBX 1 1 0 0
BITMAP
00
ENDCHAR
STARTCHAR o
ENCODING 111
SWIDTH 500 0
DWIDTH 4 0
BBX 1 1 0 0
BITMAP
00
ENDCHAR
STARTCHAR p
ENCODING 112
SWIDTH 500 0
DWIDTH 4 0
BBX 1 1 0 0
BITMAP
00
ENDCHAR
STARTCHAR q
ENCODING 113
SWIDTH 500 0
DWIDTH 4 0
BBX 1 1 0 0
BITMAP
00
ENDCHAR
STARTCHAR r
ENCODING 114
SWIDTH 500 0
DWIDTH 4 0
BBX 1 1 0 0
BITMAP
00
ENDCHAR
STARTCHAR s
ENCODING 115
SWIDTH 500 0
DWIDTH 4 0
BBX 1 1 0 0
BITMAP
00
ENDCHAR
STARTCHAR t
ENCODING 116
SWIDTH 399 0
DWIDTH 4 0
BBX 1 1 0 0
BITMAP
00
ENDCHAR
STARTCHAR u
ENCODING 117
SWIDTH 500 0
DWIDTH 4 0
BBX 1 1 0 0
BITMAP
00
ENDCHAR
STARTCHAR v
ENCODING 118
SWIDTH 600 0
DWIDTH 4 0
BBX 1 1 0 0
BITMAP
00
ENDCHAR
STARTCHAR w
ENCODING 119
SWIDTH 600 0
DWIDTH 4 0
BBX 1 1 0 0
BITMAP
00
ENDCHAR
STARTCHAR x
ENCODING 120
SWIDTH 500 0
DWIDTH 4 0
BBX 1 1 0 0
BITMAP
00
ENDCHAR
STARTCHAR y
ENCODING 121
SWIDTH 600 0
DWIDTH 4 0
BBX 1 1 0 0
BITMAP
00
ENDCHAR
STARTCHAR z
ENCODING 122
SWIDTH 500 0
DWIDTH 4 0
BBX 1 1 0 0
BITMAP
00
ENDCHAR
STARTCHAR braceleft
ENCODING 123
SWIDTH 399 0
DWIDTH 4 0
BBX 1 1 0 0
BITMAP
00
ENDCHAR
STARTCHAR bar
ENCODING 124
SWIDTH 200 0
DWIDTH 4 0
BBX 1 1 0 0
BITMAP
00
ENDCHAR
STARTCHAR braceright
ENCODING 125
SWIDTH 399 0
DWIDTH 4 0
BBX 1 1 0 0
BITMAP
00
ENDCHAR
STARTCHAR asciitilde
ENCODING 126
SWIDTH 600 0
DWIDTH 4 0
BBX 1 1 0 0
BITMAP
00
ENDCHAR
STARTCHAR currency
ENCODING 164
SWIDTH 1000 0
DWIDTH 9 0
BBX 6 6 1 0
BITMAP
B4
48
84
84
48
B4
ENDCHAR
STARTCHAR section
ENCODING 167
SWIDTH 1000 0
DWIDTH 9 0
BBX 3 8 2 -1
BITMAP
60
80
40
A0
A0
40
20
C0
ENDCHAR
STARTCHAR dieresis
ENCODING 168
SWIDTH 1000 0
DWIDTH 9 0
BBX 4 1 2 5
BITMAP
90
ENDCHAR
STARTCHAR guillemotleft
ENCODING 171
SWIDTH 500 0
DWIDTH 4 0
BBX 4 6 0 0
BITMAP
50
50
A0
A0
50
50
ENDCHAR
STARTCHAR degree
ENCODING 176
SWIDTH 1000 0
DWIDTH 9 0
BBX 3 3 0 4
BITMAP
40
A0
40
ENDCHAR
STARTCHAR plusminus
ENCODING 177
SWIDTH 1000 0
DWIDTH 9 0
BBX 5 7 1 0
BITMAP
20
20
F8
20
20
00
F8
ENDCHAR
STARTCHAR acute
ENCODING 180
SWIDTH 500 0
DWIDTH 4 0
BBX 4 6 0 0
BITMAP
60
00
70
D0
D0
50
ENDCHAR
STARTCHAR paragraph
ENCODING 182
SWIDTH 500 0
DWIDTH 4 0
BBX 4 6 0 0
BITMAP
50
50
50
00
A0
A0
ENDCHAR
STARTCHAR periodcentered
ENCODING 183
SWIDTH 1000 0
DWIDTH 9 0
BBX 2 2 3 2
BITMAP
C0
C0
ENDCHAR
STARTCHAR guillemotright
ENCODING 187
SWIDTH 500 0
DWIDTH 4 0
BBX 4 6 0 0
BITMAP
50
50
A0
A0
00
10
ENDCHAR
STARTCHAR multiply
ENCODING 215
SWIDTH 1000 0
DWIDTH 9 0
BBX 5 5 1 1
BITMAP
88
50
20
50
88
ENDCHAR
STARTCHAR agrave
ENCODING 224
SWIDTH 500 0
DWIDTH 4 0
BBX 4 7 0 0
BITMAP
40
20
E0
10
70
90
70
ENDCHAR
STARTCHAR aacute
ENCODING 225
SWIDTH 500 0
DWIDTH 4 0
BBX 4 7 0 0
BITMAP
20
40
E0
10
70
90
70
ENDCHAR
STARTCHAR egrave
ENCODING 232
SWIDTH 500 0
DWIDTH 4 0
BBX 4 7 0 0
BITMAP
40
20
60
90
F0
80
70
ENDCHAR
STARTCHAR eacute
ENCODING 233
SWIDTH 500 0
DWIDTH 4 0
BBX 4 7 0 0
BITMAP
10
20
60
90
F0
80
70
ENDCHAR
STARTCHAR ecircumflex
ENCODING 234
SWIDTH 500 0
DWIDTH 4 0
BBX 4 7 0 0
BITMAP
60
90
60
90
F0
80
70
ENDCHAR
STARTCHAR igrave
ENCODING 236
SWIDTH 500 0
DWIDTH 4 0
BBX 2 7 0 0
BITMAP
80
40
00
40
40
40
40
ENDCHAR
STARTCHAR iacute
ENCODING 237
SWIDTH 500 0
DWIDTH 4 0
BBX 2 7 1 0
BITMAP
40
80
00
80
80
80
80
ENDCHAR
STARTCHAR ograve
ENCODING 242
SWIDTH 500 0
DWIDTH 4 0
BBX 4 7 0 0
BITMAP
40
20
60
90
90
90
60
ENDCHAR
STARTCHAR oacute
ENCODING 243
SWIDTH 500 0
DWIDTH 4 0
BBX 4 7 0 0
BITMAP
20
40
60
90
90
90
60
ENDCHAR
STARTCHAR divide
ENCODING 247
SWIDTH 1000 0
DWIDTH 9 0
BBX 5 5 1 1
BITMAP
20
00
F8
00
20
ENDCHAR
STARTCHAR ugrave
ENCODING 249
SWIDTH 500 0
DWIDTH 4 0
BBX 4 7 0 0
BITMAP
40
20
90
90
90
90
70
ENDCHAR
STARTCHAR uacute
ENCODING 250
SWIDTH 500 0
DWIDTH 4 0
BBX 4 7 0 0
BITMAP
20
40
90
90
90
90
70
ENDCHAR
STARTCHAR udieresis
ENCODING 252
SWIDTH 500 0
DWIDTH 4 0
BBX 4 7 0 0
BITMAP
90
00
90
90
90
90
70
ENDCHAR
STARTCHAR amacron
ENCODING 257
SWIDTH 500 0
DWIDTH 4 0
BBX 4 7 0 0
BITMAP
F0
00
E0
10
70
90
70
ENDCHAR
STARTCHAR emacron
ENCODING 275
SWIDTH 500 0
DWIDTH 4 0
BBX 4 7 0 0
BITMAP
F0
00
60
90
F0
80
70
ENDCHAR
STARTCHAR ecaron
ENCODING 283
SWIDTH 500 0
DWIDTH 4 0
BBX 4 7 0 0
BITMAP
50
20
60
90
F0
80
70
ENDCHAR
STARTCHAR imacron
ENCODING 299
SWIDTH 500 0
DWIDTH 4 0
BBX 3 7 2 0
BITMAP
E0
00
00
40
40
40
40
ENDCHAR
STARTCHAR nacute
ENCODING 324
SWIDTH 500 0
DWIDTH 4 0
BBX 4 7 0 0
BITMAP
20
40
E0
90
90
90
90
ENDCHAR
STARTCHAR ncaron
ENCODING 328
SWIDTH 500 0
DWIDTH 4 0
BBX 4 7 0 0
BITMAP
50
20
E0
90
90
90
90
ENDCHAR
STARTCHAR omacron
ENCODING 333
SWIDTH 500 0
DWIDTH 4 0
BBX 4 7 0 0
BITMAP
F0
00
60
90
90
90
60
ENDCHAR
STARTCHAR OE
ENCODING 338
SWIDTH 500 0
DWIDTH 4 0
BBX 1 1 0 0
BITMAP
00
ENDCHAR
STARTCHAR oe
ENCODING 339
SWIDTH 500 0
DWIDTH 4 0
BBX 1 1 0 0
BITMAP
00
ENDCHAR
STARTCHAR Scaron
ENCODING 352
SWIDTH 500 0
DWIDTH 4 0
BBX 1 1 0 0
BITMAP
00
ENDCHAR
STARTCHAR scaron
ENCODING 353
SWIDTH 500 0
DWIDTH 4 0
BBX 1 1 0 0
BITMAP
00
ENDCHAR
STARTCHAR umacron
ENCODING 363
SWIDTH 500 0
DWIDTH 4 0
BBX 4 7 0 0
BITMAP
F0
00
90
90
90
90
70
ENDCHAR
STARTCHAR Ydieresis
ENCODING 376
SWIDTH 500 0
DWIDTH 4 0
BBX 1 1 0 0
BITMAP
00
ENDCHAR
STARTCHAR florin
ENCODING 402
SWIDTH 500 0
DWIDTH 4 0
BBX 1 1 0 0
BITMAP
00
ENDCHAR
STARTCHAR uni01CE
ENCODING 462
SWIDTH 500 0
DWIDTH 4 0
BBX 4 7 0 0
BITMAP
50
20
E0
10
70
90
70
ENDCHAR
STARTCHAR uni01D0
ENCODING 464
SWIDTH 500 0
DWIDTH 4 0
BBX 3 7 0 0
BITMAP
A0
40
00
40
40
40
40
ENDCHAR
STARTCHAR uni01D2
ENCODING 466
SWIDTH 500 0
DWIDTH 4 0
BBX 4 7 0 0
BITMAP
A0
40
60
90
90
90
60
ENDCHAR
STARTCHAR uni01D4
ENCODING 468
SWIDTH 500 0
DWIDTH 4 0
BBX 4 7 0 0
BITMAP
50
20
90
90
90
90
70
ENDCHAR
STARTCHAR uni01D6
ENCODING 470
SWIDTH 500 0
DWIDTH 4 0
BBX 4 7 0 0
BITMAP
F0
00
90
00
90
90
70
ENDCHAR
STARTCHAR uni01D8
ENCODING 472
SWIDTH 500 0
DWIDTH 4 0
BBX 4 7 0 0
BITMAP
20
40
90
00
90
90
70
ENDCHAR
STARTCHAR uni01DA
ENCODING 474
SWIDTH 500 0
DWIDTH 4 0
BBX 4 7 0 0
BITMAP
50
20
90
00
90
90
70
ENDCHAR
STARTCHAR uni01DC
ENCODING 476
SWIDTH 500 0
DWIDTH 4 0
BBX 4 7 0 0
BITMAP
40
20
90
00
90
90
70
ENDCHAR
STARTCHAR uni01F9
ENCODING 505
SWIDTH 500 0
DWIDTH 9 0
BBX 4 8 4 -1
BITMAP
60
10
10
00
10
80
00
70
ENDCHAR
STARTCHAR uni0251
ENCODING 593
SWIDTH 500 0
DWIDTH 4 0
BBX 3 5 0 0
BITMAP
C0
20
60
A0
E0
ENDCHAR
STARTCHAR uni0261
ENCODING 609
SWIDTH 500 0
DWIDTH 4 0
BBX 3 6 0 -1
BITMAP
60
A0
A0
60
20
C0
ENDCHAR
STARTCHAR circumflex
ENCODING 710
SWIDTH 500 0
DWIDTH 4 0
BBX 3 2 0 5
BITMAP
40
A0
ENDCHAR
STARTCHAR caron
ENCODING 711
SWIDTH 1000 0
DWIDTH 9 0
BBX 3 2 2 5
BITMAP
A0
40
ENDCHAR
STARTCHAR uni02C9
ENCODING 713
SWIDTH 1000 0
DWIDTH 9 0
BBX 4 1 2 5
BITMAP
F0
ENDCHAR
STARTCHAR uni02CA
ENCODING 714
SWIDTH 1000 0
DWIDTH 9 0
BBX 3 3 3 2
BITMAP
20
40
80
ENDCHAR
STARTCHAR uni02CB
ENCODING 715
SWIDTH 1000 0
DWIDTH 9 0
BBX 4 4 2 1
BITMAP
80
40
20
10
ENDCHAR
STARTCHAR dotaccent
ENCODING 729
SWIDTH 1000 0
DWIDTH 9 0
BBX 2 2 3 5
BITMAP
C0
C0
ENDCHAR
STARTCHAR tilde
ENCODING 732
SWIDTH 500 0
DWIDTH 4 0
BBX 3 2 1 5
BITMAP
A0
40
ENDCHAR
STARTCHAR Alpha
ENCODING 913
SWIDTH 1000 0
DWIDTH 9 0
BBX 7 8 0 -1
BITMAP
10
10
28
28
7C
44
82
82
ENDCHAR
STARTCHAR Beta
ENCODING 914
SWIDTH 1000 0
DWIDTH 9 0
BBX 5 8 2 -1
BITMAP
F0
88
88
F0
88
88
88
F0
ENDCHAR
STARTCHAR Gamma
ENCODING 915
SWIDTH 1000 0
DWIDTH 9 0
BBX 5 8 2 -1
BITMAP
F8
80
80
80
80
80
80
80
ENDCHAR
STARTCHAR uni0394
ENCODING 916
SWIDTH 1000 0
DWIDTH 9 0
BBX 7 8 0 -1
BITMAP
10
10
28
28
44
44
82
FE
ENDCHAR
STARTCHAR Epsilon
ENCODING 917
SWIDTH 1000 0
DWIDTH 9 0
BBX 5 7 2 -1
BITMAP
F8
80
80
F0
80
80
F8
ENDCHAR
STARTCHAR Zeta
ENCODING 918
SWIDTH 1000 0
DWIDTH 9 0
BBX 6 7 1 -1
BITMAP
FC
08
10
20
40
80
FC
ENDCHAR
STARTCHAR Eta
ENCODING 919
SWIDTH 1000 0
DWIDTH 9 0
BBX 6 8 1 -1
BITMAP
84
84
84
FC
84
84
84
84
ENDCHAR
STARTCHAR Theta
ENCODING 920
SWIDTH 1000 0
DWIDTH 9 0
BBX 8 8 0 -1
BITMAP
3C
42
81
BD
81
81
42
3C
ENDCHAR
STARTCHAR Iota
ENCODING 921
SWIDTH 1000 0
DWIDTH 9 0
BBX 1 8 3 -1
BITMAP
80
80
80
80
80
80
80
80
ENDCHAR
STARTCHAR Kappa
ENCODING 922
SWIDTH 1000 0
DWIDTH 9 0
BBX 6 8 1 -1
BITMAP
88
90
A0
C0
A0
90
88
84
ENDCHAR
STARTCHAR Lambda
ENCODING 923
SWIDTH 1000 0
DWIDTH 9 0
BBX 7 8 0 -1
BITMAP
10
10
28
28
44
44
82
82
ENDCHAR
STARTCHAR Mu
ENCODING 924
SWIDTH 1000 0
DWIDTH 9 0
BBX 7 8 0 -1
BITMAP
82
C6
C6
AA
AA
92
92
82
ENDCHAR
STARTCHAR Nu
ENCODING 925
SWIDTH 1000 0
DWIDTH 9 0
BBX 7 8 0 -1
BITMAP
82
C2
A2
92
92
8A
86
82
ENDCHAR
STARTCHAR Xi
ENCODING 926
SWIDTH 1000 0
DWIDTH 9 0
BBX 8 8 0 -1
BITMAP
FF
00
00
3C
00
00
00
FF
ENDCHAR
STARTCHAR Omicron
ENCODING 927
SWIDTH 1000 0
DWIDTH 9 0
BBX 7 8 0 -1
BITMAP
38
44
82
82
82
82
44
38
ENDCHAR
STARTCHAR Pi
ENCODING 928
SWIDTH 1000 0
DWIDTH 9 0
BBX 5 8 1 -1
BITMAP
F8
88
88
88
88
88
88
88
ENDCHAR
STARTCHAR Rho
ENCODING 929
SWIDTH 1000 0
DWIDTH 9 0
BBX 5 8 2 -1
BITMAP
F0
88
88
88
F0
80
80
80
ENDCHAR
STARTCHAR Sigma
ENCODING 931
SWIDTH 1000 0
DWIDTH 9 0
BBX 7 8 0 -1
BITMAP
FE
40
20
10
20
40
80
FE
ENDCHAR
STARTCHAR Tau
ENCODING 932
SWIDTH 1000 0
DWIDTH 9 0
BBX 7 8 0 -1
BITMAP
FE
10
10
10
10
10
10
10
ENDCHAR
STARTCHAR Upsilon
ENCODING 933
SWIDTH 1000 0
DWIDTH 9 0
BBX 5 7 1 -1
BITMAP
88
50
20
20
20
20
20
ENDCHAR
STARTCHAR Phi
ENCODING 934
SWIDTH 1000 0
DWIDTH 9 0
BBX 7 8 0 -1
BITMAP
10
10
7C
92
92
7C
10
10
ENDCHAR
STARTCHAR Chi
ENCODING 935
SWIDTH 1000 0
DWIDTH 9 0
BBX 7 8 0 -1
BITMAP
82
44
28
10
10
28
44
82
ENDCHAR
STARTCHAR Psi
ENCODING 936
SWIDTH 1000 0
DWIDTH 9 0
BBX 7 8 0 -1
BITMAP
10
92
92
92
7C
10
10
10
ENDCHAR
STARTCHAR uni03A9
ENCODING 937
SWIDTH 1000 0
DWIDTH 9 0
BBX 7 7 0 -1
BITMAP
38
44
82
82
44
28
EE
ENDCHAR
STARTCHAR alpha
ENCODING 945
SWIDTH 1000 0
DWIDTH 9 0
BBX 5 5 1 0
BITMAP
68
90
90
90
68
ENDCHAR
STARTCHAR beta
ENCODING 946
SWIDTH 1000 0
DWIDTH 9 0
BBX 5 8 1 -1
BITMAP
60
90
90
F0
88
88
F0
80
ENDCHAR
STARTCHAR gamma
ENCODING 947
SWIDTH 1000 0
DWIDTH 9 0
BBX 6 7 1 -1
BITMAP
44
A8
30
20
20
20
20
ENDCHAR
STARTCHAR delta
ENCODING 948
SWIDTH 1000 0
DWIDTH 9 0
BBX 5 8 1 -1
BITMAP
30
48
20
50
88
88
88
70
ENDCHAR
STARTCHAR epsilon
ENCODING 949
SWIDTH 1000 0
DWIDTH 9 0
BBX 5 7 1 -1
BITMAP
70
88
40
30
40
88
70
ENDCHAR
STARTCHAR zeta
ENCODING 950
SWIDTH 1000 0
DWIDTH 9 0
BBX 5 8 1 -1
BITMAP
20
48
30
40
80
70
08
30
ENDCHAR
STARTCHAR eta
ENCODING 951
SWIDTH 1000 0
DWIDTH 9 0
BBX 5 7 1 -1
BITMAP
B0
48
48
48
48
08
08
ENDCHAR
STARTCHAR theta
ENCODING 952
SWIDTH 1000 0
DWIDTH 9 0
BBX 6 7 1 -1
BITMAP
30
48
84
FC
84
48
30
ENDCHAR
STARTCHAR iota
ENCODING 953
SWIDTH 1000 0
DWIDTH 9 0
BBX 1 6 3 0
BITMAP
80
80
80
80
80
80
ENDCHAR
STARTCHAR kappa
ENCODING 954
SWIDTH 1000 0
DWIDTH 9 0
BBX 5 7 1 0
BITMAP
88
90
A0
C0
A0
90
88
ENDCHAR
STARTCHAR lambda
ENCODING 955
SWIDTH 1000 0
DWIDTH 9 0
BBX 5 7 2 -1
BITMAP
40
20
20
50
50
88
88
ENDCHAR
STARTCHAR uni03BC
ENCODING 956
SWIDTH 1000 0
DWIDTH 9 0
BBX 5 7 2 -1
BITMAP
88
88
88
D8
A8
80
80
ENDCHAR
STARTCHAR nu
ENCODING 957
SWIDTH 1000 0
DWIDTH 9 0
BBX 5 5 2 0
BITMAP
88
88
50
50
20
ENDCHAR
STARTCHAR xi
ENCODING 958
SWIDTH 1000 0
DWIDTH 9 0
BBX 4 8 2 -1
BITMAP
80
60
80
70
80
60
10
60
ENDCHAR
STARTCHAR omicron
ENCODING 959
SWIDTH 1000 0
DWIDTH 9 0
BBX 5 5 1 0
BITMAP
70
88
88
88
70
ENDCHAR
STARTCHAR pi
ENCODING 960
SWIDTH 1000 0
DWIDTH 9 0
BBX 7 6 0 -1
BITMAP
FE
28
28
28
28
28
ENDCHAR
STARTCHAR rho
ENCODING 961
SWIDTH 1000 0
DWIDTH 9 0
BBX 5 7 2 0
BITMAP
70
88
88
C8
B0
80
80
ENDCHAR
STARTCHAR sigma
ENCODING 963
SWIDTH 1000 0
DWIDTH 9 0
BBX 7 5 1 0
BITMAP
7E
88
88
88
70
ENDCHAR
STARTCHAR tau
ENCODING 964
SWIDTH 1000 0
DWIDTH 9 0
BBX 5 6 1 0
BITMAP
F8
20
20
20
20
20
ENDCHAR
STARTCHAR upsilon
ENCODING 965
SWIDTH 1000 0
DWIDTH 9 0
BBX 4 5 2 1
BITMAP
90
90
90
90
60
ENDCHAR
STARTCHAR phi
ENCODING 966
SWIDTH 1000 0
DWIDTH 9 0
BBX 5 8 1 -1
BITMAP
20
20
70
A8
A8
70
20
20
ENDCHAR
STARTCHAR chi
ENCODING 967
SWIDTH 1000 0
DWIDTH 9 0
BBX 7 7 0 0
BITMAP
82
44
28
10
28
44
82
ENDCHAR
STARTCHAR psi
ENCODING 968
SWIDTH 1000 0
DWIDTH 9 0
BBX 7 8 0 -1
BITMAP
10
10
92
92
92
7C
10
10
ENDCHAR
STARTCHAR omega
ENCODING 969
SWIDTH 1000 0
DWIDTH 9 0
BBX 7 6 0 0
BITMAP
44
82
92
92
92
6C
ENDCHAR
STARTCHAR uni0401
ENCODING 1025
SWIDTH 1000 0
DWIDTH 9 0
BBX 5 8 1 -1
BITMAP
50
F8
80
80
F0
80
80
F8
ENDCHAR
STARTCHAR uni0410
ENCODING 1040
SWIDTH 1000 0
DWIDTH 9 0
BBX 7 7 0 -1
BITMAP
10
10
28
28
7C
44
82
ENDCHAR
STARTCHAR uni0411
ENCODING 1041
SWIDTH 1000 0
DWIDTH 9 0
BBX 5 7 2 -1
BITMAP
F8
80
80
F0
88
88
F0
ENDCHAR
STARTCHAR uni0412
ENCODING 1042
SWIDTH 1000 0
DWIDTH 9 0
BBX 5 7 2 -1
BITMAP
F0
88
88
F0
88
88
F0
ENDCHAR
STARTCHAR uni0413
ENCODING 1043
SWIDTH 1000 0
DWIDTH 9 0
BBX 5 7 2 -1
BITMAP
F8
80
80
80
80
80
80
ENDCHAR
STARTCHAR uni0414
ENCODING 1044
SWIDTH 1000 0
DWIDTH 9 0
BBX 7 7 0 -1
BITMAP
10
10
28
28
44
FE
82
ENDCHAR
STARTCHAR uni0415
ENCODING 1045
SWIDTH 1000 0
DWIDTH 9 0
BBX 5 7 2 -1
BITMAP
F8
80
80
F0
80
80
F8
ENDCHAR
STARTCHAR uni0416
ENCODING 1046
SWIDTH 1000 0
DWIDTH 9 0
BBX 7 6 0 0
BITMAP
92
54
38
38
54
92
ENDCHAR
STARTCHAR uni0417
ENCODING 1047
SWIDTH 1000 0
DWIDTH 9 0
BBX 5 7 1 -1
BITMAP
70
88
08
30
08
88
70
ENDCHAR
STARTCHAR uni0418
ENCODING 1048
SWIDTH 1000 0
DWIDTH 9 0
BBX 6 6 1 0
BITMAP
8C
8C
94
A4
C4
84
ENDCHAR
STARTCHAR uni0419
ENCODING 1049
SWIDTH 1000 0
DWIDTH 9 0
BBX 6 8 1 -1
BITMAP
28
10
84
8C
94
A4
C4
84
ENDCHAR
STARTCHAR uni041A
ENCODING 1050
SWIDTH 1000 0
DWIDTH 9 0
BBX 6 8 2 -1
BITMAP
88
90
A0
C0
A0
90
88
8C
ENDCHAR
STARTCHAR uni041B
ENCODING 1051
SWIDTH 1000 0
DWIDTH 9 0
BBX 7 7 0 -1
BITMAP
10
10
28
28
44
44
82
ENDCHAR
STARTCHAR uni041C
ENCODING 1052
SWIDTH 1000 0
DWIDTH 9 0
BBX 7 7 0 -1
BITMAP
82
C6
C6
AA
AA
92
82
ENDCHAR
STARTCHAR uni041D
ENCODING 1053
SWIDTH 1000 0
DWIDTH 9 0
BBX 6 8 1 -1
BITMAP
84
84
84
FC
84
84
84
84
ENDCHAR
STARTCHAR uni041E
ENCODING 1054
SWIDTH 1000 0
DWIDTH 9 0
BBX 7 7 0 -1
BITMAP
38
44
82
82
82
44
38
ENDCHAR
STARTCHAR uni041F
ENCODING 1055
SWIDTH 1000 0
DWIDTH 9 0
BBX 5 8 1 -1
BITMAP
F8
88
88
88
88
88
88
88
ENDCHAR
STARTCHAR uni0420
ENCODING 1056
SWIDTH 1000 0
DWIDTH 9 0
BBX 5 8 2 -1
BITMAP
F0
88
88
88
F0
80
80
80
ENDCHAR
STARTCHAR uni0421
ENCODING 1057
SWIDTH 1000 0
DWIDTH 9 0
BBX 6 7 0 -1
BITMAP
78
84
80
80
80
84
78
ENDCHAR
STARTCHAR uni0422
ENCODING 1058
SWIDTH 1000 0
DWIDTH 9 0
BBX 7 8 0 -1
BITMAP
FE
10
10
10
10
10
10
10
ENDCHAR
STARTCHAR uni0423
ENCODING 1059
SWIDTH 1000 0
DWIDTH 9 0
BBX 5 8 1 -1
BITMAP
88
88
50
30
20
20
40
80
ENDCHAR
STARTCHAR uni0424
ENCODING 1060
SWIDTH 1000 0
DWIDTH 9 0
BBX 7 8 0 -1
BITMAP
10
10
7C
92
92
7C
10
10
ENDCHAR
STARTCHAR uni0425
ENCODING 1061
SWIDTH 1000 0
DWIDTH 9 0
BBX 7 7 0 -1
BITMAP
82
44
28
10
28
44
82
ENDCHAR
STARTCHAR uni0426
ENCODING 1062
SWIDTH 1000 0
DWIDTH 9 0
BBX 6 8 1 -1
BITMAP
88
88
88
88
88
88
FC
04
ENDCHAR
STARTCHAR uni0427
ENCODING 1063
SWIDTH 1000 0
DWIDTH 9 0
BBX 5 8 1 -1
BITMAP
88
88
88
88
98
68
08
08
ENDCHAR
STARTCHAR uni0428
ENCODING 1064
SWIDTH 1000 0
DWIDTH 9 0
BBX 7 7 0 0
BITMAP
92
92
92
92
92
92
FE
ENDCHAR
STARTCHAR uni0429
ENCODING 1065
SWIDTH 1000 0
DWIDTH 9 0
BBX 8 8 0 -1
BITMAP
92
92
92
92
92
92
FF
01
ENDCHAR
STARTCHAR uni042A
ENCODING 1066
SWIDTH 1000 0
DWIDTH 9 0
BBX 7 8 0 -1
BITMAP
E0
20
20
3C
22
22
22
3C
ENDCHAR
STARTCHAR uni042B
ENCODING 1067
SWIDTH 1000 0
DWIDTH 9 0
BBX 6 8 1 -1
BITMAP
84
84
84
E4
94
94
94
E4
ENDCHAR
STARTCHAR uni042C
ENCODING 1068
SWIDTH 1000 0
DWIDTH 9 0
BBX 6 8 1 -1
BITMAP
80
80
80
F8
84
84
84
F8
ENDCHAR
STARTCHAR uni042D
ENCODING 1069
SWIDTH 1000 0
DWIDTH 9 0
BBX 5 7 2 -1
BITMAP
70
88
08
38
08
88
70
ENDCHAR
STARTCHAR uni042E
ENCODING 1070
SWIDTH 1000 0
DWIDTH 9 0
BBX 7 8 1 -1
BITMAP
8C
92
92
F2
92
92
92
8C
ENDCHAR
STARTCHAR uni042F
ENCODING 1071
SWIDTH 1000 0
DWIDTH 9 0
BBX 6 8 0 -1
BITMAP
7C
84
84
7C
24
44
44
84
ENDCHAR
STARTCHAR uni0430
ENCODING 1072
SWIDTH 1000 0
DWIDTH 9 0
BBX 5 7 2 -1
BITMAP
60
90
10
70
90
B0
58
ENDCHAR
STARTCHAR uni0431
ENCODING 1073
SWIDTH 1000 0
DWIDTH 9 0
BBX 5 8 1 -1
BITMAP
10
60
80
80
F0
88
88
70
ENDCHAR
STARTCHAR uni0432
ENCODING 1074
SWIDTH 1000 0
DWIDTH 9 0
BBX 4 7 2 -1
BITMAP
E0
90
90
E0
90
90
E0
ENDCHAR
STARTCHAR uni0433
ENCODING 1075
SWIDTH 1000 0
DWIDTH 9 0
BBX 4 7 3 -1
BITMAP
F0
80
80
80
80
80
80
ENDCHAR
STARTCHAR uni0434
ENCODING 1076
SWIDTH 1000 0
DWIDTH 9 0
BBX 7 7 0 -1
BITMAP
10
10
28
28
44
FE
82
ENDCHAR
STARTCHAR uni0435
ENCODING 1077
SWIDTH 1000 0
DWIDTH 9 0
BBX 5 6 1 0
BITMAP
70
88
F8
80
88
70
ENDCHAR
STARTCHAR uni0436
ENCODING 1078
SWIDTH 1000 0
DWIDTH 9 0
BBX 7 6 0 0
BITMAP
92
54
38
38
54
92
ENDCHAR
STARTCHAR uni0437
ENCODING 1079
SWIDTH 1000 0
DWIDTH 9 0
BBX 5 6 1 0
BITMAP
70
88
30
08
88
70
ENDCHAR
STARTCHAR uni0438
ENCODING 1080
SWIDTH 1000 0
DWIDTH 9 0
BBX 5 6 1 0
BITMAP
88
98
A8
A8
C8
88
ENDCHAR
STARTCHAR uni0439
ENCODING 1081
SWIDTH 1000 0
DWIDTH 9 0
BBX 5 8 1 -1
BITMAP
50
20
88
98
A8
A8
C8
88
ENDCHAR
STARTCHAR uni043A
ENCODING 1082
SWIDTH 1000 0
DWIDTH 9 0
BBX 5 6 2 0
BITMAP
90
A0
C0
C0
A0
98
ENDCHAR
STARTCHAR uni043B
ENCODING 1083
SWIDTH 1000 0
DWIDTH 9 0
BBX 5 6 1 0
BITMAP
20
20
50
50
88
88
ENDCHAR
STARTCHAR uni043C
ENCODING 1084
SWIDTH 1000 0
DWIDTH 9 0
BBX 7 6 0 0
BITMAP
82
C6
AA
92
92
82
ENDCHAR
STARTCHAR uni043D
ENCODING 1085
SWIDTH 1000 0
DWIDTH 9 0
BBX 5 6 1 0
BITMAP
88
88
F8
88
88
88
ENDCHAR
STARTCHAR uni043E
ENCODING 1086
SWIDTH 1000 0
DWIDTH 9 0
BBX 5 6 1 0
BITMAP
70
88
88
88
88
70
ENDCHAR
STARTCHAR uni043F
ENCODING 1087
SWIDTH 1000 0
DWIDTH 9 0
BBX 4 6 2 0
BITMAP
F0
90
90
90
90
90
ENDCHAR
STARTCHAR uni0440
ENCODING 1088
SWIDTH 1000 0
DWIDTH 9 0
BBX 5 7 2 -1
BITMAP
B0
C8
88
C8
B0
80
80
ENDCHAR
STARTCHAR uni0441
ENCODING 1089
SWIDTH 1000 0
DWIDTH 9 0
BBX 5 6 2 0
BITMAP
70
88
80
80
88
70
ENDCHAR
STARTCHAR uni0442
ENCODING 1090
SWIDTH 1000 0
DWIDTH 9 0
BBX 5 6 1 0
BITMAP
F8
20
20
20
20
20
ENDCHAR
STARTCHAR uni0443
ENCODING 1091
SWIDTH 1000 0
DWIDTH 9 0
BBX 5 7 1 -1
BITMAP
88
88
50
20
20
40
80
ENDCHAR
STARTCHAR uni0444
ENCODING 1092
SWIDTH 1000 0
DWIDTH 9 0
BBX 7 8 0 -1
BITMAP
10
10
54
BA
BA
54
10
10
ENDCHAR
STARTCHAR uni0445
ENCODING 1093
SWIDTH 1000 0
DWIDTH 9 0
BBX 5 5 1 1
BITMAP
88
50
20
50
88
ENDCHAR
STARTCHAR uni0446
ENCODING 1094
SWIDTH 1000 0
DWIDTH 9 0
BBX 6 7 1 -1
BITMAP
88
88
88
88
88
FC
04
ENDCHAR
STARTCHAR uni0447
ENCODING 1095
SWIDTH 1000 0
DWIDTH 9 0
BBX 4 7 1 -1
BITMAP
90
90
90
90
70
10
10
ENDCHAR
STARTCHAR uni0448
ENCODING 1096
SWIDTH 1000 0
DWIDTH 9 0
BBX 5 6 1 0
BITMAP
A8
A8
A8
A8
A8
F8
ENDCHAR
STARTCHAR uni0449
ENCODING 1097
SWIDTH 1000 0
DWIDTH 9 0
BBX 6 7 1 -1
BITMAP
A8
A8
A8
A8
A8
FC
04
ENDCHAR
STARTCHAR uni044A
ENCODING 1098
SWIDTH 1000 0
DWIDTH 9 0
BBX 6 6 1 0
BITMAP
C0
40
78
44
44
78
ENDCHAR
STARTCHAR uni044B
ENCODING 1099
SWIDTH 1000 0
DWIDTH 9 0
BBX 6 6 1 0
BITMAP
84
84
E4
94
94
E4
ENDCHAR
STARTCHAR uni044C
ENCODING 1100
SWIDTH 1000 0
DWIDTH 9 0
BBX 5 6 2 0
BITMAP
80
80
F0
88
88
F0
ENDCHAR
STARTCHAR uni044D
ENCODING 1101
SWIDTH 1000 0
DWIDTH 9 0
BBX 5 6 1 0
BITMAP
70
88
38
08
88
70
ENDCHAR
STARTCHAR uni044E
ENCODING 1102
SWIDTH 1000 0
DWIDTH 9 0
BBX 6 6 1 0
BITMAP
98
A4
E4
A4
A4
98
ENDCHAR
STARTCHAR uni044F
ENCODING 1103
SWIDTH 1000 0
DWIDTH 9 0
BBX 5 7 1 -1
BITMAP
38
48
48
38
28
48
88
ENDCHAR
STARTCHAR uni0451
ENCODING 1105
SWIDTH 1000 0
DWIDTH 9 0
BBX 5 8 1 -1
BITMAP
50
00
70
88
F8
80
80
78
ENDCHAR
STARTCHAR uni2010
ENCODING 8208
SWIDTH 1000 0
DWIDTH 9 0
BBX 2 1 3 3
BITMAP
C0
ENDCHAR
STARTCHAR endash
ENCODING 8211
SWIDTH 1000 0
DWIDTH 9 0
BBX 3 1 3 2
BITMAP
E0
ENDCHAR
STARTCHAR emdash
ENCODING 8212
SWIDTH 1000 0
DWIDTH 9 0
BBX 8 1 0 1
BITMAP
FF
ENDCHAR
STARTCHAR uni2015
ENCODING 8213
SWIDTH 1000 0
DWIDTH 9 0
BBX 8 1 0 3
BITMAP
FF
ENDCHAR
STARTCHAR uni2016
ENCODING 8214
SWIDTH 1000 0
DWIDTH 9 0
BBX 3 8 2 -1
BITMAP
A0
A0
A0
A0
A0
A0
A0
A0
ENDCHAR
STARTCHAR quoteleft
ENCODING 8216
SWIDTH 1000 0
DWIDTH 9 0
BBX 2 3 5 4
BITMAP
40
80
80
ENDCHAR
STARTCHAR quoteright
ENCODING 8217
SWIDTH 1000 0
DWIDTH 9 0
BBX 2 3 1 4
BITMAP
40
40
80
ENDCHAR
STARTCHAR quotesinglbase
ENCODING 8218
SWIDTH 500 0
DWIDTH 4 0
BBX 1 1 0 0
BITMAP
00
ENDCHAR
STARTCHAR quotedblleft
ENCODING 8220
SWIDTH 1000 0
DWIDTH 9 0
BBX 4 3 3 4
BITMAP
50
A0
A0
ENDCHAR
STARTCHAR quotedblright
ENCODING 8221
SWIDTH 1000 0
DWIDTH 9 0
BBX 4 3 1 4
BITMAP
50
50
A0
ENDCHAR
STARTCHAR quotedblbase
ENCODING 8222
SWIDTH 500 0
DWIDTH 4 0
BBX 1 1 0 0
BITMAP
00
ENDCHAR
STARTCHAR dagger
ENCODING 8224
SWIDTH 500 0
DWIDTH 4 0
BBX 5 8 1 -2
BITMAP
20
F8
20
70
70
20
20
20
ENDCHAR
STARTCHAR daggerdbl
ENCODING 8225
SWIDTH 500 0
DWIDTH 4 0
BBX 5 8 1 -2
BITMAP
20
F8
20
70
70
20
F8
20
ENDCHAR
STARTCHAR bullet
ENCODING 8226
SWIDTH 500 0
DWIDTH 4 0
BBX 2 2 1 2
BITMAP
C0
C0
ENDCHAR
STARTCHAR twodotenleader
ENCODING 8229
SWIDTH 1000 0
DWIDTH 9 0
BBX 4 1 2 2
BITMAP
90
ENDCHAR
STARTCHAR ellipsis
ENCODING 8230
SWIDTH 1000 0
DWIDTH 9 0
BBX 7 1 0 2
BITMAP
92
ENDCHAR
STARTCHAR perthousand
ENCODING 8240
SWIDTH 1000 0
DWIDTH 9 0
BBX 8 8 0 -1
BITMAP
44
A8
A8
50
2A
55
55
8A
ENDCHAR
STARTCHAR minute
ENCODING 8242
SWIDTH 1000 0
DWIDTH 9 0
BBX 2 3 2 4
BITMAP
40
40
80
ENDCHAR
STARTCHAR second
ENCODING 8243
SWIDTH 1000 0
DWIDTH 9 0
BBX 5 3 1 4
BITMAP
48
48
90
ENDCHAR
STARTCHAR uni2035
ENCODING 8245
SWIDTH 1000 0
DWIDTH 9 0
BBX 2 2 6 5
BITMAP
80
40
ENDCHAR
STARTCHAR guilsinglleft
ENCODING 8249
SWIDTH 500 0
DWIDTH 4 0
BBX 2 3 0 1
BITMAP
40
80
40
ENDCHAR
STARTCHAR guilsinglright
ENCODING 8250
SWIDTH 500 0
DWIDTH 4 0
BBX 2 3 0 1
BITMAP
80
40
80
ENDCHAR
STARTCHAR uni203B
ENCODING 8251
SWIDTH 1000 0
DWIDTH 9 0
BBX 7 7 0 -1
BITMAP
92
44
28
92
28
44
92
ENDCHAR
STARTCHAR Euro
ENCODING 8364
SWIDTH 1000 0
DWIDTH 9 0
BBX 5 7 1 -1
BITMAP
38
40
F8
40
F8
40
38
ENDCHAR
STARTCHAR uni2103
ENCODING 8451
SWIDTH 1000 0
DWIDTH 9 0
BBX 8 8 0 -1
BITMAP
46
A9
50
10
10
10
09
06
ENDCHAR
STARTCHAR uni2105
ENCODING 8453
SWIDTH 1000 0
DWIDTH 9 0
BBX 8 8 0 -1
BITMAP
E4
A4
88
AF
F5
15
25
27
ENDCHAR
STARTCHAR uni2109
ENCODING 8457
SWIDTH 1000 0
DWIDTH 9 0
BBX 8 8 0 -1
BITMAP
C0
FF
11
12
1E
12
10
38
ENDCHAR
STARTCHAR uni2116
ENCODING 8470
SWIDTH 1000 0
DWIDTH 9 0
BBX 8 7 0 -1
BITMAP
48
52
75
75
52
50
97
ENDCHAR
STARTCHAR uni2121
ENCODING 8481
SWIDTH 1000 0
DWIDTH 9 0
BBX 8 3 0 3
BITMAP
FA
52
5B
ENDCHAR
STARTCHAR trademark
ENCODING 8482
SWIDTH 500 0
DWIDTH 4 0
BBX 4 3 0 3
BITMAP
D0
70
50
ENDCHAR
STARTCHAR uni2160
ENCODING 8544
SWIDTH 1000 0
DWIDTH 9 0
BBX 1 8 3 -1
BITMAP
80
80
80
80
80
80
80
80
ENDCHAR
STARTCHAR uni2161
ENCODING 8545
SWIDTH 1000 0
DWIDTH 9 0
BBX 5 8 1 -1
BITMAP
88
88
88
88
88
88
88
88
ENDCHAR
STARTCHAR uni2162
ENCODING 8546
SWIDTH 1000 0
DWIDTH 9 0
BBX 5 8 1 -1
BITMAP
A8
A8
A8
A8
A8
A8
A8
A8
ENDCHAR
STARTCHAR uni2163
ENCODING 8547
SWIDTH 1000 0
DWIDTH 9 0
BBX 7 8 0 -1
BITMAP
A2
A2
A2
94
94
94
88
88
ENDCHAR
STARTCHAR uni2164
ENCODING 8548
SWIDTH 1000 0
DWIDTH 9 0
BBX 5 8 1 -1
BITMAP
88
88
88
88
50
50
20
20
ENDCHAR
STARTCHAR uni2165
ENCODING 8549
SWIDTH 1000 0
DWIDTH 9 0
BBX 7 8 0 -1
BITMAP
8A
8A
8A
52
52
52
22
22
ENDCHAR
STARTCHAR uni2166
ENCODING 8550
SWIDTH 1000 0
DWIDTH 9 0
BBX 7 8 0 -1
BITMAP
AA
AA
AA
AA
AA
4A
4A
4A
ENDCHAR
STARTCHAR uni2167
ENCODING 8551
SWIDTH 1000 0
DWIDTH 9 0
BBX 8 8 0 -1
BITMAP
B5
B5
B5
B5
B5
55
55
55
ENDCHAR
STARTCHAR uni2168
ENCODING 8552
SWIDTH 1000 0
DWIDTH 9 0
BBX 6 8 1 -1
BITMAP
A4
A4
94
88
88
94
94
A4
ENDCHAR
STARTCHAR uni2169
ENCODING 8553
SWIDTH 1000 0
DWIDTH 9 0
BBX 7 8 0 -1
BITMAP
82
44
28
10
10
28
44
82
ENDCHAR
STARTCHAR uni216A
ENCODING 8554
SWIDTH 1000 0
DWIDTH 9 0
BBX 7 8 0 -1
BITMAP
AE
A4
A4
44
44
A4
A4
AE
ENDCHAR
STARTCHAR uni216B
ENCODING 8555
SWIDTH 1000 0
DWIDTH 9 0
BBX 8 8 0 -1
BITMAP
BF
AA
AA
AA
4A
4A
4A
5F
ENDCHAR
STARTCHAR uni2170
ENCODING 8560
SWIDTH 1000 0
DWIDTH 9 0
BBX 1 6 4 0
BITMAP
80
00
80
80
80
80
ENDCHAR
STARTCHAR uni2171
ENCODING 8561
SWIDTH 1000 0
DWIDTH 9 0
BBX 3 6 3 0
BITMAP
A0
00
A0
A0
A0
A0
ENDCHAR
STARTCHAR uni2172
ENCODING 8562
SWIDTH 1000 0
DWIDTH 9 0
BBX 5 6 2 0
BITMAP
A8
00
A8
A8
A8
A8
ENDCHAR
STARTCHAR uni2173
ENCODING 8563
SWIDTH 1000 0
DWIDTH 9 0
BBX 6 6 1 0
BITMAP
80
00
A4
A4
98
98
ENDCHAR
STARTCHAR uni2174
ENCODING 8564
SWIDTH 1000 0
DWIDTH 9 0
BBX 5 4 2 0
BITMAP
88
88
50
20
ENDCHAR
STARTCHAR uni2175
ENCODING 8565
SWIDTH 1000 0
DWIDTH 9 0
BBX 6 6 1 0
BITMAP
04
00
94
94
64
64
ENDCHAR
STARTCHAR uni2176
ENCODING 8566
SWIDTH 1000 0
DWIDTH 9 0
BBX 7 6 1 0
BITMAP
0A
00
AA
AA
4A
4A
ENDCHAR
STARTCHAR uni2177
ENCODING 8567
SWIDTH 1000 0
DWIDTH 9 0
BBX 8 6 0 0
BITMAP
15
00
B5
B5
55
55
ENDCHAR
STARTCHAR uni2178
ENCODING 8568
SWIDTH 1000 0
DWIDTH 9 0
BBX 6 6 1 0
BITMAP
80
00
A4
98
98
A4
ENDCHAR
STARTCHAR uni2179
ENCODING 8569
SWIDTH 1000 0
DWIDTH 9 0
BBX 4 4 2 0
BITMAP
90
60
60
90
ENDCHAR
STARTCHAR arrowleft
ENCODING 8592
SWIDTH 1000 0
DWIDTH 9 0
BBX 7 5 0 0
BITMAP
20
40
FE
40
20
ENDCHAR
STARTCHAR arrowup
ENCODING 8593
SWIDTH 1000 0
DWIDTH 9 0
BBX 5 7 1 -1
BITMAP
20
70
A8
20
20
20
20
ENDCHAR
STARTCHAR arrowright
ENCODING 8594
SWIDTH 1000 0
DWIDTH 9 0
BBX 7 5 1 0
BITMAP
08
04
FE
04
08
ENDCHAR
STARTCHAR arrowdown
ENCODING 8595
SWIDTH 1000 0
DWIDTH 9 0
BBX 5 7 1 -2
BITMAP
20
20
20
20
A8
70
20
ENDCHAR
STARTCHAR uni2196
ENCODING 8598
SWIDTH 1000 0
DWIDTH 9 0
BBX 7 7 0 -1
BITMAP
E0
C0
A0
10
08
04
02
ENDCHAR
STARTCHAR uni2197
ENCODING 8599
SWIDTH 1000 0
DWIDTH 9 0
BBX 7 7 1 -1
BITMAP
0E
06
0A
10
20
40
80
ENDCHAR
STARTCHAR uni2198
ENCODING 8600
SWIDTH 1000 0
DWIDTH 9 0
BBX 7 7 1 -2
BITMAP
80
40
20
10
0A
06
0E
ENDCHAR
STARTCHAR uni2199
ENCODING 8601
SWIDTH 1000 0
DWIDTH 9 0
BBX 7 7 1 -1
BITMAP
02
04
08
10
A0
C0
E0
ENDCHAR
STARTCHAR element
ENCODING 8712
SWIDTH 1000 0
DWIDTH 9 0
BBX 5 7 1 -1
BITMAP
38
40
80
F8
80
40
38
ENDCHAR
STARTCHAR product
ENCODING 8719
SWIDTH 1000 0
DWIDTH 9 0
BBX 7 8 0 -1
BITMAP
FE
44
44
44
44
44
44
EE
ENDCHAR
STARTCHAR summation
ENCODING 8721
SWIDTH 1000 0
DWIDTH 9 0
BBX 7 7 0 -1
BITMAP
FE
42
20
10
20
42
FE
ENDCHAR
STARTCHAR uni2215
ENCODING 8725
SWIDTH 1000 0
DWIDTH 9 0
BBX 4 8 0 -1
BITMAP
10
20
20
40
40
40
80
80
ENDCHAR
STARTCHAR radical
ENCODING 8730
SWIDTH 1000 0
DWIDTH 9 0
BBX 8 8 0 -1
BITMAP
01
02
02
04
04
48
A8
10
ENDCHAR
STARTCHAR proportional
ENCODING 8733
SWIDTH 1000 0
DWIDTH 9 0
BBX 8 4 0 1
BITMAP
6F
90
90
6F
ENDCHAR
STARTCHAR infinity
ENCODING 8734
SWIDTH 1000 0
DWIDTH 9 0
BBX 7 4 0 1
BITMAP
6C
92
92
6C
ENDCHAR
STARTCHAR orthogonal
ENCODING 8735
SWIDTH 1000 0
DWIDTH 9 0
BBX 7 6 0 0
BITMAP
80
80
80
80
80
FE
ENDCHAR
STARTCHAR angle
ENCODING 8736
SWIDTH 1000 0
DWIDTH 9 0
BBX 7 7 0 0
BITMAP
04
08
10
20
40
80
FE
ENDCHAR
STARTCHAR uni2223
ENCODING 8739
SWIDTH 1000 0
DWIDTH 9 0
BBX 1 6 3 0
BITMAP
80
80
80
80
80
80
ENDCHAR
STARTCHAR uni2225
ENCODING 8741
SWIDTH 1000 0
DWIDTH 9 0
BBX 6 6 1 0
BITMAP
24
24
48
48
90
90
ENDCHAR
STARTCHAR logicaland
ENCODING 8743
SWIDTH 1000 0
DWIDTH 9 0
BBX 5 6 1 0
BITMAP
20
20
50
50
88
88
ENDCHAR
STARTCHAR logicalor
ENCODING 8744
SWIDTH 1000 0
DWIDTH 9 0
BBX 5 6 1 0
BITMAP
88
88
50
50
20
20
ENDCHAR
STARTCHAR intersection
ENCODING 8745
SWIDTH 1000 0
DWIDTH 9 0
BBX 6 7 1 0
BITMAP
30
48
84
84
84
84
84
ENDCHAR
STARTCHAR union
ENCODING 8746
SWIDTH 1000 0
DWIDTH 9 0
BBX 6 7 1 0
BITMAP
84
84
84
84
84
48
30
ENDCHAR
STARTCHAR integral
ENCODING 8747
SWIDTH 1000 0
DWIDTH 9 0
BBX 5 8 1 -1
BITMAP
10
28
20
20
20
20
A0
40
ENDCHAR
STARTCHAR uni222E
ENCODING 8750
SWIDTH 1000 0
DWIDTH 9 0
BBX 7 8 1 -1
BITMAP
1C
12
38
54
54
38
A0
40
ENDCHAR
STARTCHAR therefore
ENCODING 8756
SWIDTH 1000 0
DWIDTH 9 0
BBX 5 6 1 0
BITMAP
20
00
00
00
00
88
ENDCHAR
STARTCHAR uni2235
ENCODING 8757
SWIDTH 1000 0
DWIDTH 9 0
BBX 5 6 1 0
BITMAP
88
00
00
00
00
20
ENDCHAR
STARTCHAR uni2236
ENCODING 8758
SWIDTH 1000 0
DWIDTH 9 0
BBX 1 4 3 1
BITMAP
80
00
00
80
ENDCHAR
STARTCHAR uni2237
ENCODING 8759
SWIDTH 1000 0
DWIDTH 9 0
BBX 5 5 1 1
BITMAP
88
00
00
00
88
ENDCHAR
STARTCHAR uni223D
ENCODING 8765
SWIDTH 1000 0
DWIDTH 9 0
BBX 7 4 0 1
BITMAP
4C
92
92
64
ENDCHAR
STARTCHAR approxequal
ENCODING 8776
SWIDTH 1000 0
DWIDTH 9 0
BBX 6 5 1 0
BITMAP
64
98
00
64
98
ENDCHAR
STARTCHAR uni224C
ENCODING 8780
SWIDTH 1000 0
DWIDTH 9 0
BBX 8 8 0 -1
BITMAP
46
89
91
62
00
FF
00
FF
ENDCHAR
STARTCHAR uni2252
ENCODING 8786
SWIDTH 1000 0
DWIDTH 9 0
BBX 8 7 0 0
BITMAP
80
00
FF
00
FF
00
01
ENDCHAR
STARTCHAR notequal
ENCODING 8800
SWIDTH 1000 0
DWIDTH 9 0
BBX 7 5 0 1
BITMAP
08
FE
10
FE
20
ENDCHAR
STARTCHAR equivalence
ENCODING 8801
SWIDTH 1000 0
DWIDTH 9 0
BBX 7 5 0 0
BITMAP
FE
00
FE
00
FE
ENDCHAR
STARTCHAR lessequal
ENCODING 8804
SWIDTH 1000 0
DWIDTH 9 0
BBX 6 7 0 -1
BITMAP
0C
30
C0
30
CC
30
0C
ENDCHAR
STARTCHAR greaterequal
ENCODING 8805
SWIDTH 1000 0
DWIDTH 9 0
BBX 6 7 2 -1
BITMAP
C0
30
0C
30
CC
30
C0
ENDCHAR
STARTCHAR uni2266
ENCODING 8806
SWIDTH 1000 0
DWIDTH 9 0
BBX 6 8 1 -1
BITMAP
0C
30
E0
1C
00
FC
00
FC
ENDCHAR
STARTCHAR uni2267
ENCODING 8807
SWIDTH 1000 0
DWIDTH 9 0
BBX 6 8 1 -1
BITMAP
E0
18
0C
F0
00
FC
00
FC
ENDCHAR
STARTCHAR uni226E
ENCODING 8814
SWIDTH 1000 0
DWIDTH 9 0
BBX 5 7 1 -1
BITMAP
28
30
60
A0
60
30
28
ENDCHAR
STARTCHAR uni226F
ENCODING 8815
SWIDTH 1000 0
DWIDTH 9 0
BBX 5 7 2 -1
BITMAP
A0
60
30
28
30
60
A0
ENDCHAR
STARTCHAR circleplus
ENCODING 8853
SWIDTH 1000 0
DWIDTH 9 0
BBX 7 7 1 -1
BITMAP
38
54
92
FE
92
54
38
ENDCHAR
STARTCHAR uni2299
ENCODING 8857
SWIDTH 1000 0
DWIDTH 9 0
BBX 7 7 0 -1
BITMAP
38
44
82
92
82
44
38
ENDCHAR
STARTCHAR perpendicular
ENCODING 8869
SWIDTH 1000 0
DWIDTH 9 0
BBX 7 8 0 -1
BITMAP
10
10
10
10
10
10
10
FE
ENDCHAR
STARTCHAR uni22BF
ENCODING 8895
SWIDTH 1000 0
DWIDTH 9 0
BBX 6 6 1 0
BITMAP
04
0C
14
24
44
FC
ENDCHAR
STARTCHAR uni2312
ENCODING 8978
SWIDTH 1000 0
DWIDTH 9 0
BBX 7 4 0 1
BITMAP
38
44
82
82
ENDCHAR
STARTCHAR uni2460
ENCODING 9312
SWIDTH 1000 0
DWIDTH 9 0
BBX 7 8 0 -1
BITMAP
38
44
B2
92
92
BA
44
38
ENDCHAR
STARTCHAR uni2461
ENCODING 9313
SWIDTH 1000 0
DWIDTH 9 0
BBX 8 8 0 -1
BITMAP
3C
5E
A5
89
91
BD
42
3C
ENDCHAR
STARTCHAR uni2462
ENCODING 9314
SWIDTH 1000 0
DWIDTH 9 0
BBX 8 8 0 -1
BITMAP
3C
5A
89
91
89
A9
52
3C
ENDCHAR
STARTCHAR uni2463
ENCODING 9315
SWIDTH 1000 0
DWIDTH 9 0
BBX 8 8 0 -1
BITMAP
3C
4A
99
A9
BD
89
42
3C
ENDCHAR
STARTCHAR uni2464
ENCODING 9316
SWIDTH 1000 0
DWIDTH 9 0
BBX 8 8 0 -1
BITMAP
3C
42
9D
91
99
85
5A
3C
ENDCHAR
STARTCHAR uni2465
ENCODING 9317
SWIDTH 1000 0
DWIDTH 9 0
BBX 8 8 0 -1
BITMAP
3C
4A
91
A9
A9
A9
52
3C
ENDCHAR
STARTCHAR uni2466
ENCODING 9318
SWIDTH 1000 0
DWIDTH 9 0
BBX 8 8 0 -1
BITMAP
3C
42
B9
89
89
91
52
3C
ENDCHAR
STARTCHAR uni2467
ENCODING 9319
SWIDTH 1000 0
DWIDTH 9 0
BBX 8 8 0 -1
BITMAP
3C
52
A9
91
A9
A9
52
3C
ENDCHAR
STARTCHAR uni2468
ENCODING 9320
SWIDTH 1000 0
DWIDTH 9 0
BBX 8 8 0 -1
BITMAP
3C
52
A9
A9
99
89
52
3C
ENDCHAR
STARTCHAR uni2469
ENCODING 9321
SWIDTH 1000 0
DWIDTH 9 0
BBX 8 8 0 -1
BITMAP
3C
42
A5
AB
AB
A5
42
3C
ENDCHAR
STARTCHAR uni2474
ENCODING 9332
SWIDTH 1000 0
DWIDTH 9 0
BBX 7 8 0 -1
BITMAP
44
92
92
92
92
92
92
44
ENDCHAR
STARTCHAR uni2475
ENCODING 9333
SWIDTH 1000 0
DWIDTH 9 0
BBX 7 8 0 -1
BITMAP
54
AA
AA
8A
92
A2
BA
44
ENDCHAR
STARTCHAR uni2476
ENCODING 9334
SWIDTH 1000 0
DWIDTH 9 0
BBX 7 8 0 -1
BITMAP
54
AA
8A
92
8A
8A
B2
44
ENDCHAR
STARTCHAR uni2477
ENCODING 9335
SWIDTH 1000 0
DWIDTH 9 0
BBX 8 8 0 -1
BITMAP
42
89
99
99
A9
BD
89
42
ENDCHAR
STARTCHAR uni2478
ENCODING 9336
SWIDTH 1000 0
DWIDTH 9 0
BBX 8 8 0 -1
BITMAP
5A
A1
A1
B9
85
85
89
72
ENDCHAR
STARTCHAR uni2479
ENCODING 9337
SWIDTH 1000 0
DWIDTH 9 0
BBX 8 8 0 -1
BITMAP
4A
91
A1
B9
A5
A5
99
42
ENDCHAR
STARTCHAR uni247A
ENCODING 9338
SWIDTH 1000 0
DWIDTH 9 0
BBX 8 8 0 -1
BITMAP
42
BD
85
89
89
91
91
52
ENDCHAR
STARTCHAR uni247B
ENCODING 9339
SWIDTH 1000 0
DWIDTH 9 0
BBX 8 8 0 -1
BITMAP
42
99
A5
99
A5
A5
99
42
ENDCHAR
STARTCHAR uni247C
ENCODING 9340
SWIDTH 1000 0
DWIDTH 9 0
BBX 8 8 0 -1
BITMAP
42
99
A5
AD
95
85
99
42
ENDCHAR
STARTCHAR uni247D
ENCODING 9341
SWIDTH 1000 0
DWIDTH 9 0
BBX 8 8 0 -1
BITMAP
42
89
D5
D5
D5
D5
89
42
ENDCHAR
STARTCHAR uni247E
ENCODING 9342
SWIDTH 1000 0
DWIDTH 9 0
BBX 8 8 0 -1
BITMAP
42
A9
A9
A9
A9
A9
A9
42
ENDCHAR
STARTCHAR uni247F
ENCODING 9343
SWIDTH 1000 0
DWIDTH 9 0
BBX 8 8 0 -1
BITMAP
42
89
D5
C5
C9
D1
9D
42
ENDCHAR
STARTCHAR uni2480
ENCODING 9344
SWIDTH 1000 0
DWIDTH 9 0
BBX 8 8 0 -1
BITMAP
42
99
C5
C9
C5
C5
99
42
ENDCHAR
STARTCHAR uni2481
ENCODING 9345
SWIDTH 1000 0
DWIDTH 9 0
BBX 8 8 0 -1
BITMAP
42
85
CD
CD
D5
DF
85
42
ENDCHAR
STARTCHAR uni2482
ENCODING 9346
SWIDTH 1000 0
DWIDTH 9 0
BBX 8 8 0 -1
BITMAP
42
9D
D1
D9
C5
C5
99
42
ENDCHAR
STARTCHAR uni2483
ENCODING 9347
SWIDTH 1000 0
DWIDTH 9 0
BBX 8 8 0 -1
BITMAP
42
89
D1
D9
D5
D5
89
42
ENDCHAR
STARTCHAR uni2484
ENCODING 9348
SWIDTH 1000 0
DWIDTH 9 0
BBX 8 8 0 -1
BITMAP
42
9D
C5
C5
C9
C9
89
42
ENDCHAR
STARTCHAR uni2485
ENCODING 9349
SWIDTH 1000 0
DWIDTH 9 0
BBX 8 8 0 -1
BITMAP
42
89
D5
C9
D5
D5
89
42
ENDCHAR
STARTCHAR uni2486
ENCODING 9350
SWIDTH 1000 0
DWIDTH 9 0
BBX 8 8 0 -1
BITMAP
42
89
D5
D5
CD
C5
89
52
ENDCHAR
STARTCHAR uni2487
ENCODING 9351
SWIDTH 1000 0
DWIDTH 9 0
BBX 8 8 0 -1
BITMAP
42
B5
9B
9B
AB
CB
F5
42
ENDCHAR
STARTCHAR uni2488
ENCODING 9352
SWIDTH 1000 0
DWIDTH 9 0
BBX 5 8 2 -1
BITMAP
40
C0
40
40
40
40
40
48
ENDCHAR
STARTCHAR uni2489
ENCODING 9353
SWIDTH 1000 0
DWIDTH 9 0
BBX 6 8 1 -1
BITMAP
60
90
10
20
40
40
80
F4
ENDCHAR
STARTCHAR uni248A
ENCODING 9354
SWIDTH 1000 0
DWIDTH 9 0
BBX 6 8 1 -1
BITMAP
60
90
10
60
10
10
90
64
ENDCHAR
STARTCHAR uni248B
ENCODING 9355
SWIDTH 1000 0
DWIDTH 9 0
BBX 7 8 0 -1
BITMAP
10
30
30
50
90
F8
10
12
ENDCHAR
STARTCHAR uni248C
ENCODING 9356
SWIDTH 1000 0
DWIDTH 9 0
BBX 6 8 1 -1
BITMAP
F0
80
80
E0
10
10
20
C4
ENDCHAR
STARTCHAR uni248D
ENCODING 9357
SWIDTH 1000 0
DWIDTH 9 0
BBX 6 8 1 -1
BITMAP
20
40
80
A0
D0
90
90
64
ENDCHAR
STARTCHAR uni248E
ENCODING 9358
SWIDTH 1000 0
DWIDTH 9 0
BBX 6 8 1 -1
BITMAP
F0
10
10
20
20
40
40
44
ENDCHAR
STARTCHAR uni248F
ENCODING 9359
SWIDTH 1000 0
DWIDTH 9 0
BBX 6 8 1 -1
BITMAP
60
90
90
60
90
90
90
64
ENDCHAR
STARTCHAR uni2490
ENCODING 9360
SWIDTH 1000 0
DWIDTH 9 0
BBX 6 8 1 -1
BITMAP
60
90
90
B0
50
10
20
44
ENDCHAR
STARTCHAR uni2491
ENCODING 9361
SWIDTH 1000 0
DWIDTH 9 0
BBX 7 8 0 -1
BITMAP
98
A4
A4
A4
A4
A4
A4
9A
ENDCHAR
STARTCHAR uni2492
ENCODING 9362
SWIDTH 1000 0
DWIDTH 9 0
BBX 8 8 0 -1
BITMAP
44
CC
44
44
44
44
44
45
ENDCHAR
STARTCHAR uni2493
ENCODING 9363
SWIDTH 1000 0
DWIDTH 9 0
BBX 8 8 0 -1
BITMAP
98
A4
84
88
88
90
A0
BD
ENDCHAR
STARTCHAR uni2494
ENCODING 9364
SWIDTH 1000 0
DWIDTH 9 0
BBX 7 8 0 -1
BITMAP
98
A4
84
98
84
84
A4
9A
ENDCHAR
STARTCHAR uni2495
ENCODING 9365
SWIDTH 1000 0
DWIDTH 9 0
BBX 7 8 0 -1
BITMAP
88
98
98
A8
A8
BC
88
8A
ENDCHAR
STARTCHAR uni2496
ENCODING 9366
SWIDTH 1000 0
DWIDTH 9 0
BBX 7 8 0 -1
BITMAP
BC
A0
A8
B4
84
84
88
B2
ENDCHAR
STARTCHAR uni2497
ENCODING 9367
SWIDTH 1000 0
DWIDTH 9 0
BBX 7 8 0 -1
BITMAP
88
90
A0
B8
A4
A4
A4
9A
ENDCHAR
STARTCHAR uni2498
ENCODING 9368
SWIDTH 1000 0
DWIDTH 9 0
BBX 7 8 0 -1
BITMAP
BC
84
84
88
88
90
90
92
ENDCHAR
STARTCHAR uni2499
ENCODING 9369
SWIDTH 1000 0
DWIDTH 9 0
BBX 7 8 0 -1
BITMAP
98
A4
A4
98
A4
A4
A4
9A
ENDCHAR
STARTCHAR uni249A
ENCODING 9370
SWIDTH 1000 0
DWIDTH 9 0
BBX 7 8 0 -1
BITMAP
98
A4
A4
AC
94
84
88
92
ENDCHAR
STARTCHAR uni249B
ENCODING 9371
SWIDTH 1000 0
DWIDTH 9 0
BBX 8 8 0 -1
BITMAP
64
AA
2A
4A
4A
8A
8A
E5
ENDCHAR
STARTCHAR SF100000
ENCODING 9472
SWIDTH 1000 0
DWIDTH 9 0
BBX 8 1 0 3
BITMAP
FF
ENDCHAR
STARTCHAR uni2501
ENCODING 9473
SWIDTH 1000 0
DWIDTH 9 0
BBX 8 2 0 2
BITMAP
FF
FF
ENDCHAR
STARTCHAR SF110000
ENCODING 9474
SWIDTH 1000 0
DWIDTH 9 0
BBX 1 8 3 -1
BITMAP
80
80
80
80
80
80
80
80
ENDCHAR
STARTCHAR uni2503
ENCODING 9475
SWIDTH 1000 0
DWIDTH 9 0
BBX 2 8 3 -1
BITMAP
C0
C0
C0
C0
C0
C0
C0
C0
ENDCHAR
STARTCHAR uni2504
ENCODING 9476
SWIDTH 1000 0
DWIDTH 9 0
BBX 5 1 1 3
BITMAP
A8
ENDCHAR
STARTCHAR uni2505
ENCODING 9477
SWIDTH 1000 0
DWIDTH 9 0
BBX 5 2 1 2
BITMAP
A8
A8
ENDCHAR
STARTCHAR uni2506
ENCODING 9478
SWIDTH 1000 0
DWIDTH 9 0
BBX 1 5 3 1
BITMAP
80
00
80
00
80
ENDCHAR
STARTCHAR uni2507
ENCODING 9479
SWIDTH 1000 0
DWIDTH 9 0
BBX 2 5 3 1
BITMAP
C0
00
C0
00
C0
ENDCHAR
STARTCHAR uni2508
ENCODING 9480
SWIDTH 1000 0
DWIDTH 9 0
BBX 7 1 0 3
BITMAP
AA
ENDCHAR
STARTCHAR uni2509
ENCODING 9481
SWIDTH 1000 0
DWIDTH 9 0
BBX 7 2 0 2
BITMAP
AA
AA
ENDCHAR
STARTCHAR uni250A
ENCODING 9482
SWIDTH 1000 0
DWIDTH 9 0
BBX 1 7 3 0
BITMAP
80
00
80
00
80
00
80
ENDCHAR
STARTCHAR uni250B
ENCODING 9483
SWIDTH 1000 0
DWIDTH 9 0
BBX 2 7 3 0
BITMAP
C0
00
C0
00
C0
00
C0
ENDCHAR
STARTCHAR SF010000
ENCODING 9484
SWIDTH 1000 0
DWIDTH 9 0
BBX 5 5 3 -1
BITMAP
F8
80
80
80
80
ENDCHAR
STARTCHAR uni250D
ENCODING 9485
SWIDTH 1000 0
DWIDTH 9 0
BBX 5 5 3 -1
BITMAP
F8
F8
80
80
80
ENDCHAR
STARTCHAR uni250E
ENCODING 9486
SWIDTH 1000 0
DWIDTH 9 0
BBX 5 5 3 -1
BITMAP
F8
C0
C0
C0
C0
ENDCHAR
STARTCHAR uni250F
ENCODING 9487
SWIDTH 1000 0
DWIDTH 9 0
BBX 5 5 3 -1
BITMAP
F8
F8
C0
C0
C0
ENDCHAR
STARTCHAR SF030000
ENCODING 9488
SWIDTH 1000 0
DWIDTH 9 0
BBX 4 5 0 -1
BITMAP
F0
10
10
10
10
ENDCHAR
STARTCHAR uni2511
ENCODING 9489
SWIDTH 1000 0
DWIDTH 9 0
BBX 4 5 0 -1
BITMAP
F0
F0
10
10
10
ENDCHAR
STARTCHAR uni2512
ENCODING 9490
SWIDTH 1000 0
DWIDTH 9 0
BBX 5 5 0 -1
BITMAP
F8
18
18
18
18
ENDCHAR
STARTCHAR uni2513
ENCODING 9491
SWIDTH 1000 0
DWIDTH 9 0
BBX 5 5 0 -1
BITMAP
F8
F8
18
18
18
ENDCHAR
STARTCHAR SF020000
ENCODING 9492
SWIDTH 1000 0
DWIDTH 9 0
BBX 5 4 3 3
BITMAP
80
80
80
F8
ENDCHAR
STARTCHAR uni2515
ENCODING 9493
SWIDTH 1000 0
DWIDTH 9 0
BBX 5 5 3 2
BITMAP
80
80
80
F8
F8
ENDCHAR
STARTCHAR uni2516
ENCODING 9494
SWIDTH 1000 0
DWIDTH 9 0
BBX 5 4 3 3
BITMAP
C0
C0
C0
F8
ENDCHAR
STARTCHAR uni2517
ENCODING 9495
SWIDTH 1000 0
DWIDTH 9 0
BBX 5 5 3 2
BITMAP
C0
C0
C0
F8
F8
ENDCHAR
STARTCHAR SF040000
ENCODING 9496
SWIDTH 1000 0
DWIDTH 9 0
BBX 4 4 0 3
BITMAP
10
10
10
F0
ENDCHAR
STARTCHAR uni2519
ENCODING 9497
SWIDTH 1000 0
DWIDTH 9 0
BBX 4 5 0 2
BITMAP
10
10
10
F0
F0
ENDCHAR
STARTCHAR uni251A
ENCODING 9498
SWIDTH 1000 0
DWIDTH 9 0
BBX 5 4 0 3
BITMAP
18
18
18
F8
ENDCHAR
STARTCHAR uni251B
ENCODING 9499
SWIDTH 1000 0
DWIDTH 9 0
BBX 5 5 0 2
BITMAP
18
18
18
F8
F8
ENDCHAR
STARTCHAR SF080000
ENCODING 9500
SWIDTH 1000 0
DWIDTH 9 0
BBX 5 8 3 -1
BITMAP
80
80
80
F8
80
80
80
80
ENDCHAR
STARTCHAR uni251D
ENCODING 9501
SWIDTH 1000 0
DWIDTH 9 0
BBX 5 8 3 -1
BITMAP
80
80
80
F8
F8
80
80
80
ENDCHAR
STARTCHAR uni251E
ENCODING 9502
SWIDTH 1000 0
DWIDTH 9 0
BBX 5 8 3 -1
BITMAP
C0
C0
C0
F8
80
80
80
80
ENDCHAR
STARTCHAR uni251F
ENCODING 9503
SWIDTH 1000 0
DWIDTH 9 0
BBX 5 8 3 -1
BITMAP
80
80
80
F8
C0
C0
C0
C0
ENDCHAR
STARTCHAR uni2520
ENCODING 9504
SWIDTH 1000 0
DWIDTH 9 0
BBX 5 8 3 -1
BITMAP
C0
C0
C0
F8
C0
C0
C0
C0
ENDCHAR
STARTCHAR uni2521
ENCODING 9505
SWIDTH 1000 0
DWIDTH 9 0
BBX 5 8 3 -1
BITMAP
C0
C0
C0
F8
F8
80
80
80
ENDCHAR
STARTCHAR uni2522
ENCODING 9506
SWIDTH 1000 0
DWIDTH 9 0
BBX 5 8 3 -1
BITMAP
80
80
80
F8
F8
C0
C0
C0
ENDCHAR
STARTCHAR uni2523
ENCODING 9507
SWIDTH 1000 0
DWIDTH 9 0
BBX 5 8 3 -1
BITMAP
C0
C0
C0
F8
F8
C0
C0
C0
ENDCHAR
STARTCHAR SF090000
ENCODING 9508
SWIDTH 1000 0
DWIDTH 9 0
BBX 4 8 0 -1
BITMAP
10
10
10
F0
10
10
10
10
ENDCHAR
STARTCHAR uni2525
ENCODING 9509
SWIDTH 1000 0
DWIDTH 9 0
BBX 4 8 0 -1
BITMAP
10
10
10
F0
F0
10
10
10
ENDCHAR
STARTCHAR uni2526
ENCODING 9510
SWIDTH 1000 0
DWIDTH 9 0
BBX 5 8 0 -1
BITMAP
18
18
18
F8
10
10
10
10
ENDCHAR
STARTCHAR uni2527
ENCODING 9511
SWIDTH 1000 0
DWIDTH 9 0
BBX 5 8 0 -1
BITMAP
10
10
10
F8
18
18
18
18
ENDCHAR
STARTCHAR uni2528
ENCODING 9512
SWIDTH 1000 0
DWIDTH 9 0
BBX 5 8 0 -1
BITMAP
18
18
18
F8
18
18
18
18
ENDCHAR
STARTCHAR uni2529
ENCODING 9513
SWIDTH 1000 0
DWIDTH 9 0
BBX 5 8 0 -1
BITMAP
18
18
18
F8
F8
10
10
10
ENDCHAR
STARTCHAR uni252A
ENCODING 9514
SWIDTH 1000 0
DWIDTH 9 0
BBX 5 8 0 -1
BITMAP
10
10
10
F0
F8
18
18
18
ENDCHAR
STARTCHAR uni252B
ENCODING 9515
SWIDTH 1000 0
DWIDTH 9 0
BBX 5 8 0 -1
BITMAP
18
18
18
F8
F8
18
18
18
ENDCHAR
STARTCHAR SF060000
ENCODING 9516
SWIDTH 1000 0
DWIDTH 9 0
BBX 8 5 0 -1
BITMAP
FF
10
10
10
10
ENDCHAR
STARTCHAR uni252D
ENCODING 9517
SWIDTH 1000 0
DWIDTH 9 0
BBX 8 5 0 -1
BITMAP
FF
F0
10
10
10
ENDCHAR
STARTCHAR uni252E
ENCODING 9518
SWIDTH 1000 0
DWIDTH 9 0
BBX 8 5 0 -1
BITMAP
FF
1F
10
10
10
ENDCHAR
STARTCHAR uni252F
ENCODING 9519
SWIDTH 1000 0
DWIDTH 9 0
BBX 8 5 0 -1
BITMAP
FF
FF
10
10
10
ENDCHAR
STARTCHAR uni2530
ENCODING 9520
SWIDTH 1000 0
DWIDTH 9 0
BBX 8 5 0 -1
BITMAP
FF
18
18
18
18
ENDCHAR
STARTCHAR uni2531
ENCODING 9521
SWIDTH 1000 0
DWIDTH 9 0
BBX 8 5 0 -1
BITMAP
FF
F8
18
18
18
ENDCHAR
STARTCHAR uni2532
ENCODING 9522
SWIDTH 1000 0
DWIDTH 9 0
BBX 8 5 0 -1
BITMAP
FF
1F
18
18
18
ENDCHAR
STARTCHAR uni2533
ENCODING 9523
SWIDTH 1000 0
DWIDTH 9 0
BBX 8 5 0 -1
BITMAP
FF
FF
18
18
18
ENDCHAR
STARTCHAR SF070000
ENCODING 9524
SWIDTH 1000 0
DWIDTH 9 0
BBX 8 4 0 3
BITMAP
10
10
10
FF
ENDCHAR
STARTCHAR uni2535
ENCODING 9525
SWIDTH 1000 0
DWIDTH 9 0
BBX 8 5 0 2
BITMAP
10
10
10
FF
F0
ENDCHAR
STARTCHAR uni2536
ENCODING 9526
SWIDTH 1000 0
DWIDTH 9 0
BBX 8 5 0 2
BITMAP
10
10
10
FF
1F
ENDCHAR
STARTCHAR uni2537
ENCODING 9527
SWIDTH 1000 0
DWIDTH 9 0
BBX 8 5 0 2
BITMAP
10
10
10
FF
FF
ENDCHAR
STARTCHAR uni2538
ENCODING 9528
SWIDTH 1000 0
DWIDTH 9 0
BBX 8 4 0 3
BITMAP
18
18
18
FF
ENDCHAR
STARTCHAR uni2539
ENCODING 9529
SWIDTH 1000 0
DWIDTH 9 0
BBX 8 5 0 2
BITMAP
18
18
18
FF
F8
ENDCHAR
STARTCHAR uni253A
ENCODING 9530
SWIDTH 1000 0
DWIDTH 9 0
BBX 8 5 0 2
BITMAP
18
18
18
FF
1F
ENDCHAR
STARTCHAR uni253B
ENCODING 9531
SWIDTH 1000 0
DWIDTH 9 0
BBX 8 5 0 2
BITMAP
18
18
18
FF
FF
ENDCHAR
STARTCHAR SF050000
ENCODING 9532
SWIDTH 1000 0
DWIDTH 9 0
BBX 8 8 0 -1
BITMAP
10
10
10
FF
10
10
10
10
ENDCHAR
STARTCHAR uni253D
ENCODING 9533
SWIDTH 1000 0
DWIDTH 9 0
BBX 8 8 0 -1
BITMAP
10
10
10
FF
F0
10
10
10
ENDCHAR
STARTCHAR uni253E
ENCODING 9534
SWIDTH 1000 0
DWIDTH 9 0
BBX 8 8 0 -1
BITMAP
10
10
10
FF
1F
10
10
10
ENDCHAR
STARTCHAR uni253F
ENCODING 9535
SWIDTH 1000 0
DWIDTH 9 0
BBX 8 8 0 -1
BITMAP
10
10
10
FF
FF
10
10
10
ENDCHAR
STARTCHAR uni2540
ENCODING 9536
SWIDTH 1000 0
DWIDTH 9 0
BBX 8 8 0 -1
BITMAP
18
18
18
FF
10
10
10
10
ENDCHAR
STARTCHAR uni2541
ENCODING 9537
SWIDTH 1000 0
DWIDTH 9 0
BBX 8 8 0 -1
BITMAP
10
10
10
FF
18
18
18
18
ENDCHAR
STARTCHAR uni2542
ENCODING 9538
SWIDTH 1000 0
DWIDTH 9 0
BBX 8 8 0 -1
BITMAP
18
18
18
FF
18
18
18
18
ENDCHAR
STARTCHAR uni2543
ENCODING 9539
SWIDTH 1000 0
DWIDTH 9 0
BBX 8 8 0 -1
BITMAP
18
18
18
FF
F0
10
10
10
ENDCHAR
STARTCHAR uni2544
ENCODING 9540
SWIDTH 1000 0
DWIDTH 9 0
BBX 8 8 0 -1
BITMAP
18
18
18
FF
1F
10
10
10
ENDCHAR
STARTCHAR uni2545
ENCODING 9541
SWIDTH 1000 0
DWIDTH 9 0
BBX 8 8 0 -1
BITMAP
10
10
10
FF
F8
18
18
18
ENDCHAR
STARTCHAR uni2546
ENCODING 9542
SWIDTH 1000 0
DWIDTH 9 0
BBX 8 8 0 -1
BITMAP
10
10
10
FF
1F
18
18
18
ENDCHAR
STARTCHAR uni2547
ENCODING 9543
SWIDTH 1000 0
DWIDTH 9 0
BBX 8 8 0 -1
BITMAP
18
18
18
FF
FF
10
10
10
ENDCHAR
STARTCHAR uni2548
ENCODING 9544
SWIDTH 1000 0
DWIDTH 9 0
BBX 8 8 0 -1
BITMAP
10
10
10
FF
FF
18
18
18
ENDCHAR
STARTCHAR uni2549
ENCODING 9545
SWIDTH 1000 0
DWIDTH 9 0
BBX 8 8 0 -1
BITMAP
18
18
18
FF
F8
18
18
18
ENDCHAR
STARTCHAR uni254A
ENCODING 9546
SWIDTH 1000 0
DWIDTH 9 0
BBX 8 8 0 -1
BITMAP
18
18
18
FF
1F
18
18
18
ENDCHAR
STARTCHAR uni254B
ENCODING 9547
SWIDTH 1000 0
DWIDTH 9 0
BBX 8 8 0 -1
BITMAP
18
18
18
FF
FF
18
18
18
ENDCHAR
STARTCHAR SF430000
ENCODING 9552
SWIDTH 1000 0
DWIDTH 9 0
BBX 9 5 0 0
BITMAP
FF80
0000
0000
0000
FF80
ENDCHAR
STARTCHAR uni256D
ENCODING 9581
SWIDTH 1000 0
DWIDTH 9 0
BBX 5 5 4 -2
BITMAP
38
40
80
80
80
ENDCHAR
STARTCHAR uni256E
ENCODING 9582
SWIDTH 1000 0
DWIDTH 9 0
BBX 5 5 0 -2
BITMAP
E0
10
08
08
08
ENDCHAR
STARTCHAR uni256F
ENCODING 9583
SWIDTH 1000 0
DWIDTH 9 0
BBX 5 5 0 2
BITMAP
08
08
08
10
E0
ENDCHAR
STARTCHAR uni2570
ENCODING 9584
SWIDTH 1000 0
DWIDTH 9 0
BBX 5 5 4 2
BITMAP
80
80
80
40
38
ENDCHAR
STARTCHAR uni2571
ENCODING 9585
SWIDTH 1000 0
DWIDTH 9 0
BBX 9 9 0 -2
BITMAP
0080
0100
0200
0400
0800
1000
2000
4000
8000
ENDCHAR
STARTCHAR uni2572
ENCODING 9586
SWIDTH 1000 0
DWIDTH 9 0
BBX 9 9 0 -2
BITMAP
8000
4000
2000
1000
0800
0400
0200
0100
0080
ENDCHAR
STARTCHAR uni2573
ENCODING 9587
SWIDTH 1000 0
DWIDTH 9 0
BBX 9 9 0 -2
BITMAP
8080
4100
2200
1400
0800
1400
2200
4100
8080
ENDCHAR
STARTCHAR uni2581
ENCODING 9601
SWIDTH 1000 0
DWIDTH 9 0
BBX 9 1 0 -2
BITMAP
FF80
ENDCHAR
STARTCHAR uni2582
ENCODING 9602
SWIDTH 1000 0
DWIDTH 9 0
BBX 9 2 0 -2
BITMAP
FF80
FF80
ENDCHAR
STARTCHAR uni2583
ENCODING 9603
SWIDTH 1000 0
DWIDTH 9 0
BBX 9 3 0 -2
BITMAP
FF80
FF80
FF80
ENDCHAR
STARTCHAR dnblock
ENCODING 9604
SWIDTH 1000 0
DWIDTH 9 0
BBX 9 4 0 -2
BITMAP
FF80
FF80
FF80
FF80
ENDCHAR
STARTCHAR uni2585
ENCODING 9605
SWIDTH 1000 0
DWIDTH 9 0
BBX 9 5 0 -2
BITMAP
FF80
FF80
FF80
FF80
FF80
ENDCHAR
STARTCHAR uni2586
ENCODING 9606
SWIDTH 1000 0
DWIDTH 9 0
BBX 9 6 0 -2
BITMAP
FF80
FF80
FF80
FF80
FF80
FF80
ENDCHAR
STARTCHAR uni2587
ENCODING 9607
SWIDTH 1000 0
DWIDTH 9 0
BBX 9 7 0 -2
BITMAP
FF80
FF80
FF80
FF80
FF80
FF80
FF80
ENDCHAR
STARTCHAR block
ENCODING 9608
SWIDTH 1000 0
DWIDTH 9 0
BBX 9 9 0 -2
BITMAP
FF80
FF80
FF80
FF80
FF80
FF80
FF80
FF80
FF80
ENDCHAR
STARTCHAR uni2589
ENCODING 9609
SWIDTH 1000 0
DWIDTH 9 0
BBX 6 9 0 -2
BITMAP
FC
FC
FC
FC
FC
FC
FC
FC
FC
ENDCHAR
STARTCHAR uni258A
ENCODING 9610
SWIDTH 1000 0
DWIDTH 9 0
BBX 5 9 0 -2
BITMAP
F8
F8
F8
F8
F8
F8
F8
F8
F8
ENDCHAR
STARTCHAR uni258B
ENCODING 9611
SWIDTH 1000 0
DWIDTH 9 0
BBX 4 9 0 -2
BITMAP
F0
F0
F0
F0
F0
F0
F0
F0
F0
ENDCHAR
STARTCHAR lfblock
ENCODING 9612
SWIDTH 1000 0
DWIDTH 9 0
BBX 3 9 0 -2
BITMAP
E0
E0
E0
E0
E0
E0
E0
E0
E0
ENDCHAR
STARTCHAR uni258D
ENCODING 9613
SWIDTH 1000 0
DWIDTH 9 0
BBX 2 9 0 -2
BITMAP
C0
C0
C0
C0
C0
C0
C0
C0
C0
ENDCHAR
STARTCHAR uni258E
ENCODING 9614
SWIDTH 1000 0
DWIDTH 9 0
BBX 2 9 0 -2
BITMAP
C0
C0
C0
C0
C0
C0
C0
C0
C0
ENDCHAR
STARTCHAR uni258F
ENCODING 9615
SWIDTH 1000 0
DWIDTH 9 0
BBX 1 9 0 -2
BITMAP
80
80
80
80
80
80
80
80
80
ENDCHAR
STARTCHAR dkshade
ENCODING 9619
SWIDTH 1000 0
DWIDTH 9 0
BBX 9 9 0 -2
BITMAP
FF80
D580
AA80
D580
AA80
D580
AA80
D580
FF80
ENDCHAR
STARTCHAR uni2594
ENCODING 9620
SWIDTH 1000 0
DWIDTH 9 0
BBX 9 2 0 5
BITMAP
FF80
FF80
ENDCHAR
STARTCHAR uni2595
ENCODING 9621
SWIDTH 1000 0
DWIDTH 9 0
BBX 1 9 4 -2
BITMAP
80
80
80
80
80
80
80
80
80
ENDCHAR
STARTCHAR filledbox
ENCODING 9632
SWIDTH 1000 0
DWIDTH 9 0
BBX 7 7 0 -1
BITMAP
FE
FE
FE
FE
FE
FE
FE
ENDCHAR
STARTCHAR H22073
ENCODING 9633
SWIDTH 1000 0
DWIDTH 9 0
BBX 7 7 0 -1
BITMAP
FE
82
82
82
82
82
FE
ENDCHAR
STARTCHAR triagup
ENCODING 9650
SWIDTH 1000 0
DWIDTH 9 0
BBX 7 6 0 -1
BITMAP
10
38
38
7C
7C
FE
ENDCHAR
STARTCHAR uni25B3
ENCODING 9651
SWIDTH 1000 0
DWIDTH 9 0
BBX 7 6 0 -1
BITMAP
10
28
28
44
44
FE
ENDCHAR
STARTCHAR triagdn
ENCODING 9660
SWIDTH 1000 0
DWIDTH 9 0
BBX 3 4 0 0
BITMAP
60
80
80
60
ENDCHAR
STARTCHAR uni25BD
ENCODING 9661
SWIDTH 1000 0
DWIDTH 9 0
BBX 7 6 1 0
BITMAP
82
44
44
28
28
10
ENDCHAR
STARTCHAR uni25C6
ENCODING 9670
SWIDTH 1000 0
DWIDTH 9 0
BBX 7 7 0 -1
BITMAP
10
38
7C
FE
7C
38
10
ENDCHAR
STARTCHAR uni25C7
ENCODING 9671
SWIDTH 1000 0
DWIDTH 9 0
BBX 7 7 0 -1
BITMAP
10
28
44
82
44
28
10
ENDCHAR
STARTCHAR circle
ENCODING 9675
SWIDTH 1000 0
DWIDTH 9 0
BBX 7 7 0 -1
BITMAP
38
44
82
82
82
44
38
ENDCHAR
STARTCHAR uni25CE
ENCODING 9678
SWIDTH 1000 0
DWIDTH 9 0
BBX 7 7 0 -1
BITMAP
38
44
92
AA
92
44
38
ENDCHAR
STARTCHAR H18533
ENCODING 9679
SWIDTH 1000 0
DWIDTH 9 0
BBX 7 7 0 -1
BITMAP
38
7C
FE
FE
FE
7C
38
ENDCHAR
STARTCHAR uni25E2
ENCODING 9698
SWIDTH 1000 0
DWIDTH 9 0
BBX 7 7 1 -1
BITMAP
02
06
0E
1E
3E
7E
FE
ENDCHAR
STARTCHAR uni25E3
ENCODING 9699
SWIDTH 1000 0
DWIDTH 9 0
BBX 7 7 0 -1
BITMAP
80
C0
E0
F0
F8
FC
FE
ENDCHAR
STARTCHAR uni25E4
ENCODING 9700
SWIDTH 1000 0
DWIDTH 9 0
BBX 8 8 0 -1
BITMAP
FF
FE
FC
F8
F0
E0
C0
80
ENDCHAR
STARTCHAR uni25E5
ENCODING 9701
SWIDTH 1000 0
DWIDTH 9 0
BBX 8 8 0 -1
BITMAP
FF
7F
3F
1F
0F
07
03
01
ENDCHAR
STARTCHAR uni2605
ENCODING 9733
SWIDTH 1000 0
DWIDTH 9 0
BBX 7 8 0 -1
BITMAP
10
10
FE
7C
38
7C
6C
82
ENDCHAR
STARTCHAR uni2606
ENCODING 9734
SWIDTH 1000 0
DWIDTH 9 0
BBX 7 8 0 -1
BITMAP
10
10
EE
44
28
54
6C
82
ENDCHAR
STARTCHAR uni2609
ENCODING 9737
SWIDTH 1000 0
DWIDTH 9 0
BBX 7 7 1 -1
BITMAP
38
44
92
BA
92
44
38
ENDCHAR
STARTCHAR female
ENCODING 9792
SWIDTH 1000 0
DWIDTH 9 0
BBX 5 8 1 -1
BITMAP
70
88
88
70
20
F8
20
20
ENDCHAR
STARTCHAR male
ENCODING 9794
SWIDTH 1000 0
DWIDTH 9 0
BBX 7 7 1 -1
BITMAP
1E
06
6A
92
90
90
60
ENDCHAR
STARTCHAR uni2E81
ENCODING 11905
SWIDTH 1000 0
DWIDTH 9 0
BBX 8 8 0 -1
BITMAP
01
40
40
40
40
40
40
80
ENDCHAR
STARTCHAR uni2E84
ENCODING 11908
SWIDTH 1000 0
DWIDTH 9 0
BBX 8 7 0 0
BITMAP
FC
04
04
04
02
03
03
ENDCHAR
STARTCHAR uni2E88
ENCODING 11912
SWIDTH 1000 0
DWIDTH 9 0
BBX 5 3 1 4
BITMAP
60
F8
C8
ENDCHAR
STARTCHAR uni2E8B
ENCODING 11915
SWIDTH 1000 0
DWIDTH 9 0
BBX 7 4 1 0
BITMAP
88
88
9A
82
ENDCHAR
STARTCHAR uni2E8C
ENCODING 11916
SWIDTH 1000 0
DWIDTH 9 0
BBX 7 3 1 4
BITMAP
10
92
54
ENDCHAR
STARTCHAR uni2E97
ENCODING 11927
SWIDTH 1000 0
DWIDTH 9 0
BBX 8 4 0 0
BITMAP
10
56
56
95
ENDCHAR
STARTCHAR uni2EA7
ENCODING 11943
SWIDTH 1000 0
DWIDTH 9 0
BBX 8 4 0 3
BITMAP
28
3F
68
FF
ENDCHAR
STARTCHAR uni2EAA
ENCODING 11946
SWIDTH 1000 0
DWIDTH 9 0
BBX 5 6 0 0
BITMAP
10
60
70
60
68
F0
ENDCHAR
STARTCHAR uni2EAE
ENCODING 11950
SWIDTH 1000 0
DWIDTH 9 0
BBX 7 3 0 4
BITMAP
24
44
AA
ENDCHAR
STARTCHAR uni2EB3
ENCODING 11955
SWIDTH 1000 0
DWIDTH 9 0
BBX 7 4 1 3
BITMAP
FE
AA
48
80
ENDCHAR
STARTCHAR uni2EB6
ENCODING 11958
SWIDTH 1000 0
DWIDTH 9 0
BBX 8 6 0 1
BITMAP
22
7F
7E
FF
30
40
ENDCHAR
STARTCHAR uni2EB7
ENCODING 11959
SWIDTH 1000 0
DWIDTH 9 0
BBX 7 5 1 2
BITMAP
48
FE
10
10
FE
ENDCHAR
STARTCHAR uni2EBB
ENCODING 11963
SWIDTH 1000 0
DWIDTH 9 0
BBX 3 4 4 3
BITMAP
80
A0
A0
80
ENDCHAR
STARTCHAR uni2ECA
ENCODING 11978
SWIDTH 1000 0
DWIDTH 9 0
BBX 4 7 0 0
BITMAP
70
50
70
20
60
60
F0
ENDCHAR
STARTCHAR uni3001
ENCODING 12289
SWIDTH 1000 0
DWIDTH 9 0
BBX 2 3 0 -1
BITMAP
80
40
40
ENDCHAR
STARTCHAR uni3002
ENCODING 12290
SWIDTH 1000 0
DWIDTH 9 0
BBX 3 3 0 -1
BITMAP
40
A0
40
ENDCHAR
STARTCHAR uni3003
ENCODING 12291
SWIDTH 1000 0
DWIDTH 9 0
BBX 4 2 2 3
BITMAP
50
A0
ENDCHAR
STARTCHAR uni3005
ENCODING 12293
SWIDTH 1000 0
DWIDTH 9 0
BBX 6 6 1 0
BITMAP
20
3C
44
A8
10
08
ENDCHAR
STARTCHAR uni3006
ENCODING 12294
SWIDTH 1000 0
DWIDTH 9 0
BBX 8 8 0 -1
BITMAP
01
02
34
48
54
A2
C0
80
ENDCHAR
STARTCHAR uni3007
ENCODING 12295
SWIDTH 1000 0
DWIDTH 9 0
BBX 8 6 0 0
BITMAP
3C
42
81
81
42
3C
ENDCHAR
STARTCHAR uni3008
ENCODING 12296
SWIDTH 1000 0
DWIDTH 9 0
BBX 4 7 3 0
BITMAP
10
20
40
80
40
20
10
ENDCHAR
STARTCHAR uni3009
ENCODING 12297
SWIDTH 1000 0
DWIDTH 9 0
BBX 4 7 1 0
BITMAP
80
40
20
10
20
40
80
ENDCHAR
STARTCHAR uni300A
ENCODING 12298
SWIDTH 1000 0
DWIDTH 9 0
BBX 4 5 3 0
BITMAP
20
50
A0
50
20
ENDCHAR
STARTCHAR uni300B
ENCODING 12299
SWIDTH 1000 0
DWIDTH 9 0
BBX 4 5 1 1
BITMAP
40
A0
50
A0
40
ENDCHAR
STARTCHAR uni300C
ENCODING 12300
SWIDTH 1000 0
DWIDTH 9 0
BBX 3 7 4 0
BITMAP
E0
80
80
80
80
80
80
ENDCHAR
STARTCHAR uni300D
ENCODING 12301
SWIDTH 1000 0
DWIDTH 9 0
BBX 3 7 2 0
BITMAP
20
20
20
20
20
20
E0
ENDCHAR
STARTCHAR uni300E
ENCODING 12302
SWIDTH 1000 0
DWIDTH 9 0
BBX 4 6 2 1
BITMAP
F0
90
B0
A0
A0
E0
ENDCHAR
STARTCHAR uni300F
ENCODING 12303
SWIDTH 1000 0
DWIDTH 9 0
BBX 4 6 1 1
BITMAP
70
50
50
D0
90
F0
ENDCHAR
STARTCHAR uni3010
ENCODING 12304
SWIDTH 1000 0
DWIDTH 9 0
BBX 4 8 4 -1
BITMAP
F0
E0
C0
C0
C0
C0
E0
F0
ENDCHAR
STARTCHAR uni3011
ENCODING 12305
SWIDTH 1000 0
DWIDTH 9 0
BBX 4 8 0 -1
BITMAP
F0
70
30
30
30
30
70
F0
ENDCHAR
STARTCHAR uni3012
ENCODING 12306
SWIDTH 1000 0
DWIDTH 9 0
BBX 7 7 1 -1
BITMAP
FE
00
FE
10
10
10
10
ENDCHAR
STARTCHAR uni3013
ENCODING 12307
SWIDTH 1000 0
DWIDTH 9 0
BBX 8 6 0 0
BITMAP
FF
FF
00
00
FF
FF
ENDCHAR
STARTCHAR uni3014
ENCODING 12308
SWIDTH 1000 0
DWIDTH 9 0
BBX 2 8 5 -1
BITMAP
40
80
80
80
80
80
80
40
ENDCHAR
STARTCHAR uni3015
ENCODING 12309
SWIDTH 1000 0
DWIDTH 9 0
BBX 2 8 1 -1
BITMAP
80
40
40
40
40
40
40
80
ENDCHAR
STARTCHAR uni3016
ENCODING 12310
SWIDTH 1000 0
DWIDTH 9 0
BBX 5 8 3 -1
BITMAP
F8
90
A0
A0
A0
A0
90
F8
ENDCHAR
STARTCHAR uni3017
ENCODING 12311
SWIDTH 1000 0
DWIDTH 9 0
BBX 5 8 0 -1
BITMAP
F8
48
28
28
28
28
48
F8
ENDCHAR
STARTCHAR uni301D
ENCODING 12317
SWIDTH 1000 0
DWIDTH 9 0
BBX 4 2 0 5
BITMAP
A0
50
ENDCHAR
STARTCHAR uni301E
ENCODING 12318
SWIDTH 1000 0
DWIDTH 9 0
BBX 4 2 0 5
BITMAP
50
A0
ENDCHAR
STARTCHAR uni3021
ENCODING 12321
SWIDTH 1000 0
DWIDTH 9 0
BBX 1 8 3 -1
BITMAP
80
80
80
80
80
80
80
80
ENDCHAR
STARTCHAR uni3022
ENCODING 12322
SWIDTH 1000 0
DWIDTH 9 0
BBX 4 8 2 -1
BITMAP
90
90
90
90
90
90
90
10
ENDCHAR
STARTCHAR uni3023
ENCODING 12323
SWIDTH 1000 0
DWIDTH 9 0
BBX 6 8 1 -1
BITMAP
84
A4
A4
A4
A4
A4
A4
84
ENDCHAR
STARTCHAR uni3024
ENCODING 12324
SWIDTH 1000 0
DWIDTH 9 0
BBX 8 8 0 -1
BITMAP
01
42
34
08
14
22
41
81
ENDCHAR
STARTCHAR uni3025
ENCODING 12325
SWIDTH 1000 0
DWIDTH 9 0
BBX 5 8 2 -1
BITMAP
48
90
A0
40
A0
90
90
60
ENDCHAR
STARTCHAR uni3026
ENCODING 12326
SWIDTH 1000 0
DWIDTH 9 0
BBX 8 2 0 5
BITMAP
10
FF
ENDCHAR
STARTCHAR uni3027
ENCODING 12327
SWIDTH 1000 0
DWIDTH 9 0
BBX 8 4 0 3
BITMAP
10
FF
00
7E
ENDCHAR
STARTCHAR uni3028
ENCODING 12328
SWIDTH 1000 0
DWIDTH 9 0
BBX 8 7 0 0
BITMAP
10
FF
00
7E
00
00
FF
ENDCHAR
STARTCHAR uni3029
ENCODING 12329
SWIDTH 1000 0
DWIDTH 9 0
BBX 8 8 0 -1
BITMAP
20
20
7E
22
14
18
24
C3
ENDCHAR
STARTCHAR uni303E
ENCODING 12350
SWIDTH 1000 0
DWIDTH 9 0
BBX 1 1 7 -1
BITMAP
00
ENDCHAR
STARTCHAR uni3041
ENCODING 12353
SWIDTH 1000 0
DWIDTH 9 0
BBX 5 6 1 0
BITMAP
40
F0
40
70
E8
D0
ENDCHAR
STARTCHAR uni3042
ENCODING 12354
SWIDTH 1000 0
DWIDTH 9 0
BBX 6 7 1 0
BITMAP
20
F8
20
78
B4
A4
D8
ENDCHAR
STARTCHAR uni3043
ENCODING 12355
SWIDTH 1000 0
DWIDTH 9 0
BBX 5 5 1 0
BITMAP
90
88
88
A8
40
ENDCHAR
STARTCHAR uni3044
ENCODING 12356
SWIDTH 1000 0
DWIDTH 9 0
BBX 6 6 1 0
BITMAP
80
88
84
A4
A4
40
ENDCHAR
STARTCHAR uni3045
ENCODING 12357
SWIDTH 1000 0
DWIDTH 9 0
BBX 4 6 2 0
BITMAP
E0
00
60
90
10
60
ENDCHAR
STARTCHAR uni3046
ENCODING 12358
SWIDTH 1000 0
DWIDTH 9 0
BBX 5 7 1 0
BITMAP
40
30
70
88
08
10
60
ENDCHAR
STARTCHAR uni3047
ENCODING 12359
SWIDTH 1000 0
DWIDTH 9 0
BBX 4 6 2 0
BITMAP
E0
00
E0
20
40
B0
ENDCHAR
STARTCHAR uni3048
ENCODING 12360
SWIDTH 1000 0
DWIDTH 9 0
BBX 6 7 1 0
BITMAP
70
00
F8
10
20
50
8C
ENDCHAR
STARTCHAR uni3049
ENCODING 12361
SWIDTH 1000 0
DWIDTH 9 0
BBX 5 6 1 0
BITMAP
40
F0
48
70
C8
D0
ENDCHAR
STARTCHAR uni304A
ENCODING 12362
SWIDTH 1000 0
DWIDTH 9 0
BBX 6 7 1 0
BITMAP
40
E8
44
78
C4
C4
D8
ENDCHAR
STARTCHAR uni304B
ENCODING 12363
SWIDTH 1000 0
DWIDTH 9 0
BBX 7 7 0 0
BITMAP
40
74
CA
4A
4A
88
B0
ENDCHAR
STARTCHAR uni304C
ENCODING 12364
SWIDTH 1000 0
DWIDTH 9 0
BBX 7 7 0 0
BITMAP
44
6A
D4
54
54
90
A0
ENDCHAR
STARTCHAR uni304D
ENCODING 12365
SWIDTH 1000 0
DWIDTH 9 0
BBX 5 7 1 0
BITMAP
40
F8
20
F8
50
80
78
ENDCHAR
STARTCHAR uni304E
ENCODING 12366
SWIDTH 1000 0
DWIDTH 9 0
BBX 5 7 1 0
BITMAP
48
F8
20
F8
50
80
78
ENDCHAR
STARTCHAR uni304F
ENCODING 12367
SWIDTH 1000 0
DWIDTH 9 0
BBX 4 7 1 0
BITMAP
10
20
40
80
40
20
10
ENDCHAR
STARTCHAR uni3050
ENCODING 12368
SWIDTH 1000 0
DWIDTH 9 0
BBX 6 7 1 0
BITMAP
10
24
44
80
40
20
10
ENDCHAR
STARTCHAR uni3051
ENCODING 12369
SWIDTH 1000 0
DWIDTH 9 0
BBX 7 7 0 0
BITMAP
48
88
BE
88
88
88
90
ENDCHAR
STARTCHAR uni3052
ENCODING 12370
SWIDTH 1000 0
DWIDTH 9 0
BBX 7 7 0 0
BITMAP
4A
8A
BE
88
88
88
90
ENDCHAR
STARTCHAR uni3053
ENCODING 12371
SWIDTH 1000 0
DWIDTH 9 0
BBX 5 6 1 0
BITMAP
78
00
00
00
80
78
ENDCHAR
STARTCHAR uni3054
ENCODING 12372
SWIDTH 1000 0
DWIDTH 9 0
BBX 5 7 1 0
BITMAP
08
78
00
00
00
80
78
ENDCHAR
STARTCHAR uni3055
ENCODING 12373
SWIDTH 1000 0
DWIDTH 9 0
BBX 5 7 1 0
BITMAP
20
F8
10
70
88
80
70
ENDCHAR
STARTCHAR uni3056
ENCODING 12374
SWIDTH 1000 0
DWIDTH 9 0
BBX 5 7 1 0
BITMAP
28
F8
10
70
88
80
70
ENDCHAR
STARTCHAR uni3057
ENCODING 12375
SWIDTH 1000 0
DWIDTH 9 0
BBX 5 7 1 0
BITMAP
80
80
80
80
88
88
70
ENDCHAR
STARTCHAR uni3058
ENCODING 12376
SWIDTH 1000 0
DWIDTH 9 0
BBX 5 7 1 0
BITMAP
80
90
90
80
88
88
70
ENDCHAR
STARTCHAR uni3059
ENCODING 12377
SWIDTH 1000 0
DWIDTH 9 0
BBX 6 7 1 0
BITMAP
10
FC
10
70
70
10
60
ENDCHAR
STARTCHAR uni305A
ENCODING 12378
SWIDTH 1000 0
DWIDTH 9 0
BBX 6 7 1 0
BITMAP
14
FC
10
70
70
10
60
ENDCHAR
STARTCHAR uni305B
ENCODING 12379
SWIDTH 1000 0
DWIDTH 9 0
BBX 6 7 0 0
BITMAP
48
48
FC
48
58
40
38
ENDCHAR
STARTCHAR uni305C
ENCODING 12380
SWIDTH 1000 0
DWIDTH 9 0
BBX 7 7 0 0
BITMAP
4A
4A
FE
48
58
40
3C
ENDCHAR
STARTCHAR uni305D
ENCODING 12381
SWIDTH 1000 0
DWIDTH 9 0
BBX 6 6 1 0
BITMAP
78
10
FC
20
20
18
ENDCHAR
STARTCHAR uni305E
ENCODING 12382
SWIDTH 1000 0
DWIDTH 9 0
BBX 6 7 1 0
BITMAP
04
7C
10
FC
20
20
18
ENDCHAR
STARTCHAR uni305F
ENCODING 12383
SWIDTH 1000 0
DWIDTH 9 0
BBX 6 7 1 0
BITMAP
40
F0
40
9C
80
A0
9C
ENDCHAR
STARTCHAR uni3060
ENCODING 12384
SWIDTH 1000 0
DWIDTH 9 0
BBX 6 7 1 0
BITMAP
48
F8
40
9C
80
A0
9C
ENDCHAR
STARTCHAR uni3061
ENCODING 12385
SWIDTH 1000 0
DWIDTH 9 0
BBX 6 7 1 0
BITMAP
20
F8
40
78
44
04
38
ENDCHAR
STARTCHAR uni3062
ENCODING 12386
SWIDTH 1000 0
DWIDTH 9 0
BBX 6 7 1 0
BITMAP
24
FC
40
78
44
04
38
ENDCHAR
STARTCHAR uni3063
ENCODING 12387
SWIDTH 1000 0
DWIDTH 9 0
BBX 5 4 1 0
BITMAP
70
88
08
30
ENDCHAR
STARTCHAR uni3064
ENCODING 12388
SWIDTH 1000 0
DWIDTH 9 0
BBX 7 6 0 0
BITMAP
3C
C2
02
02
04
38
ENDCHAR
STARTCHAR uni3065
ENCODING 12389
SWIDTH 1000 0
DWIDTH 9 0
BBX 7 7 0 0
BITMAP
04
04
3C
C2
02
04
38
ENDCHAR
STARTCHAR uni3066
ENCODING 12390
SWIDTH 1000 0
DWIDTH 9 0
BBX 6 6 1 0
BITMAP
FC
10
20
20
20
1C
ENDCHAR
STARTCHAR uni3067
ENCODING 12391
SWIDTH 1000 0
DWIDTH 9 0
BBX 6 6 1 0
BITMAP
FC
10
24
24
20
1C
ENDCHAR
STARTCHAR uni3068
ENCODING 12392
SWIDTH 1000 0
DWIDTH 9 0
BBX 5 7 1 0
BITMAP
80
80
58
60
80
80
78
ENDCHAR
STARTCHAR uni3069
ENCODING 12393
SWIDTH 1000 0
DWIDTH 9 0
BBX 5 7 1 0
BITMAP
88
88
58
60
80
80
78
ENDCHAR
STARTCHAR uni306A
ENCODING 12394
SWIDTH 1000 0
DWIDTH 9 0
BBX 6 7 1 0
BITMAP
40
E8
44
48
88
B8
34
ENDCHAR
STARTCHAR uni306B
ENCODING 12395
SWIDTH 1000 0
DWIDTH 9 0
BBX 6 7 1 0
BITMAP
40
BC
80
80
80
A0
9C
ENDCHAR
STARTCHAR uni306C
ENCODING 12396
SWIDTH 1000 0
DWIDTH 9 0
BBX 7 7 0 0
BITMAP
10
B8
D4
54
A4
BC
5A
ENDCHAR
STARTCHAR uni306D
ENCODING 12397
SWIDTH 1000 0
DWIDTH 9 0
BBX 7 7 0 0
BITMAP
40
D8
64
44
C4
DC
5A
ENDCHAR
STARTCHAR uni306E
ENCODING 12398
SWIDTH 1000 0
DWIDTH 9 0
BBX 7 6 0 0
BITMAP
38
54
92
A2
A2
4C
ENDCHAR
STARTCHAR uni306F
ENCODING 12399
SWIDTH 1000 0
DWIDTH 9 0
BBX 6 7 0 0
BITMAP
48
88
BC
88
88
B8
B4
ENDCHAR
STARTCHAR uni3070
ENCODING 12400
SWIDTH 1000 0
DWIDTH 9 0
BBX 7 7 0 0
BITMAP
4A
8A
BC
88
88
B8
B4
ENDCHAR
STARTCHAR uni3071
ENCODING 12401
SWIDTH 1000 0
DWIDTH 9 0
BBX 7 7 0 0
BITMAP
4E
8A
BC
88
88
B8
B4
ENDCHAR
STARTCHAR uni3072
ENCODING 12402
SWIDTH 1000 0
DWIDTH 9 0
BBX 7 7 0 0
BITMAP
20
C8
4C
8A
88
88
70
ENDCHAR
STARTCHAR uni3073
ENCODING 12403
SWIDTH 1000 0
DWIDTH 9 0
BBX 7 7 0 0
BITMAP
22
CA
4C
8A
88
88
70
ENDCHAR
STARTCHAR uni3074
ENCODING 12404
SWIDTH 1000 0
DWIDTH 9 0
BBX 7 7 0 0
BITMAP
26
CA
4C
8A
88
88
70
ENDCHAR
STARTCHAR uni3075
ENCODING 12405
SWIDTH 1000 0
DWIDTH 9 0
BBX 7 7 0 0
BITMAP
20
18
10
54
4A
8A
30
ENDCHAR
STARTCHAR uni3076
ENCODING 12406
SWIDTH 1000 0
DWIDTH 9 0
BBX 7 7 0 0
BITMAP
22
1A
10
54
4A
8A
30
ENDCHAR
STARTCHAR uni3077
ENCODING 12407
SWIDTH 1000 0
DWIDTH 9 0
BBX 7 7 0 0
BITMAP
26
1E
10
54
4A
8A
30
ENDCHAR
STARTCHAR uni3078
ENCODING 12408
SWIDTH 1000 0
DWIDTH 9 0
BBX 7 4 0 1
BITMAP
30
48
84
02
ENDCHAR
STARTCHAR uni3079
ENCODING 12409
SWIDTH 1000 0
DWIDTH 9 0
BBX 7 5 0 1
BITMAP
02
32
48
84
02
ENDCHAR
STARTCHAR uni307A
ENCODING 12410
SWIDTH 1000 0
DWIDTH 9 0
BBX 7 6 0 1
BITMAP
06
06
30
48
84
02
ENDCHAR
STARTCHAR uni307B
ENCODING 12411
SWIDTH 1000 0
DWIDTH 9 0
BBX 7 7 0 0
BITMAP
40
BC
88
BE
88
BC
BA
ENDCHAR
STARTCHAR uni307C
ENCODING 12412
SWIDTH 1000 0
DWIDTH 9 0
BBX 7 7 0 0
BITMAP
40
BC
8A
BE
88
BC
BA
ENDCHAR
STARTCHAR uni307D
ENCODING 12413
SWIDTH 1000 0
DWIDTH 9 0
BBX 7 7 0 0
BITMAP
46
BE
88
BE
88
BC
BA
ENDCHAR
STARTCHAR uni307E
ENCODING 12414
SWIDTH 1000 0
DWIDTH 9 0
BBX 6 7 1 0
BITMAP
20
FC
20
F8
20
F0
E8
ENDCHAR
STARTCHAR uni307F
ENCODING 12415
SWIDTH 1000 0
DWIDTH 9 0
BBX 6 7 1 0
BITMAP
20
E8
28
78
CC
C8
90
ENDCHAR
STARTCHAR uni3080
ENCODING 12416
SWIDTH 1000 0
DWIDTH 9 0
BBX 7 7 0 0
BITMAP
40
F4
42
C0
C4
C4
78
ENDCHAR
STARTCHAR uni3081
ENCODING 12417
SWIDTH 1000 0
DWIDTH 9 0
BBX 7 7 0 0
BITMAP
10
B8
D4
52
A2
B2
4C
ENDCHAR
STARTCHAR uni3082
ENCODING 12418
SWIDTH 1000 0
DWIDTH 9 0
BBX 6 7 1 0
BITMAP
20
F0
40
F0
44
44
38
ENDCHAR
STARTCHAR uni3083
ENCODING 12419
SWIDTH 1000 0
DWIDTH 9 0
BBX 5 5 1 0
BITMAP
50
F8
48
50
40
ENDCHAR
STARTCHAR uni3084
ENCODING 12420
SWIDTH 1000 0
DWIDTH 9 0
BBX 7 7 0 0
BITMAP
48
5C
6A
A2
24
10
10
ENDCHAR
STARTCHAR uni3085
ENCODING 12421
SWIDTH 1000 0
DWIDTH 9 0
BBX 6 6 1 0
BITMAP
10
B8
D4
B4
98
20
ENDCHAR
STARTCHAR uni3086
ENCODING 12422
SWIDTH 1000 0
DWIDTH 9 0
BBX 6 7 1 0
BITMAP
10
B8
D4
94
B4
98
20
ENDCHAR
STARTCHAR uni3087
ENCODING 12423
SWIDTH 1000 0
DWIDTH 9 0
BBX 5 5 1 0
BITMAP
20
38
20
F0
E8
ENDCHAR
STARTCHAR uni3088
ENCODING 12424
SWIDTH 1000 0
DWIDTH 9 0
BBX 5 7 1 0
BITMAP
20
20
38
20
20
F0
C8
ENDCHAR
STARTCHAR uni3089
ENCODING 12425
SWIDTH 1000 0
DWIDTH 9 0
BBX 5 7 1 0
BITMAP
40
30
80
B0
C8
08
30
ENDCHAR
STARTCHAR uni308A
ENCODING 12426
SWIDTH 1000 0
DWIDTH 9 0
BBX 5 7 1 0
BITMAP
90
88
88
A8
48
10
60
ENDCHAR
STARTCHAR uni308B
ENCODING 12427
SWIDTH 1000 0
DWIDTH 9 0
BBX 6 7 1 0
BITMAP
F8
10
38
44
84
34
38
ENDCHAR
STARTCHAR uni308C
ENCODING 12428
SWIDTH 1000 0
DWIDTH 9 0
BBX 7 7 0 0
BITMAP
40
58
E8
48
C8
CA
44
ENDCHAR
STARTCHAR uni308D
ENCODING 12429
SWIDTH 1000 0
DWIDTH 9 0
BBX 6 7 1 0
BITMAP
F8
10
38
44
84
04
38
ENDCHAR
STARTCHAR uni308E
ENCODING 12430
SWIDTH 1000 0
DWIDTH 9 0
BBX 6 5 1 0
BITMAP
40
D8
64
C4
48
ENDCHAR
STARTCHAR uni308F
ENCODING 12431
SWIDTH 1000 0
DWIDTH 9 0
BBX 6 7 1 0
BITMAP
40
58
E4
44
C4
C4
58
ENDCHAR
STARTCHAR uni3090
ENCODING 12432
SWIDTH 1000 0
DWIDTH 9 0
BBX 7 7 0 0
BITMAP
70
10
3C
62
A2
AE
4C
ENDCHAR
STARTCHAR uni3091
ENCODING 12433
SWIDTH 1000 0
DWIDTH 9 0
BBX 7 7 0 0
BITMAP
70
38
44
B8
30
6C
92
ENDCHAR
STARTCHAR uni3092
ENCODING 12434
SWIDTH 1000 0
DWIDTH 9 0
BBX 6 7 1 0
BITMAP
20
F0
4C
B0
50
40
38
ENDCHAR
STARTCHAR uni3093
ENCODING 12435
SWIDTH 1000 0
DWIDTH 9 0
BBX 7 7 0 0
BITMAP
20
20
40
60
52
92
8C
ENDCHAR
STARTCHAR uni309B
ENCODING 12443
SWIDTH 1000 0
DWIDTH 9 0
BBX 3 2 1 3
BITMAP
A0
A0
ENDCHAR
STARTCHAR uni309C
ENCODING 12444
SWIDTH 1000 0
DWIDTH 9 0
BBX 3 3 1 3
BITMAP
E0
A0
E0
ENDCHAR
STARTCHAR uni309D
ENCODING 12445
SWIDTH 1000 0
DWIDTH 9 0
BBX 4 5 1 0
BITMAP
80
40
20
30
C0
ENDCHAR
STARTCHAR uni309E
ENCODING 12446
SWIDTH 1000 0
DWIDTH 9 0
BBX 5 6 1 0
BITMAP
28
A8
40
20
30
C0
ENDCHAR
STARTCHAR uni30A1
ENCODING 12449
SWIDTH 1000 0
DWIDTH 9 0
BBX 5 5 1 0
BITMAP
F8
28
30
20
40
ENDCHAR
STARTCHAR uni30A2
ENCODING 12450
SWIDTH 1000 0
DWIDTH 9 0
BBX 6 6 1 0
BITMAP
FC
04
38
20
20
40
ENDCHAR
STARTCHAR uni30A3
ENCODING 12451
SWIDTH 1000 0
DWIDTH 9 0
BBX 5 5 1 0
BITMAP
08
30
E0
20
20
ENDCHAR
STARTCHAR uni30A4
ENCODING 12452
SWIDTH 1000 0
DWIDTH 9 0
BBX 6 7 1 0
BITMAP
04
08
10
30
D0
10
10
ENDCHAR
STARTCHAR uni30A5
ENCODING 12453
SWIDTH 1000 0
DWIDTH 9 0
BBX 5 5 1 0
BITMAP
20
F8
88
08
30
ENDCHAR
STARTCHAR uni30A6
ENCODING 12454
SWIDTH 1000 0
DWIDTH 9 0
BBX 6 7 1 0
BITMAP
20
FC
84
84
04
08
30
ENDCHAR
STARTCHAR uni30A7
ENCODING 12455
SWIDTH 1000 0
DWIDTH 9 0
BBX 5 4 1 0
BITMAP
F8
20
20
F8
ENDCHAR
STARTCHAR uni30A8
ENCODING 12456
SWIDTH 1000 0
DWIDTH 9 0
BBX 5 6 1 0
BITMAP
F8
20
20
20
20
F8
ENDCHAR
STARTCHAR uni30A9
ENCODING 12457
SWIDTH 1000 0
DWIDTH 9 0
BBX 5 5 1 0
BITMAP
10
F8
30
D0
30
ENDCHAR
STARTCHAR uni30AA
ENCODING 12458
SWIDTH 1000 0
DWIDTH 9 0
BBX 6 7 1 0
BITMAP
10
10
FC
30
50
90
30
ENDCHAR
STARTCHAR uni30AB
ENCODING 12459
SWIDTH 1000 0
DWIDTH 9 0
BBX 6 7 0 0
BITMAP
20
20
FC
24
24
44
98
ENDCHAR
STARTCHAR uni30AC
ENCODING 12460
SWIDTH 1000 0
DWIDTH 9 0
BBX 7 7 0 0
BITMAP
22
22
FC
24
24
44
98
ENDCHAR
STARTCHAR uni30AD
ENCODING 12461
SWIDTH 1000 0
DWIDTH 9 0
BBX 7 7 0 0
BITMAP
20
1C
70
1E
F0
08
08
ENDCHAR
STARTCHAR uni30AE
ENCODING 12462
SWIDTH 1000 0
DWIDTH 9 0
BBX 7 7 0 0
BITMAP
24
1C
70
1E
F0
08
08
ENDCHAR
STARTCHAR uni30AF
ENCODING 12463
SWIDTH 1000 0
DWIDTH 9 0
BBX 5 7 1 0
BITMAP
40
78
48
88
08
10
60
ENDCHAR
STARTCHAR uni30B0
ENCODING 12464
SWIDTH 1000 0
DWIDTH 9 0
BBX 6 7 1 0
BITMAP
44
7C
48
88
08
10
60
ENDCHAR
STARTCHAR uni30B1
ENCODING 12465
SWIDTH 1000 0
DWIDTH 9 0
BBX 6 7 1 0
BITMAP
40
40
7C
90
90
10
60
ENDCHAR
STARTCHAR uni30B2
ENCODING 12466
SWIDTH 1000 0
DWIDTH 9 0
BBX 6 7 1 0
BITMAP
44
44
7C
90
90
10
60
ENDCHAR
STARTCHAR uni30B3
ENCODING 12467
SWIDTH 1000 0
DWIDTH 9 0
BBX 5 6 1 0
BITMAP
F8
08
08
08
08
F8
ENDCHAR
STARTCHAR uni30B4
ENCODING 12468
SWIDTH 1000 0
DWIDTH 9 0
BBX 6 7 1 0
BITMAP
04
FC
08
08
08
08
F8
ENDCHAR
STARTCHAR uni30B5
ENCODING 12469
SWIDTH 1000 0
DWIDTH 9 0
BBX 6 7 0 0
BITMAP
48
48
FC
48
48
08
30
ENDCHAR
STARTCHAR uni30B6
ENCODING 12470
SWIDTH 1000 0
DWIDTH 9 0
BBX 7 7 0 0
BITMAP
4A
4A
FE
48
48
08
30
ENDCHAR
STARTCHAR uni30B7
ENCODING 12471
SWIDTH 1000 0
DWIDTH 9 0
BBX 6 7 1 0
BITMAP
40
20
84
44
08
10
E0
ENDCHAR
STARTCHAR uni30B8
ENCODING 12472
SWIDTH 1000 0
DWIDTH 9 0
BBX 6 7 1 0
BITMAP
48
28
84
44
08
10
E0
ENDCHAR
STARTCHAR uni30B9
ENCODING 12473
SWIDTH 1000 0
DWIDTH 9 0
BBX 5 6 1 0
BITMAP
F0
10
20
30
48
88
ENDCHAR
STARTCHAR uni30BA
ENCODING 12474
SWIDTH 1000 0
DWIDTH 9 0
BBX 6 6 1 0
BITMAP
F4
14
20
30
48
88
ENDCHAR
STARTCHAR uni30BB
ENCODING 12475
SWIDTH 1000 0
DWIDTH 9 0
BBX 6 7 0 0
BITMAP
40
5C
E4
44
48
40
3C
ENDCHAR
STARTCHAR uni30BC
ENCODING 12476
SWIDTH 1000 0
DWIDTH 9 0
BBX 7 7 0 0
BITMAP
42
5E
E4
44
48
40
3C
ENDCHAR
STARTCHAR uni30BD
ENCODING 12477
SWIDTH 1000 0
DWIDTH 9 0
BBX 5 6 1 0
BITMAP
88
48
48
08
10
60
ENDCHAR
STARTCHAR uni30BE
ENCODING 12478
SWIDTH 1000 0
DWIDTH 9 0
BBX 6 7 1 0
BITMAP
04
84
48
48
08
10
60
ENDCHAR
STARTCHAR uni30BF
ENCODING 12479
SWIDTH 1000 0
DWIDTH 9 0
BBX 5 7 1 0
BITMAP
40
78
48
A8
18
10
60
ENDCHAR
STARTCHAR uni30C0
ENCODING 12480
SWIDTH 1000 0
DWIDTH 9 0
BBX 6 7 1 0
BITMAP
44
7C
48
A8
18
10
60
ENDCHAR
STARTCHAR uni30C1
ENCODING 12481
SWIDTH 1000 0
DWIDTH 9 0
BBX 6 7 1 0
BITMAP
08
F0
10
FC
10
10
60
ENDCHAR
STARTCHAR uni30C2
ENCODING 12482
SWIDTH 1000 0
DWIDTH 9 0
BBX 6 7 1 0
BITMAP
08
F4
14
FC
10
10
60
ENDCHAR
STARTCHAR uni30C3
ENCODING 12483
SWIDTH 1000 0
DWIDTH 9 0
BBX 5 5 1 0
BITMAP
A8
A8
08
10
60
ENDCHAR
STARTCHAR uni30C4
ENCODING 12484
SWIDTH 1000 0
DWIDTH 9 0
BBX 6 6 1 0
BITMAP
24
94
44
04
08
70
ENDCHAR
STARTCHAR uni30C5
ENCODING 12485
SWIDTH 1000 0
DWIDTH 9 0
BBX 6 7 1 0
BITMAP
08
28
94
44
04
08
70
ENDCHAR
STARTCHAR uni30C6
ENCODING 12486
SWIDTH 1000 0
DWIDTH 9 0
BBX 6 6 0 0
BITMAP
78
00
FC
10
10
60
ENDCHAR
STARTCHAR uni30C7
ENCODING 12487
SWIDTH 1000 0
DWIDTH 9 0
BBX 7 7 0 0
BITMAP
02
7A
00
FC
10
10
60
ENDCHAR
STARTCHAR uni30C8
ENCODING 12488
SWIDTH 1000 0
DWIDTH 9 0
BBX 4 7 2 0
BITMAP
80
80
E0
90
80
80
80
ENDCHAR
STARTCHAR uni30C9
ENCODING 12489
SWIDTH 1000 0
DWIDTH 9 0
BBX 4 7 2 0
BITMAP
90
90
E0
90
80
80
80
ENDCHAR
STARTCHAR uni30CA
ENCODING 12490
SWIDTH 1000 0
DWIDTH 9 0
BBX 6 7 1 0
BITMAP
10
10
FC
10
10
20
C0
ENDCHAR
STARTCHAR uni30CB
ENCODING 12491
SWIDTH 1000 0
DWIDTH 9 0
BBX 6 6 1 0
BITMAP
78
00
00
00
00
FC
ENDCHAR
STARTCHAR uni30CC
ENCODING 12492
SWIDTH 1000 0
DWIDTH 9 0
BBX 6 6 1 0
BITMAP
F8
08
68
10
28
C4
ENDCHAR
STARTCHAR uni30CD
ENCODING 12493
SWIDTH 1000 0
DWIDTH 9 0
BBX 5 7 1 0
BITMAP
20
F8
10
30
E8
20
20
ENDCHAR
STARTCHAR uni30CE
ENCODING 12494
SWIDTH 1000 0
DWIDTH 9 0
BBX 5 6 1 0
BITMAP
08
08
10
10
20
C0
ENDCHAR
STARTCHAR uni30CF
ENCODING 12495
SWIDTH 1000 0
DWIDTH 9 0
BBX 7 6 0 0
BITMAP
48
44
44
42
82
82
ENDCHAR
STARTCHAR uni30D0
ENCODING 12496
SWIDTH 1000 0
DWIDTH 9 0
BBX 7 7 0 0
BITMAP
02
4A
44
44
42
82
82
ENDCHAR
STARTCHAR uni30D1
ENCODING 12497
SWIDTH 1000 0
DWIDTH 9 0
BBX 7 7 0 0
BITMAP
06
4A
44
44
42
82
82
ENDCHAR
STARTCHAR uni30D2
ENCODING 12498
SWIDTH 1000 0
DWIDTH 9 0
BBX 5 7 1 0
BITMAP
80
88
F0
80
80
80
78
ENDCHAR
STARTCHAR uni30D3
ENCODING 12499
SWIDTH 1000 0
DWIDTH 9 0
BBX 6 7 1 0
BITMAP
84
94
E0
80
80
80
78
ENDCHAR
STARTCHAR uni30D4
ENCODING 12500
SWIDTH 1000 0
DWIDTH 9 0
BBX 6 7 1 0
BITMAP
8C
8C
F0
80
80
80
78
ENDCHAR
STARTCHAR uni30D5
ENCODING 12501
SWIDTH 1000 0
DWIDTH 9 0
BBX 5 6 1 0
BITMAP
F8
08
08
08
10
60
ENDCHAR
STARTCHAR uni30D6
ENCODING 12502
SWIDTH 1000 0
DWIDTH 9 0
BBX 6 7 1 0
BITMAP
04
FC
08
08
08
10
60
ENDCHAR
STARTCHAR uni30D7
ENCODING 12503
SWIDTH 1000 0
DWIDTH 9 0
BBX 6 7 1 0
BITMAP
0C
FC
08
08
08
10
60
ENDCHAR
STARTCHAR uni30D8
ENCODING 12504
SWIDTH 1000 0
DWIDTH 9 0
BBX 7 4 0 1
BITMAP
20
50
88
06
ENDCHAR
STARTCHAR uni30D9
ENCODING 12505
SWIDTH 1000 0
DWIDTH 9 0
BBX 7 5 0 1
BITMAP
04
24
50
88
06
ENDCHAR
STARTCHAR uni30DA
ENCODING 12506
SWIDTH 1000 0
DWIDTH 9 0
BBX 7 5 0 1
BITMAP
06
26
50
88
06
ENDCHAR
STARTCHAR uni30DB
ENCODING 12507
SWIDTH 1000 0
DWIDTH 9 0
BBX 6 7 1 0
BITMAP
20
20
F8
20
A8
A4
A4
ENDCHAR
STARTCHAR uni30DC
ENCODING 12508
SWIDTH 1000 0
DWIDTH 9 0
BBX 6 7 1 0
BITMAP
24
24
F8
20
A8
A4
A4
ENDCHAR
STARTCHAR uni30DD
ENCODING 12509
SWIDTH 1000 0
DWIDTH 9 0
BBX 6 7 1 0
BITMAP
2C
2C
F8
20
A8
A4
A4
ENDCHAR
STARTCHAR uni30DE
ENCODING 12510
SWIDTH 1000 0
DWIDTH 9 0
BBX 6 6 1 0
BITMAP
FC
04
44
28
10
10
ENDCHAR
STARTCHAR uni30DF
ENCODING 12511
SWIDTH 1000 0
DWIDTH 9 0
BBX 4 7 2 0
BITMAP
C0
30
C0
30
00
C0
30
ENDCHAR
STARTCHAR uni30E0
ENCODING 12512
SWIDTH 1000 0
DWIDTH 9 0
BBX 7 7 0 0
BITMAP
10
10
20
28
24
4E
F2
ENDCHAR
STARTCHAR uni30E1
ENCODING 12513
SWIDTH 1000 0
DWIDTH 9 0
BBX 5 7 1 0
BITMAP
08
08
68
10
28
48
80
ENDCHAR
STARTCHAR uni30E2
ENCODING 12514
SWIDTH 1000 0
DWIDTH 9 0
BBX 6 6 1 0
BITMAP
F8
40
FC
40
40
38
ENDCHAR
STARTCHAR uni30E3
ENCODING 12515
SWIDTH 1000 0
DWIDTH 9 0
BBX 6 5 1 0
BITMAP
40
5C
E4
28
20
ENDCHAR
STARTCHAR uni30E4
ENCODING 12516
SWIDTH 1000 0
DWIDTH 9 0
BBX 7 7 0 0
BITMAP
40
2E
32
E2
14
10
10
ENDCHAR
STARTCHAR uni30E5
ENCODING 12517
SWIDTH 1000 0
DWIDTH 9 0
BBX 6 5 1 0
BITMAP
78
08
08
08
FC
ENDCHAR
STARTCHAR uni30E6
ENCODING 12518
SWIDTH 1000 0
DWIDTH 9 0
BBX 7 6 0 0
BITMAP
78
08
08
08
08
FE
ENDCHAR
STARTCHAR uni30E7
ENCODING 12519
SWIDTH 1000 0
DWIDTH 9 0
BBX 4 5 2 0
BITMAP
F0
10
F0
10
F0
ENDCHAR
STARTCHAR uni30E8
ENCODING 12520
SWIDTH 1000 0
DWIDTH 9 0
BBX 5 6 1 0
BITMAP
F8
08
F8
08
08
F8
ENDCHAR
STARTCHAR uni30E9
ENCODING 12521
SWIDTH 1000 0
DWIDTH 9 0
BBX 6 7 1 0
BITMAP
78
00
FC
04
04
08
30
ENDCHAR
STARTCHAR uni30EA
ENCODING 12522
SWIDTH 1000 0
DWIDTH 9 0
BBX 4 7 2 0
BITMAP
90
90
90
90
10
20
C0
ENDCHAR
STARTCHAR uni30EB
ENCODING 12523
SWIDTH 1000 0
DWIDTH 9 0
BBX 7 7 0 0
BITMAP
10
50
50
52
52
94
98
ENDCHAR
STARTCHAR uni30EC
ENCODING 12524
SWIDTH 1000 0
DWIDTH 9 0
BBX 4 7 2 0
BITMAP
80
80
80
90
90
A0
C0
ENDCHAR
STARTCHAR uni30ED
ENCODING 12525
SWIDTH 1000 0
DWIDTH 9 0
BBX 5 6 1 0
BITMAP
F8
88
88
88
88
F8
ENDCHAR
STARTCHAR uni30EE
ENCODING 12526
SWIDTH 1000 0
DWIDTH 9 0
BBX 5 5 1 0
BITMAP
F8
88
88
10
60
ENDCHAR
STARTCHAR uni30EF
ENCODING 12527
SWIDTH 1000 0
DWIDTH 9 0
BBX 6 6 1 0
BITMAP
FC
84
84
04
08
30
ENDCHAR
STARTCHAR uni30F0
ENCODING 12528
SWIDTH 1000 0
DWIDTH 9 0
BBX 7 7 0 0
BITMAP
08
7C
48
48
FE
08
08
ENDCHAR
STARTCHAR uni30F1
ENCODING 12529
SWIDTH 1000 0
DWIDTH 9 0
BBX 6 6 1 0
BITMAP
F8
08
28
30
20
FC
ENDCHAR
STARTCHAR uni30F2
ENCODING 12530
SWIDTH 1000 0
DWIDTH 9 0
BBX 5 6 1 0
BITMAP
F8
08
F8
08
10
60
ENDCHAR
STARTCHAR uni30F3
ENCODING 12531
SWIDTH 1000 0
DWIDTH 9 0
BBX 6 6 1 0
BITMAP
80
44
04
08
10
E0
ENDCHAR
STARTCHAR uni30F4
ENCODING 12532
SWIDTH 1000 0
DWIDTH 9 0
BBX 6 7 1 0
BITMAP
24
FC
84
84
04
08
30
ENDCHAR
STARTCHAR uni30F5
ENCODING 12533
SWIDTH 1000 0
DWIDTH 9 0
BBX 5 5 1 0
BITMAP
20
F8
28
48
98
ENDCHAR
STARTCHAR uni30F6
ENCODING 12534
SWIDTH 1000 0
DWIDTH 9 0
BBX 5 5 1 0
BITMAP
40
78
90
10
60
ENDCHAR
STARTCHAR uni30FC
ENCODING 12540
SWIDTH 1000 0
DWIDTH 9 0
BBX 6 2 1 2
BITMAP
80
7C
ENDCHAR
STARTCHAR uni30FD
ENCODING 12541
SWIDTH 1000 0
DWIDTH 9 0
BBX 4 4 1 0
BITMAP
C0
60
30
10
ENDCHAR
STARTCHAR uni30FE
ENCODING 12542
SWIDTH 1000 0
DWIDTH 9 0
BBX 5 5 1 0
BITMAP
08
D0
60
30
10
ENDCHAR
STARTCHAR uni3105
ENCODING 12549
SWIDTH 1000 0
DWIDTH 9 0
BBX 6 8 0 -1
BITMAP
40
40
FC
04
04
04
04
18
ENDCHAR
STARTCHAR uni3106
ENCODING 12550
SWIDTH 1000 0
DWIDTH 9 0
BBX 6 8 1 -1
BITMAP
20
40
FC
04
28
10
28
C4
ENDCHAR
STARTCHAR uni3107
ENCODING 12551
SWIDTH 1000 0
DWIDTH 9 0
BBX 6 7 1 -1
BITMAP
FC
84
84
84
84
84
84
ENDCHAR
STARTCHAR uni3108
ENCODING 12552
SWIDTH 1000 0
DWIDTH 9 0
BBX 7 6 0 -1
BITMAP
FE
40
40
40
40
3C
ENDCHAR
STARTCHAR uni3109
ENCODING 12553
SWIDTH 1000 0
DWIDTH 9 0
BBX 6 8 1 -1
BITMAP
40
40
FC
24
24
44
44
98
ENDCHAR
STARTCHAR uni310A
ENCODING 12554
SWIDTH 1000 0
DWIDTH 9 0
BBX 6 7 1 0
BITMAP
20
20
FC
20
20
48
FC
ENDCHAR
STARTCHAR uni310B
ENCODING 12555
SWIDTH 1000 0
DWIDTH 9 0
BBX 6 8 1 -1
BITMAP
F0
10
20
7C
04
04
04
18
ENDCHAR
STARTCHAR uni310C
ENCODING 12556
SWIDTH 1000 0
DWIDTH 9 0
BBX 6 8 1 -1
BITMAP
20
A0
FC
24
24
44
44
98
ENDCHAR
STARTCHAR uni310D
ENCODING 12557
SWIDTH 1000 0
DWIDTH 9 0
BBX 5 6 1 0
BITMAP
48
48
90
90
48
48
ENDCHAR
STARTCHAR uni310E
ENCODING 12558
SWIDTH 1000 0
DWIDTH 9 0
BBX 7 7 0 -1
BITMAP
FE
20
40
7C
04
04
18
ENDCHAR
STARTCHAR uni310F
ENCODING 12559
SWIDTH 1000 0
DWIDTH 9 0
BBX 7 7 0 -1
BITMAP
FE
40
40
40
40
40
80
ENDCHAR
STARTCHAR uni3110
ENCODING 12560
SWIDTH 1000 0
DWIDTH 9 0
BBX 4 8 2 -1
BITMAP
10
90
90
B0
D0
10
10
10
ENDCHAR
STARTCHAR uni3111
ENCODING 12561
SWIDTH 1000 0
DWIDTH 9 0
BBX 3 8 2 -1
BITMAP
20
20
40
80
80
40
20
20
ENDCHAR
STARTCHAR uni3112
ENCODING 12562
SWIDTH 1000 0
DWIDTH 9 0
BBX 7 8 0 -1
BITMAP
FE
10
10
10
10
10
10
10
ENDCHAR
STARTCHAR uni3113
ENCODING 12563
SWIDTH 1000 0
DWIDTH 9 0
BBX 7 8 0 -1
BITMAP
10
92
92
92
FE
10
10
FE
ENDCHAR
STARTCHAR uni3114
ENCODING 12564
SWIDTH 1000 0
DWIDTH 9 0
BBX 6 8 1 -1
BITMAP
10
24
48
90
30
D0
10
10
ENDCHAR
STARTCHAR uni3115
ENCODING 12565
SWIDTH 1000 0
DWIDTH 9 0
BBX 7 8 0 -1
BITMAP
7E
02
42
7E
40
40
40
80
ENDCHAR
STARTCHAR uni3116
ENCODING 12566
SWIDTH 1000 0
DWIDTH 9 0
BBX 6 8 1 -1
BITMAP
FC
84
84
A4
94
84
84
FC
ENDCHAR
STARTCHAR uni3117
ENCODING 12567
SWIDTH 1000 0
DWIDTH 9 0
BBX 5 8 2 -1
BITMAP
F8
48
48
48
58
40
40
40
ENDCHAR
STARTCHAR uni3118
ENCODING 12568
SWIDTH 1000 0
DWIDTH 9 0
BBX 7 8 0 -1
BITMAP
10
10
FE
20
3C
04
04
08
ENDCHAR
STARTCHAR uni3119
ENCODING 12569
SWIDTH 1000 0
DWIDTH 9 0
BBX 6 8 1 -1
BITMAP
10
10
20
20
40
48
FC
04
ENDCHAR
STARTCHAR uni311A
ENCODING 12570
SWIDTH 1000 0
DWIDTH 9 0
BBX 5 8 2 -1
BITMAP
08
88
50
20
20
20
20
20
ENDCHAR
STARTCHAR uni311B
ENCODING 12571
SWIDTH 1000 0
DWIDTH 9 0
BBX 6 7 1 -1
BITMAP
FC
10
70
80
80
84
78
ENDCHAR
STARTCHAR uni311C
ENCODING 12572
SWIDTH 1000 0
DWIDTH 9 0
BBX 6 8 1 -1
BITMAP
10
FC
10
70
80
80
84
78
ENDCHAR
STARTCHAR uni311D
ENCODING 12573
SWIDTH 1000 0
DWIDTH 9 0
BBX 7 8 0 -1
BITMAP
44
44
44
FE
44
48
40
3E
ENDCHAR
STARTCHAR uni311E
ENCODING 12574
SWIDTH 1000 0
DWIDTH 9 0
BBX 7 8 0 -1
BITMAP
FE
50
90
FE
12
12
22
44
ENDCHAR
STARTCHAR uni311F
ENCODING 12575
SWIDTH 1000 0
DWIDTH 9 0
BBX 7 7 0 -1
BITMAP
30
D0
10
08
08
04
02
ENDCHAR
STARTCHAR uni3120
ENCODING 12576
SWIDTH 1000 0
DWIDTH 9 0
BBX 6 8 1 -1
BITMAP
20
20
50
E0
20
48
F8
04
ENDCHAR
STARTCHAR uni3121
ENCODING 12577
SWIDTH 1000 0
DWIDTH 9 0
BBX 6 7 1 -1
BITMAP
F8
08
08
50
30
28
C4
ENDCHAR
STARTCHAR uni3122
ENCODING 12578
SWIDTH 1000 0
DWIDTH 9 0
BBX 6 8 1 -1
BITMAP
F8
08
48
40
7C
04
04
08
ENDCHAR
STARTCHAR uni3123
ENCODING 12579
SWIDTH 1000 0
DWIDTH 9 0
BBX 6 8 1 -1
BITMAP
40
40
40
80
FC
04
04
08
ENDCHAR
STARTCHAR uni3124
ENCODING 12580
SWIDTH 1000 0
DWIDTH 9 0
BBX 7 8 0 -1
BITMAP
20
20
FE
28
28
28
48
86
ENDCHAR
STARTCHAR uni3125
ENCODING 12581
SWIDTH 1000 0
DWIDTH 9 0
BBX 6 8 1 -1
BITMAP
10
10
10
20
20
40
40
FC
ENDCHAR
STARTCHAR uni3126
ENCODING 12582
SWIDTH 1000 0
DWIDTH 9 0
BBX 7 8 0 -1
BITMAP
28
28
28
28
28
28
48
86
ENDCHAR
STARTCHAR uni3127
ENCODING 12583
SWIDTH 1000 0
DWIDTH 9 0
BBX 6 1 1 2
BITMAP
FC
ENDCHAR
STARTCHAR uni3128
ENCODING 12584
SWIDTH 1000 0
DWIDTH 9 0
BBX 6 7 1 -1
BITMAP
04
44
28
10
18
24
C0
ENDCHAR
STARTCHAR uni3129
ENCODING 12585
SWIDTH 1000 0
DWIDTH 9 0
BBX 6 8 1 -1
BITMAP
84
84
84
84
84
84
84
FC
ENDCHAR
STARTCHAR uni3220
ENCODING 12832
SWIDTH 1000 0
DWIDTH 9 0
BBX 8 7 0 0
BITMAP
42
81
81
BD
81
81
42
ENDCHAR
STARTCHAR uni3221
ENCODING 12833
SWIDTH 1000 0
DWIDTH 9 0
BBX 8 8 0 -1
BITMAP
42
81
BD
81
81
FF
81
42
ENDCHAR
STARTCHAR uni3222
ENCODING 12834
SWIDTH 1000 0
DWIDTH 9 0
BBX 8 8 0 -1
BITMAP
42
BD
81
BD
81
FF
81
42
ENDCHAR
STARTCHAR uni3223
ENCODING 12835
SWIDTH 1000 0
DWIDTH 9 0
BBX 8 8 0 -1
BITMAP
42
BF
A9
B7
A1
BF
81
42
ENDCHAR
STARTCHAR uni3224
ENCODING 12836
SWIDTH 1000 0
DWIDTH 9 0
BBX 8 8 0 -1
BITMAP
42
BD
91
BD
95
FF
81
42
ENDCHAR
STARTCHAR uni3225
ENCODING 12837
SWIDTH 1000 0
DWIDTH 9 0
BBX 8 8 0 -1
BITMAP
42
91
FD
81
A9
C5
81
42
ENDCHAR
STARTCHAR uni3226
ENCODING 12838
SWIDTH 1000 0
DWIDTH 9 0
BBX 8 8 0 -1
BITMAP
42
91
91
9F
F1
95
9D
42
ENDCHAR
STARTCHAR uni3227
ENCODING 12839
SWIDTH 1000 0
DWIDTH 9 0
BBX 8 8 0 -1
BITMAP
42
A9
A9
A9
C5
C7
81
42
ENDCHAR
STARTCHAR uni3228
ENCODING 12840
SWIDTH 1000 0
DWIDTH 9 0
BBX 8 8 0 -1
BITMAP
42
A1
F9
A9
AB
CF
81
42
ENDCHAR
STARTCHAR uni3229
ENCODING 12841
SWIDTH 1000 0
DWIDTH 9 0
BBX 8 8 0 -1
BITMAP
42
91
91
FD
91
91
91
42
ENDCHAR
STARTCHAR uni3231
ENCODING 12849
SWIDTH 1000 0
DWIDTH 9 0
BBX 8 8 0 -1
BITMAP
42
B5
FF
A5
FF
AF
BD
66
ENDCHAR
STARTCHAR uni32A3
ENCODING 12963
SWIDTH 1000 0
DWIDTH 9 0
BBX 8 8 0 -1
BITMAP
3C
42
BD
89
AD
A9
7E
3C
ENDCHAR
STARTCHAR uni338E
ENCODING 13198
SWIDTH 1000 0
DWIDTH 9 0
BBX 8 6 0 -1
BITMAP
FD
AA
AA
AC
0A
06
ENDCHAR
STARTCHAR uni338F
ENCODING 13199
SWIDTH 1000 0
DWIDTH 9 0
BBX 8 7 0 -1
BITMAP
80
A5
CA
AA
A4
0A
0E
ENDCHAR
STARTCHAR uni339C
ENCODING 13212
SWIDTH 1000 0
DWIDTH 9 0
BBX 8 4 0 1
BITMAP
AA
55
55
55
ENDCHAR
STARTCHAR uni339D
ENCODING 13213
SWIDTH 1000 0
DWIDTH 9 0
BBX 8 4 0 1
BITMAP
DF
95
95
D5
ENDCHAR
STARTCHAR uni339E
ENCODING 13214
SWIDTH 1000 0
DWIDTH 9 0
BBX 8 5 0 1
BITMAP
80
BF
D5
B5
95
ENDCHAR
STARTCHAR uni33A1
ENCODING 13217
SWIDTH 1000 0
DWIDTH 9 0
BBX 8 6 0 1
BITMAP
06
02
FF
A8
A8
A8
ENDCHAR
STARTCHAR uni33C4
ENCODING 13252
SWIDTH 1000 0
DWIDTH 9 0
BBX 7 4 0 1
BITMAP
EE
88
88
EE
ENDCHAR
STARTCHAR uni33CE
ENCODING 13262
SWIDTH 1000 0
DWIDTH 9 0
BBX 8 5 0 1
BITMAP
A9
AF
CB
A9
A9
ENDCHAR
STARTCHAR uni33D1
ENCODING 13265
SWIDTH 1000 0
DWIDTH 9 0
BBX 6 5 1 1
BITMAP
C0
68
54
54
D4
ENDCHAR
STARTCHAR uni33D2
ENCODING 13266
SWIDTH 1000 0
DWIDTH 9 0
BBX 8 7 0 -1
BITMAP
C0
52
6D
6E
D5
09
06
ENDCHAR
STARTCHAR uni33D5
ENCODING 13269
SWIDTH 1000 0
DWIDTH 9 0
BBX 8 5 0 1
BITMAP
05
B1
D5
D5
D5
ENDCHAR
STARTCHAR uni4E00
ENCODING 19968
SWIDTH 1000 0
DWIDTH 9 0
BBX 7 1 0 2
BITMAP
FE
ENDCHAR
STARTCHAR uni4E01
ENCODING 19969
SWIDTH 1000 0
DWIDTH 9 0
BBX 7 7 1 -1
BITMAP
FE
10
10
10
10
10
60
ENDCHAR
STARTCHAR uni4E03
ENCODING 19971
SWIDTH 1000 0
DWIDTH 9 0
BBX 8 8 0 -1
BITMAP
20
20
27
F8
20
20
22
3E
ENDCHAR
STARTCHAR uni4E07
ENCODING 19975
SWIDTH 1000 0
DWIDTH 9 0
BBX 7 7 0 -1
BITMAP
FE
20
3E
22
22
42
8C
ENDCHAR
STARTCHAR uni4E08
ENCODING 19976
SWIDTH 1000 0
DWIDTH 9 0
BBX 8 8 0 -1
BITMAP
08
FF
08
48
28
10
2C
C3
ENDCHAR
STARTCHAR uni4E09
ENCODING 19977
SWIDTH 1000 0
DWIDTH 9 0
BBX 8 7 0 -1
BITMAP
7E
00
00
7E
00
00
FF
ENDCHAR
STARTCHAR uni4E0A
ENCODING 19978
SWIDTH 1000 0
DWIDTH 9 0
BBX 8 8 0 -1
BITMAP
10
10
1E
10
10
10
10
FF
ENDCHAR
STARTCHAR uni4E0B
ENCODING 19979
SWIDTH 1000 0
DWIDTH 9 0
BBX 8 8 0 -1
BITMAP
FF
10
14
12
12
10
10
10
ENDCHAR
STARTCHAR uni4E0C
ENCODING 19980
SWIDTH 1000 0
DWIDTH 9 0
BBX 8 8 0 -1
BITMAP
FF
24
24
24
24
24
44
84
ENDCHAR
STARTCHAR uni4E0D
ENCODING 19981
SWIDTH 1000 0
DWIDTH 9 0
BBX 8 8 0 -1
BITMAP
FF
08
1C
2A
C9
08
08
08
ENDCHAR
STARTCHAR uni4E0E
ENCODING 19982
SWIDTH 1000 0
DWIDTH 9 0
BBX 8 8 0 -1
BITMAP
40
7F
40
7F
01
FD
01
06
ENDCHAR
STARTCHAR uni4E0F
ENCODING 19983
SWIDTH 1000 0
DWIDTH 9 0
BBX 8 8 0 -1
BITMAP
FF
10
5F
51
7F
42
02
0E
ENDCHAR
STARTCHAR uni4E10
ENCODING 19984
SWIDTH 1000 0
DWIDTH 9 0
BBX 8 8 0 -1
BITMAP
FF
10
5E
50
7F
01
05
02
ENDCHAR
STARTCHAR uni4E11
ENCODING 19985
SWIDTH 1000 0
DWIDTH 9 0
BBX 8 8 0 -1
BITMAP
7E
12
12
7E
12
22
22
FF
ENDCHAR
STARTCHAR uni4E13
ENCODING 19987
SWIDTH 1000 0
DWIDTH 9 0
BBX 8 8 0 -1
BITMAP
10
7E
10
FF
20
7E
14
08
ENDCHAR
STARTCHAR uni4E14
ENCODING 19988
SWIDTH 1000 0
DWIDTH 9 0
BBX 7 8 0 -1
BITMAP
7C
44
7C
44
7C
44
44
FE
ENDCHAR
STARTCHAR uni4E15
ENCODING 19989
SWIDTH 1000 0
DWIDTH 9 0
BBX 8 8 0 -1
BITMAP
FF
08
10
34
D2
12
10
FF
ENDCHAR
STARTCHAR uni4E16
ENCODING 19990
SWIDTH 1000 0
DWIDTH 9 0
BBX 8 8 0 -1
BITMAP
54
54
FF
54
54
5C
40
7E
ENDCHAR
STARTCHAR uni4E17
ENCODING 19991
SWIDTH 1000 0
DWIDTH 9 0
BBX 7 7 0 -1
BITMAP
54
54
FE
54
54
54
7C
ENDCHAR
STARTCHAR uni4E18
ENCODING 19992
SWIDTH 1000 0
DWIDTH 9 0
BBX 8 8 0 -1
BITMAP
0E
70
40
7E
48
48
48
FF
ENDCHAR
STARTCHAR uni4E19
ENCODING 19993
SWIDTH 1000 0
DWIDTH 9 0
BBX 7 8 0 -1
BITMAP
FE
10
FE
92
92
AA
C2
86
ENDCHAR
STARTCHAR uni4E1A
ENCODING 19994
SWIDTH 1000 0
DWIDTH 9 0
BBX 8 8 0 -1
BITMAP
28
28
AA
AA
6C
28
28
FF
ENDCHAR
STARTCHAR uni4E1B
ENCODING 19995
SWIDTH 1000 0
DWIDTH 9 0
BBX 8 8 0 -1
BITMAP
44
44
44
44
4A
B1
00
FF
ENDCHAR
STARTCHAR uni4E1C
ENCODING 19996
SWIDTH 1000 0
DWIDTH 9 0
BBX 8 8 0 -1
BITMAP
10
FF
20
48
7E
08
4A
99
ENDCHAR
STARTCHAR uni4E1D
ENCODING 19997
SWIDTH 1000 0
DWIDTH 9 0
BBX 8 8 0 -1
BITMAP
44
55
EE
22
44
EF
00
FF
ENDCHAR
STARTCHAR uni4E1E
ENCODING 19998
SWIDTH 1000 0
DWIDTH 9 0
BBX 8 8 0 -1
BITMAP
7E
04
E9
32
5C
97
30
FF
ENDCHAR
STARTCHAR uni4E1F
ENCODING 19999
SWIDTH 1000 0
DWIDTH 9 0
BBX 8 8 0 -1
BITMAP
7E
08
7E
08
FF
14
22
FD
ENDCHAR
STARTCHAR uni4E21
ENCODING 20001
SWIDTH 1000 0
DWIDTH 9 0
BBX 8 8 0 -1
BITMAP
FF
10
FF
91
D5
D5
FD
81
ENDCHAR
STARTCHAR uni4E22
ENCODING 20002
SWIDTH 1000 0
DWIDTH 9 0
BBX 8 8 0 -1
BITMAP
0C
70
7E
10
FF
24
4E
F2
ENDCHAR
STARTCHAR uni4E24
ENCODING 20004
SWIDTH 1000 0
DWIDTH 9 0
BBX 8 8 0 -1
BITMAP
FF
24
FF
A5
A5
DB
81
87
ENDCHAR
STARTCHAR uni4E25
ENCODING 20005
SWIDTH 1000 0
DWIDTH 9 0
BBX 8 8 0 -1
BITMAP
7F
55
36
7F
40
40
40
80
ENDCHAR
STARTCHAR uni4E26
ENCODING 20006
SWIDTH 1000 0
DWIDTH 9 0
BBX 8 8 0 -1
BITMAP
22
14
FF
14
55
56
14
FF
ENDCHAR
STARTCHAR uni4E27
ENCODING 20007
SWIDTH 1000 0
DWIDTH 9 0
BBX 7 8 0 -1
BITMAP
10
FE
54
38
FE
54
48
66
ENDCHAR
STARTCHAR uni4E28
ENCODING 20008
SWIDTH 1000 0
DWIDTH 9 0
BBX 1 8 4 -1
BITMAP
80
80
80
80
80
80
80
80
ENDCHAR
STARTCHAR uni4E2A
ENCODING 20010
SWIDTH 1000 0
DWIDTH 9 0
BBX 8 8 0 -1
BITMAP
10
28
54
93
10
10
10
10
ENDCHAR
STARTCHAR uni4E2B
ENCODING 20011
SWIDTH 1000 0
DWIDTH 9 0
BBX 7 8 0 -1
BITMAP
82
44
28
10
10
10
10
10
ENDCHAR
STARTCHAR uni4E2C
ENCODING 20012
SWIDTH 1000 0
DWIDTH 9 0
BBX 3 8 0 -1
BITMAP
20
A0
60
20
60
A0
20
20
ENDCHAR
STARTCHAR uni4E2D
ENCODING 20013
SWIDTH 1000 0
DWIDTH 9 0
BBX 8 8 0 -1
BITMAP
10
10
FF
91
91
FF
10
10
ENDCHAR
STARTCHAR uni4E2E
ENCODING 20014
SWIDTH 1000 0
DWIDTH 9 0
BBX 8 8 0 -1
BITMAP
FE
12
12
7A
12
FE
13
11
ENDCHAR
STARTCHAR uni4E30
ENCODING 20016
SWIDTH 1000 0
DWIDTH 9 0
BBX 7 8 0 -1
BITMAP
10
FE
10
7C
10
FE
10
10
ENDCHAR
STARTCHAR uni4E31
ENCODING 20017
SWIDTH 1000 0
DWIDTH 9 0
BBX 8 8 0 -1
BITMAP
28
A9
A9
A9
EF
28
28
C8
ENDCHAR
STARTCHAR uni4E32
ENCODING 20018
SWIDTH 1000 0
DWIDTH 9 0
BBX 7 8 0 -1
BITMAP
10
7C
54
FE
92
FE
10
10
ENDCHAR
STARTCHAR uni4E33
ENCODING 20019
SWIDTH 1000 0
DWIDTH 9 0
BBX 8 8 0 -1
BITMAP
14
7E
56
FF
95
FF
24
C4
ENDCHAR
STARTCHAR uni4E34
ENCODING 20020
SWIDTH 1000 0
DWIDTH 9 0
BBX 8 8 0 -1
BITMAP
48
4F
D4
E2
DF
55
55
5F
ENDCHAR
STARTCHAR uni4E36
ENCODING 20022
SWIDTH 1000 0
DWIDTH 9 0
BBX 3 4 2 1
BITMAP
80
40
20
20
ENDCHAR
STARTCHAR uni4E38
ENCODING 20024
SWIDTH 1000 0
DWIDTH 9 0
BBX 8 8 0 -1
BITMAP
20
FC
24
64
34
24
45
87
ENDCHAR
STARTCHAR uni4E39
ENCODING 20025
SWIDTH 1000 0
DWIDTH 9 0
BBX 8 8 0 -1
BITMAP
3E
32
2A
2A
FF
22
22
46
ENDCHAR
STARTCHAR uni4E3A
ENCODING 20026
SWIDTH 1000 0
DWIDTH 9 0
BBX 8 8 0 -1
BITMAP
90
50
FF
11
29
25
41
86
ENDCHAR
STARTCHAR uni4E3B
ENCODING 20027
SWIDTH 1000 0
DWIDTH 9 0
BBX 8 8 0 -1
BITMAP
10
FF
08
08
7E
08
08
FF
ENDCHAR
STARTCHAR uni4E3C
ENCODING 20028
SWIDTH 1000 0
DWIDTH 9 0
BBX 8 8 0 -1
BITMAP
24
FF
34
2C
24
FF
44
84
ENDCHAR
STARTCHAR uni4E3D
ENCODING 20029
SWIDTH 1000 0
DWIDTH 9 0
BBX 7 8 0 -1
BITMAP
FE
00
EE
AA
EE
AA
AA
AA
ENDCHAR
STARTCHAR uni4E3E
ENCODING 20030
SWIDTH 1000 0
DWIDTH 9 0
BBX 8 8 0 -1
BITMAP
54
FE
28
54
BB
10
FE
10
ENDCHAR
STARTCHAR uni4E3F
ENCODING 20031
SWIDTH 1000 0
DWIDTH 9 0
BBX 3 8 2 -1
BITMAP
20
20
20
20
20
20
40
80
ENDCHAR
STARTCHAR uni4E42
ENCODING 20034
SWIDTH 1000 0
DWIDTH 9 0
BBX 8 8 0 -1
BITMAP
42
42
24
14
08
14
22
C1
ENDCHAR
STARTCHAR uni4E43
ENCODING 20035
SWIDTH 1000 0
DWIDTH 9 0
BBX 7 8 0 -1
BITMAP
FC
24
28
2E
22
42
4A
84
ENDCHAR
STARTCHAR uni4E45
ENCODING 20037
SWIDTH 1000 0
DWIDTH 9 0
BBX 8 8 0 -1
BITMAP
20
3C
44
48
88
14
22
C1
ENDCHAR
STARTCHAR uni4E47
ENCODING 20039
SWIDTH 1000 0
DWIDTH 9 0
BBX 8 8 0 -1
BITMAP
1E
E0
20
3E
E0
20
21
3F
ENDCHAR
STARTCHAR uni4E48
ENCODING 20040
SWIDTH 1000 0
DWIDTH 9 0
BBX 7 8 0 -1
BITMAP
10
10
24
C4
08
10
24
7A
ENDCHAR
STARTCHAR uni4E49
ENCODING 20041
SWIDTH 1000 0
DWIDTH 9 0
BBX 8 8 0 -1
BITMAP
20
12
52
44
28
10
28
C7
ENDCHAR
STARTCHAR uni4E4B
ENCODING 20043
SWIDTH 1000 0
DWIDTH 9 0
BBX 8 8 0 -1
BITMAP
10
FE
04
08
10
20
70
8F
ENDCHAR
STARTCHAR uni4E4C
ENCODING 20044
SWIDTH 1000 0
DWIDTH 9 0
BBX 7 8 0 -1
BITMAP
20
7C
44
48
7E
02
FA
06
ENDCHAR
STARTCHAR uni4E4D
ENCODING 20045
SWIDTH 1000 0
DWIDTH 9 0
BBX 7 8 0 -1
BITMAP
20
3E
60
BE
20
3E
20
20
ENDCHAR
STARTCHAR uni4E4E
ENCODING 20046
SWIDTH 1000 0
DWIDTH 9 0
BBX 8 8 0 -1
BITMAP
0E
F0
92
54
FF
10
10
30
ENDCHAR
STARTCHAR uni4E4F
ENCODING 20047
SWIDTH 1000 0
DWIDTH 9 0
BBX 8 8 0 -1
BITMAP
1E
F0
1E
E4
08
30
60
9F
ENDCHAR
STARTCHAR uni4E50
ENCODING 20048
SWIDTH 1000 0
DWIDTH 9 0
BBX 8 8 0 -1
BITMAP
0E
70
48
48
7F
2A
49
99
ENDCHAR
STARTCHAR uni4E52
ENCODING 20050
SWIDTH 1000 0
DWIDTH 9 0
BBX 8 8 0 -1
BITMAP
0E
70
40
7E
44
FF
20
40
ENDCHAR
STARTCHAR uni4E53
ENCODING 20051
SWIDTH 1000 0
DWIDTH 9 0
BBX 8 8 0 -1
BITMAP
0E
70
40
7E
44
FF
08
04
ENDCHAR
STARTCHAR uni4E54
ENCODING 20052
SWIDTH 1000 0
DWIDTH 9 0
BBX 8 8 0 -1
BITMAP
0C
70
10
FF
44
AB
28
48
ENDCHAR
STARTCHAR uni4E55
ENCODING 20053
SWIDTH 1000 0
DWIDTH 9 0
BBX 8 8 0 -1
BITMAP
03
7C
48
7F
48
7F
69
A9
ENDCHAR
STARTCHAR uni4E56
ENCODING 20054
SWIDTH 1000 0
DWIDTH 9 0
BBX 8 8 0 -1
BITMAP
0C
70
FF
55
D6
55
D7
10
ENDCHAR
STARTCHAR uni4E57
ENCODING 20055
SWIDTH 1000 0
DWIDTH 9 0
BBX 8 8 0 -1
BITMAP
3C
FE
54
FF
54
FE
54
93
ENDCHAR
STARTCHAR uni4E58
ENCODING 20056
SWIDTH 1000 0
DWIDTH 9 0
BBX 8 8 0 -1
BITMAP
0C
70
FF
54
D6
38
54
93
ENDCHAR
STARTCHAR uni4E59
ENCODING 20057
SWIDTH 1000 0
DWIDTH 9 0
BBX 7 8 0 -1
BITMAP
FC
08
10
20
40
80
82
7E
ENDCHAR
STARTCHAR uni4E5C
ENCODING 20060
SWIDTH 1000 0
DWIDTH 9 0
BBX 8 8 0 -1
BITMAP
20
20
3E
E2
22
26
21
1F
ENDCHAR
STARTCHAR uni4E5D
ENCODING 20061
SWIDTH 1000 0
DWIDTH 9 0
BBX 8 8 0 -1
BITMAP
20
20
FC
24
24
44
45
87
ENDCHAR
STARTCHAR uni4E5E
ENCODING 20062
SWIDTH 1000 0
DWIDTH 9 0
BBX 8 8 0 -1
BITMAP
20
3F
40
BC
08
10
21
3F
ENDCHAR
STARTCHAR uni4E5F
ENCODING 20063
SWIDTH 1000 0
DWIDTH 9 0
BBX 8 8 0 -1
BITMAP
10
56
5A
F2
5A
54
41
7F
ENDCHAR
STARTCHAR uni4E60
ENCODING 20064
SWIDTH 1000 0
DWIDTH 9 0
BBX 7 8 0 -1
BITMAP
FE
02
42
22
0A
12
E2
06
ENDCHAR
STARTCHAR uni4E61
ENCODING 20065
SWIDTH 1000 0
DWIDTH 9 0
BBX 8 8 0 -1
BITMAP
10
64
18
21
7E
04
18
E0
ENDCHAR
STARTCHAR uni4E62
ENCODING 20066
SWIDTH 1000 0
DWIDTH 9 0
BBX 8 8 0 -1
BITMAP
28
28
A8
A8
A8
A8
F9
0F
ENDCHAR
STARTCHAR uni4E66
ENCODING 20070
SWIDTH 1000 0
DWIDTH 9 0
BBX 7 8 0 -1
BITMAP
24
22
FC
24
FE
22
26
20
ENDCHAR
STARTCHAR uni4E69
ENCODING 20073
SWIDTH 1000 0
DWIDTH 9 0
BBX 8 8 0 -1
BITMAP
44
74
44
44
F4
94
95
F7
ENDCHAR
STARTCHAR uni4E70
ENCODING 20080
SWIDTH 1000 0
DWIDTH 9 0
BBX 8 8 0 -1
BITMAP
FF
2A
58
28
FF
08
14
62
ENDCHAR
STARTCHAR uni4E71
ENCODING 20081
SWIDTH 1000 0
DWIDTH 9 0
BBX 8 8 0 -1
BITMAP
34
C4
44
F4
44
F4
95
F7
ENDCHAR
STARTCHAR uni4E73
ENCODING 20083
SWIDTH 1000 0
DWIDTH 9 0
BBX 8 8 0 -1
BITMAP
3C
EC
54
F4
24
F4
25
67
ENDCHAR
STARTCHAR uni4E7E
ENCODING 20094
SWIDTH 1000 0
DWIDTH 9 0
BBX 8 8 0 -1
BITMAP
48
EF
50
AE
E2
A4
E9
4F
ENDCHAR
STARTCHAR uni4E7F
ENCODING 20095
SWIDTH 1000 0
DWIDTH 9 0
BBX 8 8 0 -1
BITMAP
3C
D4
24
D4
7C
B4
6D
A7
ENDCHAR
STARTCHAR uni4E80
ENCODING 20096
SWIDTH 1000 0
DWIDTH 9 0
BBX 8 8 0 -1
BITMAP
38
FC
54
FE
92
FE
11
1F
ENDCHAR
STARTCHAR uni4E82
ENCODING 20098
SWIDTH 1000 0
DWIDTH 9 0
BBX 8 8 0 -1
BITMAP
FA
52
22
FA
AA
DA
AA
DB
ENDCHAR
STARTCHAR uni4E83
ENCODING 20099
SWIDTH 1000 0
DWIDTH 9 0
BBX 8 8 0 -1
BITMAP
AA
FE
72
2A
7E
AA
5E
8B
ENDCHAR
STARTCHAR uni4E84
ENCODING 20100
SWIDTH 1000 0
DWIDTH 9 0
BBX 8 8 0 -1
BITMAP
24
FC
74
FC
8C
FD
55
F7
ENDCHAR
STARTCHAR uni4E85
ENCODING 20101
SWIDTH 1000 0
DWIDTH 9 0
BBX 2 8 3 -1
BITMAP
40
40
40
40
40
40
40
C0
ENDCHAR
STARTCHAR uni4E86
ENCODING 20102
SWIDTH 1000 0
DWIDTH 9 0
BBX 7 8 0 -1
BITMAP
FE
04
08
10
10
10
10
30
ENDCHAR
STARTCHAR uni4E88
ENCODING 20104
SWIDTH 1000 0
DWIDTH 9 0
BBX 7 8 0 -1
BITMAP
7C
28
10
FE
12
10
10
30
ENDCHAR
STARTCHAR uni4E89
ENCODING 20105
SWIDTH 1000 0
DWIDTH 9 0
BBX 8 8 0 -1
BITMAP
3C
48
BE
12
FF
12
7E
10
ENDCHAR
STARTCHAR uni4E8A
ENCODING 20106
SWIDTH 1000 0
DWIDTH 9 0
BBX 8 8 0 -1
BITMAP
10
FF
54
7E
12
FF
7E
10
ENDCHAR
STARTCHAR uni4E8B
ENCODING 20107
SWIDTH 1000 0
DWIDTH 9 0
BBX 8 8 0 -1
BITMAP
10
FF
54
FE
13
FE
10
30
ENDCHAR
STARTCHAR uni4E8C
ENCODING 20108
SWIDTH 1000 0
DWIDTH 9 0
BBX 8 6 0 0
BITMAP
7E
00
00
00
00
FF
ENDCHAR
STARTCHAR uni4E8D
ENCODING 20109
SWIDTH 1000 0
DWIDTH 9 0
BBX 8 8 0 -1
BITMAP
7E
00
00
FF
08
08
28
10
ENDCHAR
STARTCHAR uni4E8E
ENCODING 20110
SWIDTH 1000 0
DWIDTH 9 0
BBX 8 8 0 -1
BITMAP
7E
08
08
FF
08
08
28
10
ENDCHAR
STARTCHAR uni4E8F
ENCODING 20111
SWIDTH 1000 0
DWIDTH 9 0
BBX 8 8 0 -1
BITMAP
7E
00
FF
20
7E
02
12
0C
ENDCHAR
STARTCHAR uni4E91
ENCODING 20113
SWIDTH 1000 0
DWIDTH 9 0
BBX 8 8 0 -1
BITMAP
7E
00
FF
10
20
24
4E
72
ENDCHAR
STARTCHAR uni4E92
ENCODING 20114
SWIDTH 1000 0
DWIDTH 9 0
BBX 8 8 0 -1
BITMAP
FE
20
3C
44
44
78
08
FF
ENDCHAR
STARTCHAR uni4E93
ENCODING 20115
SWIDTH 1000 0
DWIDTH 9 0
BBX 8 8 0 -1
BITMAP
7E
00
FF
24
24
24
24
44
ENDCHAR
STARTCHAR uni4E94
ENCODING 20116
SWIDTH 1000 0
DWIDTH 9 0
BBX 8 8 0 -1
BITMAP
FE
20
20
FC
24
44
44
FF
ENDCHAR
STARTCHAR uni4E95
ENCODING 20117
SWIDTH 1000 0
DWIDTH 9 0
BBX 8 8 0 -1
BITMAP
24
24
7E
24
FF
24
24
44
ENDCHAR
STARTCHAR uni4E98
ENCODING 20120
SWIDTH 1000 0
DWIDTH 9 0
BBX 8 7 0 -1
BITMAP
FF
42
7E
42
7E
00
FF
ENDCHAR
STARTCHAR uni4E99
ENCODING 20121
SWIDTH 1000 0
DWIDTH 9 0
BBX 8 8 0 -1
BITMAP
FF
20
3E
32
4A
7C
04
FF
ENDCHAR
STARTCHAR uni4E9A
ENCODING 20122
SWIDTH 1000 0
DWIDTH 9 0
BBX 8 8 0 -1
BITMAP
FE
28
28
AA
AA
6C
28
FF
ENDCHAR
STARTCHAR uni4E9B
ENCODING 20123
SWIDTH 1000 0
DWIDTH 9 0
BBX 8 8 0 -1
BITMAP
24
37
A4
BB
C0
3E
00
7F
ENDCHAR
STARTCHAR uni4E9C
ENCODING 20124
SWIDTH 1000 0
DWIDTH 9 0
BBX 8 8 0 -1
BITMAP
FF
24
FF
A5
FF
24
24
FF
ENDCHAR
STARTCHAR uni4E9E
ENCODING 20126
SWIDTH 1000 0
DWIDTH 9 0
BBX 8 8 0 -1
BITMAP
FF
28
EE
82
82
EE
28
FF
ENDCHAR
STARTCHAR uni4E9F
ENCODING 20127
SWIDTH 1000 0
DWIDTH 9 0
BBX 8 8 0 -1
BITMAP
7E
04
EB
AD
AA
ED
18
FF
ENDCHAR
STARTCHAR uni4EA0
ENCODING 20128
SWIDTH 1000 0
DWIDTH 9 0
BBX 8 3 0 4
BITMAP
10
08
FF
ENDCHAR
STARTCHAR uni4EA1
ENCODING 20129
SWIDTH 1000 0
DWIDTH 9 0
BBX 8 8 0 -1
BITMAP
10
08
FF
40
40
40
40
3E
ENDCHAR
STARTCHAR uni4EA2
ENCODING 20130
SWIDTH 1000 0
DWIDTH 9 0
BBX 8 8 0 -1
BITMAP
08
FF
00
3C
24
24
25
C7
ENDCHAR
STARTCHAR uni4EA4
ENCODING 20132
SWIDTH 1000 0
DWIDTH 9 0
BBX 7 8 0 -1
BITMAP
10
FE
44
82
28
10
28
C6
ENDCHAR
STARTCHAR uni4EA5
ENCODING 20133
SWIDTH 1000 0
DWIDTH 9 0
BBX 7 8 0 -1
BITMAP
10
FE
20
48
32
E4
18
E6
ENDCHAR
STARTCHAR uni4EA6
ENCODING 20134
SWIDTH 1000 0
DWIDTH 9 0
BBX 8 8 0 -1
BITMAP
10
FF
24
66
65
A5
24
4C
ENDCHAR
STARTCHAR uni4EA7
ENCODING 20135
SWIDTH 1000 0
DWIDTH 9 0
BBX 8 8 0 -1
BITMAP
08
7F
22
7F
40
40
40
80
ENDCHAR
STARTCHAR uni4EA8
ENCODING 20136
SWIDTH 1000 0
DWIDTH 9 0
BBX 7 8 0 -1
BITMAP
10
FE
44
7C
00
FE
18
30
ENDCHAR
STARTCHAR uni4EA9
ENCODING 20137
SWIDTH 1000 0
DWIDTH 9 0
BBX 8 8 0 -1
BITMAP
10
FF
00
FE
92
FE
92
FE
ENDCHAR
STARTCHAR uni4EAB
ENCODING 20139
SWIDTH 1000 0
DWIDTH 9 0
BBX 8 8 0 -1
BITMAP
10
FF
24
7E
04
FF
08
38
ENDCHAR
STARTCHAR uni4EAC
ENCODING 20140
SWIDTH 1000 0
DWIDTH 9 0
BBX 8 8 0 -1
BITMAP
10
FF
00
7C
44
7C
54
B2
ENDCHAR
STARTCHAR uni4EAD
ENCODING 20141
SWIDTH 1000 0
DWIDTH 9 0
BBX 8 8 0 -1
BITMAP
10
FF
44
FF
81
7E
10
30
ENDCHAR
STARTCHAR uni4EAE
ENCODING 20142
SWIDTH 1000 0
DWIDTH 9 0
BBX 8 8 0 -1
BITMAP
10
7E
24
FF
81
3C
25
C7
ENDCHAR
STARTCHAR uni4EB0
ENCODING 20144
SWIDTH 1000 0
DWIDTH 9 0
BBX 8 8 0 -1
BITMAP
10
FF
42
7E
42
7E
10
91
ENDCHAR
STARTCHAR uni4EB2
ENCODING 20146
SWIDTH 1000 0
DWIDTH 9 0
BBX 7 8 0 -1
BITMAP
10
FE
44
FE
10
FE
54
B2
ENDCHAR
STARTCHAR uni4EB3
ENCODING 20147
SWIDTH 1000 0
DWIDTH 9 0
BBX 8 8 0 -1
BITMAP
10
FF
44
FF
91
1C
F1
1F
ENDCHAR
STARTCHAR uni4EB5
ENCODING 20149
SWIDTH 1000 0
DWIDTH 9 0
BBX 8 8 0 -1
BITMAP
10
FF
48
FE
4A
D5
68
B7
ENDCHAR
STARTCHAR uni4EB6
ENCODING 20150
SWIDTH 1000 0
DWIDTH 9 0
BBX 8 8 0 -1
BITMAP
10
FF
5A
7E
24
3C
24
FF
ENDCHAR
STARTCHAR uni4EB9
ENCODING 20153
SWIDTH 1000 0
DWIDTH 9 0
BBX 8 8 0 -1
BITMAP
08
FF
5D
55
FF
A5
3C
FF
ENDCHAR
STARTCHAR uni4EBA
ENCODING 20154
SWIDTH 1000 0
DWIDTH 9 0
BBX 8 8 0 -1
BITMAP
10
10
10
10
28
28
44
83
ENDCHAR
STARTCHAR uni4EBB
ENCODING 20155
SWIDTH 1000 0
DWIDTH 9 0
BBX 4 8 0 -1
BITMAP
10
20
60
A0
20
20
20
20
ENDCHAR
STARTCHAR uni4EBF
ENCODING 20159
SWIDTH 1000 0
DWIDTH 9 0
BBX 8 8 0 -1
BITMAP
20
5F
C2
44
48
50
51
4F
ENDCHAR
STARTCHAR uni4EC0
ENCODING 20160
SWIDTH 1000 0
DWIDTH 9 0
BBX 8 8 0 -1
BITMAP
24
24
5F
C4
44
44
44
44
ENDCHAR
STARTCHAR uni4EC1
ENCODING 20161
SWIDTH 1000 0
DWIDTH 9 0
BBX 8 8 0 -1
BITMAP
40
5E
C0
40
40
40
7F
40
ENDCHAR
STARTCHAR uni4EC2
ENCODING 20162
SWIDTH 1000 0
DWIDTH 9 0
BBX 8 8 0 -1
BITMAP
24
44
DF
45
49
49
55
62
ENDCHAR
STARTCHAR uni4EC3
ENCODING 20163
SWIDTH 1000 0
DWIDTH 9 0
BBX 8 8 0 -1
BITMAP
20
5F
C4
44
44
44
54
48
ENDCHAR
STARTCHAR uni4EC4
ENCODING 20164
SWIDTH 1000 0
DWIDTH 9 0
BBX 8 8 0 -1
BITMAP
7F
40
48
48
48
54
54
A3
ENDCHAR
STARTCHAR uni4EC5
ENCODING 20165
SWIDTH 1000 0
DWIDTH 9 0
BBX 8 8 0 -1
BITMAP
2F
41
C9
4A
46
44
4A
51
ENDCHAR
STARTCHAR uni4EC6
ENCODING 20166
SWIDTH 1000 0
DWIDTH 9 0
BBX 8 8 0 -1
BITMAP
24
24
66
A5
25
24
24
24
ENDCHAR
STARTCHAR uni4EC7
ENCODING 20167
SWIDTH 1000 0
DWIDTH 9 0
BBX 8 8 0 -1
BITMAP
48
48
DE
4A
4A
4A
4A
53
ENDCHAR
STARTCHAR uni4EC8
ENCODING 20168
SWIDTH 1000 0
DWIDTH 9 0
BBX 8 8 0 -1
BITMAP
2E
42
4A
CA
4A
52
51
61
ENDCHAR
STARTCHAR uni4EC9
ENCODING 20169
SWIDTH 1000 0
DWIDTH 9 0
BBX 8 8 0 -1
BITMAP
20
4E
CA
4A
4A
4A
4A
53
ENDCHAR
STARTCHAR uni4ECA
ENCODING 20170
SWIDTH 1000 0
DWIDTH 9 0
BBX 8 8 0 -1
BITMAP
10
28
64
93
7C
04
08
10
ENDCHAR
STARTCHAR uni4ECB
ENCODING 20171
SWIDTH 1000 0
DWIDTH 9 0
BBX 8 8 0 -1
BITMAP
10
28
44
AB
28
28
28
48
ENDCHAR
STARTCHAR uni4ECD
ENCODING 20173
SWIDTH 1000 0
DWIDTH 9 0
BBX 8 8 0 -1
BITMAP
5F
49
CA
4B
49
49
51
63
ENDCHAR
STARTCHAR uni4ECE
ENCODING 20174
SWIDTH 1000 0
DWIDTH 9 0
BBX 8 8 0 -1
BITMAP
24
24
24
24
24
34
4A
91
ENDCHAR
STARTCHAR uni4ECF
ENCODING 20175
SWIDTH 1000 0
DWIDTH 9 0
BBX 8 8 0 -1
BITMAP
24
44
C4
44
48
4A
4A
5F
ENDCHAR
STARTCHAR uni4ED1
ENCODING 20177
SWIDTH 1000 0
DWIDTH 9 0
BBX 8 8 0 -1
BITMAP
10
28
C7
40
4C
70
42
7E
ENDCHAR
STARTCHAR uni4ED3
ENCODING 20179
SWIDTH 1000 0
DWIDTH 9 0
BBX 8 8 0 -1
BITMAP
10
28
44
FB
48
58
42
7E
ENDCHAR
STARTCHAR uni4ED4
ENCODING 20180
SWIDTH 1000 0
DWIDTH 9 0
BBX 8 8 0 -1
BITMAP
5F
42
C4
5F
44
44
44
4C
ENDCHAR
STARTCHAR uni4ED5
ENCODING 20181
SWIDTH 1000 0
DWIDTH 9 0
BBX 8 8 0 -1
BITMAP
24
44
DF
44
44
44
44
4E
ENDCHAR
STARTCHAR uni4ED6
ENCODING 20182
SWIDTH 1000 0
DWIDTH 9 0
BBX 8 8 0 -1
BITMAP
24
44
D7
7D
55
54
51
5F
ENDCHAR
STARTCHAR uni4ED7
ENCODING 20183
SWIDTH 1000 0
DWIDTH 9 0
BBX 8 8 0 -1
BITMAP
44
5F
C4
54
54
48
4C
73
ENDCHAR
STARTCHAR uni4ED8
ENCODING 20184
SWIDTH 1000 0
DWIDTH 9 0
BBX 8 8 0 -1
BITMAP
22
42
DF
42
52
4A
42
46
ENDCHAR
STARTCHAR uni4ED9
ENCODING 20185
SWIDTH 1000 0
DWIDTH 9 0
BBX 8 8 0 -1
BITMAP
24
44
D5
55
55
55
55
5F
ENDCHAR
STARTCHAR uni4EDA
ENCODING 20186
SWIDTH 1000 0
DWIDTH 9 0
BBX 8 8 0 -1
BITMAP
10
28
44
93
52
52
52
7E
ENDCHAR
STARTCHAR uni4EDC
ENCODING 20188
SWIDTH 1000 0
DWIDTH 9 0
BBX 8 8 0 -1
BITMAP
20
5F
44
C4
44
44
44
7F
ENDCHAR
STARTCHAR uni4EDD
ENCODING 20189
SWIDTH 1000 0
DWIDTH 9 0
BBX 8 8 0 -1
BITMAP
10
28
44
83
7C
10
10
FE
ENDCHAR
STARTCHAR uni4EDE
ENCODING 20190
SWIDTH 1000 0
DWIDTH 9 0
BBX 8 8 0 -1
BITMAP
5F
45
D5
55
69
49
51
63
ENDCHAR
STARTCHAR uni4EDF
ENCODING 20191
SWIDTH 1000 0
DWIDTH 9 0
BBX 8 8 0 -1
BITMAP
22
4C
C4
44
5F
44
44
44
ENDCHAR
STARTCHAR uni4EE1
ENCODING 20193
SWIDTH 1000 0
DWIDTH 9 0
BBX 8 8 0 -1
BITMAP
28
4F
D0
4E
44
48
51
4F
ENDCHAR
STARTCHAR uni4EE3
ENCODING 20195
SWIDTH 1000 0
DWIDTH 9 0
BBX 8 8 0 -1
BITMAP
48
4A
CF
78
48
44
45
43
ENDCHAR
STARTCHAR uni4EE4
ENCODING 20196
SWIDTH 1000 0
DWIDTH 9 0
BBX 8 8 0 -1
BITMAP
10
28
54
93
7C
04
28
10
ENDCHAR
STARTCHAR uni4EE5
ENCODING 20197
SWIDTH 1000 0
DWIDTH 9 0
BBX 8 8 0 -1
BITMAP
22
92
82
82
94
A4
CA
11
ENDCHAR
STARTCHAR uni4EE8
ENCODING 20200
SWIDTH 1000 0
DWIDTH 9 0
BBX 8 8 0 -1
BITMAP
20
5F
C0
40
4E
40
40
5F
ENDCHAR
STARTCHAR uni4EE9
ENCODING 20201
SWIDTH 1000 0
DWIDTH 9 0
BBX 8 8 0 -1
BITMAP
28
48
48
CF
48
48
48
7F
ENDCHAR
STARTCHAR uni4EEA
ENCODING 20202
SWIDTH 1000 0
DWIDTH 9 0
BBX 8 8 0 -1
BITMAP
50
4A
C2
52
54
48
54
63
ENDCHAR
STARTCHAR uni4EEB
ENCODING 20203
SWIDTH 1000 0
DWIDTH 9 0
BBX 8 8 0 -1
BITMAP
24
48
D2
64
44
4A
53
5D
ENDCHAR
STARTCHAR uni4EEC
ENCODING 20204
SWIDTH 1000 0
DWIDTH 9 0
BBX 8 8 0 -1
BITMAP
57
49
D1
51
51
51
51
53
ENDCHAR
STARTCHAR uni4EED
ENCODING 20205
SWIDTH 1000 0
DWIDTH 9 0
BBX 8 8 0 -1
BITMAP
20
5E
CA
6A
5A
4E
4B
56
ENDCHAR
STARTCHAR uni4EEE
ENCODING 20206
SWIDTH 1000 0
DWIDTH 9 0
BBX 8 8 0 -1
BITMAP
2F
48
CF
49
49
56
66
49
ENDCHAR
STARTCHAR uni4EF0
ENCODING 20208
SWIDTH 1000 0
DWIDTH 9 0
BBX 8 8 0 -1
BITMAP
28
57
D5
55
55
5D
57
44
ENDCHAR
STARTCHAR uni4EF1
ENCODING 20209
SWIDTH 1000 0
DWIDTH 9 0
BBX 8 8 0 -1
BITMAP
28
4C
5A
E5
5E
42
44
44
ENDCHAR
STARTCHAR uni4EF2
ENCODING 20210
SWIDTH 1000 0
DWIDTH 9 0
BBX 8 8 0 -1
BITMAP
44
44
DF
55
5F
44
44
44
ENDCHAR
STARTCHAR uni4EF3
ENCODING 20211
SWIDTH 1000 0
DWIDTH 9 0
BBX 8 8 0 -1
BITMAP
54
54
D5
5E
54
54
5D
77
ENDCHAR
STARTCHAR uni4EF4
ENCODING 20212
SWIDTH 1000 0
DWIDTH 9 0
BBX 8 8 0 -1
BITMAP
5F
51
5F
D1
5F
51
51
63
ENDCHAR
STARTCHAR uni4EF5
ENCODING 20213
SWIDTH 1000 0
DWIDTH 9 0
BBX 8 8 0 -1
BITMAP
48
4F
D4
44
5F
44
44
44
ENDCHAR
STARTCHAR uni4EF6
ENCODING 20214
SWIDTH 1000 0
DWIDTH 9 0
BBX 8 8 0 -1
BITMAP
44
54
9E
64
5F
44
44
44
ENDCHAR
STARTCHAR uni4EF7
ENCODING 20215
SWIDTH 1000 0
DWIDTH 9 0
BBX 8 8 0 -1
BITMAP
24
4A
D1
4A
4A
4A
4A
52
ENDCHAR
STARTCHAR uni4EFB
ENCODING 20219
SWIDTH 1000 0
DWIDTH 9 0
BBX 8 8 0 -1
BITMAP
43
5C
C4
44
7F
44
44
5F
ENDCHAR
STARTCHAR uni4EFD
ENCODING 20221
SWIDTH 1000 0
DWIDTH 9 0
BBX 8 8 0 -1
BITMAP
24
4A
F1
5E
4A
4A
52
66
ENDCHAR
STARTCHAR uni4EFF
ENCODING 20223
SWIDTH 1000 0
DWIDTH 9 0
BBX 8 8 0 -1
BITMAP
44
5F
88
4F
49
49
51
63
ENDCHAR
STARTCHAR uni4F00
ENCODING 20224
SWIDTH 1000 0
DWIDTH 9 0
BBX 8 8 0 -1
BITMAP
26
52
52
E5
44
4A
57
59
ENDCHAR
STARTCHAR uni4F01
ENCODING 20225
SWIDTH 1000 0
DWIDTH 9 0
BBX 8 8 0 -1
BITMAP
10
28
54
93
5C
50
50
FE
ENDCHAR
STARTCHAR uni4F02
ENCODING 20226
SWIDTH 1000 0
DWIDTH 9 0
BBX 8 8 0 -1
BITMAP
44
7F
44
DF
55
55
55
44
ENDCHAR
STARTCHAR uni4F04
ENCODING 20228
SWIDTH 1000 0
DWIDTH 9 0
BBX 8 8 0 -1
BITMAP
5F
45
5F
D4
5F
45
47
44
ENDCHAR
STARTCHAR uni4F05
ENCODING 20229
SWIDTH 1000 0
DWIDTH 9 0
BBX 8 8 0 -1
BITMAP
44
7F
44
D5
55
5F
44
47
ENDCHAR
STARTCHAR uni4F08
ENCODING 20232
SWIDTH 1000 0
DWIDTH 9 0
BBX 8 8 0 -1
BITMAP
48
44
48
CA
59
69
4A
4E
ENDCHAR
STARTCHAR uni4F09
ENCODING 20233
SWIDTH 1000 0
DWIDTH 9 0
BBX 8 8 0 -1
BITMAP
44
5F
C0
4E
4A
4A
4A
53
ENDCHAR
STARTCHAR uni4F0A
ENCODING 20234
SWIDTH 1000 0
DWIDTH 9 0
BBX 8 8 0 -1
BITMAP
5E
4A
FF
4A
5E
48
48
50
ENDCHAR
STARTCHAR uni4F0B
ENCODING 20235
SWIDTH 1000 0
DWIDTH 9 0
BBX 8 8 0 -1
BITMAP
5E
52
5F
D1
5A
54
56
69
ENDCHAR
STARTCHAR uni4F0D
ENCODING 20237
SWIDTH 1000 0
DWIDTH 9 0
BBX 8 8 0 -1
BITMAP
5F
48
C8
7E
4A
52
52
7F
ENDCHAR
STARTCHAR uni4F0E
ENCODING 20238
SWIDTH 1000 0
DWIDTH 9 0
BBX 8 8 0 -1
BITMAP
24
5F
C4
5E
4A
4A
44
5B
ENDCHAR
STARTCHAR uni4F0F
ENCODING 20239
SWIDTH 1000 0
DWIDTH 9 0
BBX 8 8 0 -1
BITMAP
4A
49
FF
48
48
54
54
63
ENDCHAR
STARTCHAR uni4F10
ENCODING 20240
SWIDTH 1000 0
DWIDTH 9 0
BBX 8 8 0 -1
BITMAP
28
4A
FF
48
4A
4C
75
43
ENDCHAR
STARTCHAR uni4F11
ENCODING 20241
SWIDTH 1000 0
DWIDTH 9 0
BBX 8 8 0 -1
BITMAP
24
44
DF
44
4E
4D
55
44
ENDCHAR
STARTCHAR uni4F12
ENCODING 20242
SWIDTH 1000 0
DWIDTH 9 0
BBX 8 8 0 -1
BITMAP
42
5C
50
DF
52
52
52
62
ENDCHAR
STARTCHAR uni4F13
ENCODING 20243
SWIDTH 1000 0
DWIDTH 9 0
BBX 8 8 0 -1
BITMAP
5F
44
44
CE
55
64
44
44
ENDCHAR
STARTCHAR uni4F14
ENCODING 20244
SWIDTH 1000 0
DWIDTH 9 0
BBX 8 8 0 -1
BITMAP
5F
51
4E
CA
4A
4A
52
63
ENDCHAR
STARTCHAR uni4F15
ENCODING 20245
SWIDTH 1000 0
DWIDTH 9 0
BBX 8 8 0 -1
BITMAP
24
5F
44
DF
44
4C
52
61
ENDCHAR
STARTCHAR uni4F17
ENCODING 20247
SWIDTH 1000 0
DWIDTH 9 0
BBX 8 8 0 -1
BITMAP
10
10
28
C6
44
44
AA
91
ENDCHAR
STARTCHAR uni4F18
ENCODING 20248
SWIDTH 1000 0
DWIDTH 9 0
BBX 8 8 0 -1
BITMAP
2A
49
DF
4C
4C
4C
55
67
ENDCHAR
STARTCHAR uni4F19
ENCODING 20249
SWIDTH 1000 0
DWIDTH 9 0
BBX 8 8 0 -1
BITMAP
24
24
45
D6
64
4A
4A
51
ENDCHAR
STARTCHAR uni4F1A
ENCODING 20250
SWIDTH 1000 0
DWIDTH 9 0
BBX 8 8 0 -1
BITMAP
18
24
42
BD
00
7E
24
7A
ENDCHAR
STARTCHAR uni4F1B
ENCODING 20251
SWIDTH 1000 0
DWIDTH 9 0
BBX 8 8 0 -1
BITMAP
5F
50
D5
55
52
55
50
5F
ENDCHAR
STARTCHAR uni4F1C
ENCODING 20252
SWIDTH 1000 0
DWIDTH 9 0
BBX 8 8 0 -1
BITMAP
28
5E
CA
53
44
5F
44
44
ENDCHAR
STARTCHAR uni4F1D
ENCODING 20253
SWIDTH 1000 0
DWIDTH 9 0
BBX 8 8 0 -1
BITMAP
5F
40
40
FF
48
4A
57
59
ENDCHAR
STARTCHAR uni4F1E
ENCODING 20254
SWIDTH 1000 0
DWIDTH 9 0
BBX 8 8 0 -1
BITMAP
10
28
D7
92
54
FF
10
10
ENDCHAR
STARTCHAR uni4F1F
ENCODING 20255
SWIDTH 1000 0
DWIDTH 9 0
BBX 8 8 0 -1
BITMAP
24
5F
C4
5F
44
5F
45
45
ENDCHAR
STARTCHAR uni4F20
ENCODING 20256
SWIDTH 1000 0
DWIDTH 9 0
BBX 8 8 0 -1
BITMAP
48
5E
C8
7F
50
5E
4A
44
ENDCHAR
STARTCHAR uni4F22
ENCODING 20258
SWIDTH 1000 0
DWIDTH 9 0
BBX 8 8 0 -1
BITMAP
5F
4A
CA
5F
46
4A
72
46
ENDCHAR
STARTCHAR uni4F24
ENCODING 20260
SWIDTH 1000 0
DWIDTH 9 0
BBX 8 8 0 -1
BITMAP
28
4F
D0
64
5F
45
49
53
ENDCHAR
STARTCHAR uni4F25
ENCODING 20261
SWIDTH 1000 0
DWIDTH 9 0
BBX 8 8 0 -1
BITMAP
52
54
D0
7F
58
54
54
5B
ENDCHAR
STARTCHAR uni4F26
ENCODING 20262
SWIDTH 1000 0
DWIDTH 9 0
BBX 8 8 0 -1
BITMAP
24
4A
D1
48
4B
4C
49
4F
ENDCHAR
STARTCHAR uni4F27
ENCODING 20263
SWIDTH 1000 0
DWIDTH 9 0
BBX 8 8 0 -1
BITMAP
24
4A
F1
5E
52
56
51
5F
ENDCHAR
STARTCHAR uni4F2A
ENCODING 20266
SWIDTH 1000 0
DWIDTH 9 0
BBX 8 8 0 -1
BITMAP
54
4C
FF
49
49
55
51
63
ENDCHAR
STARTCHAR uni4F2B
ENCODING 20267
SWIDTH 1000 0
DWIDTH 9 0
BBX 8 8 0 -1
BITMAP
24
5F
D1
40
40
40
5F
40
ENDCHAR
STARTCHAR uni4F2C
ENCODING 20268
SWIDTH 1000 0
DWIDTH 9 0
BBX 8 8 0 -1
BITMAP
5F
51
51
DF
54
54
52
61
ENDCHAR
STARTCHAR uni4F2D
ENCODING 20269
SWIDTH 1000 0
DWIDTH 9 0
BBX 8 8 0 -1
BITMAP
44
7F
44
CA
5E
44
4A
7F
ENDCHAR
STARTCHAR uni4F2F
ENCODING 20271
SWIDTH 1000 0
DWIDTH 9 0
BBX 8 8 0 -1
BITMAP
48
5F
D1
51
5F
51
51
5F
ENDCHAR
STARTCHAR uni4F30
ENCODING 20272
SWIDTH 1000 0
DWIDTH 9 0
BBX 8 8 0 -1
BITMAP
24
5F
C4
44
5F
51
51
5F
ENDCHAR
STARTCHAR uni4F32
ENCODING 20274
SWIDTH 1000 0
DWIDTH 9 0
BBX 8 8 0 -1
BITMAP
3F
51
DF
54
55
56
55
67
ENDCHAR
STARTCHAR uni4F33
ENCODING 20275
SWIDTH 1000 0
DWIDTH 9 0
BBX 8 8 0 -1
BITMAP
50
5A
5A
FF
5A
5E
50
5F
ENDCHAR
STARTCHAR uni4F34
ENCODING 20276
SWIDTH 1000 0
DWIDTH 9 0
BBX 8 8 0 -1
BITMAP
55
4E
9F
44
7F
44
44
44
ENDCHAR
STARTCHAR uni4F36
ENCODING 20278
SWIDTH 1000 0
DWIDTH 9 0
BBX 8 8 0 -1
BITMAP
24
4A
D5
44
5F
42
4A
44
ENDCHAR
STARTCHAR uni4F38
ENCODING 20280
SWIDTH 1000 0
DWIDTH 9 0
BBX 8 8 0 -1
BITMAP
24
5F
D5
5F
55
5F
44
44
ENDCHAR
STARTCHAR uni4F3A
ENCODING 20282
SWIDTH 1000 0
DWIDTH 9 0
BBX 8 8 0 -1
BITMAP
5F
41
DF
41
5D
55
5D
43
ENDCHAR
STARTCHAR uni4F3B
ENCODING 20283
SWIDTH 1000 0
DWIDTH 9 0
BBX 8 8 0 -1
BITMAP
5F
44
55
D6
7F
44
44
44
ENDCHAR
STARTCHAR uni4F3C
ENCODING 20284
SWIDTH 1000 0
DWIDTH 9 0
BBX 8 8 0 -1
BITMAP
22
4A
C6
52
52
5A
52
45
ENDCHAR
STARTCHAR uni4F3D
ENCODING 20285
SWIDTH 1000 0
DWIDTH 9 0
BBX 8 8 0 -1
BITMAP
50
50
BF
55
55
55
57
6C
ENDCHAR
STARTCHAR uni4F3E
ENCODING 20286
SWIDTH 1000 0
DWIDTH 9 0
BBX 8 8 0 -1
BITMAP
5F
44
44
CE
55
64
44
7F
ENDCHAR
STARTCHAR uni4F3F
ENCODING 20287
SWIDTH 1000 0
DWIDTH 9 0
BBX 8 8 0 -1
BITMAP
5F
51
51
D1
5F
4A
51
61
ENDCHAR
STARTCHAR uni4F41
ENCODING 20289
SWIDTH 1000 0
DWIDTH 9 0
BBX 8 8 0 -1
BITMAP
28
4A
52
FF
40
5E
52
5E
ENDCHAR
STARTCHAR uni4F43
ENCODING 20291
SWIDTH 1000 0
DWIDTH 9 0
BBX 8 8 0 -1
BITMAP
40
5F
D5
55
5F
55
55
5F
ENDCHAR
STARTCHAR uni4F46
ENCODING 20294
SWIDTH 1000 0
DWIDTH 9 0
BBX 8 8 0 -1
BITMAP
20
5E
D2
5E
52
5E
40
7F
ENDCHAR
STARTCHAR uni4F47
ENCODING 20295
SWIDTH 1000 0
DWIDTH 9 0
BBX 8 8 0 -1
BITMAP
24
5F
61
DF
44
44
44
5C
ENDCHAR
STARTCHAR uni4F48
ENCODING 20296
SWIDTH 1000 0
DWIDTH 9 0
BBX 8 8 0 -1
BITMAP
28
7F
54
DF
75
55
57
44
ENDCHAR
STARTCHAR uni4F49
ENCODING 20297
SWIDTH 1000 0
DWIDTH 9 0
BBX 8 8 0 -1
BITMAP
44
5E
44
C4
7F
4A
53
7D
ENDCHAR
STARTCHAR uni4F4C
ENCODING 20300
SWIDTH 1000 0
DWIDTH 9 0
BBX 8 8 0 -1
BITMAP
4A
4A
4B
CE
5A
5A
5E
73
ENDCHAR
STARTCHAR uni4F4D
ENCODING 20301
SWIDTH 1000 0
DWIDTH 9 0
BBX 8 8 0 -1
BITMAP
24
5F
C0
4A
4A
4A
44
5F
ENDCHAR
STARTCHAR uni4F4E
ENCODING 20302
SWIDTH 1000 0
DWIDTH 9 0
BBX 8 8 0 -1
BITMAP
47
5A
92
5F
52
56
5B
45
ENDCHAR
STARTCHAR uni4F4F
ENCODING 20303
SWIDTH 1000 0
DWIDTH 9 0
BBX 8 8 0 -1
BITMAP
44
5F
C4
44
5F
44
44
5F
ENDCHAR
STARTCHAR uni4F50
ENCODING 20304
SWIDTH 1000 0
DWIDTH 9 0
BBX 8 8 0 -1
BITMAP
48
7F
C8
50
5F
64
44
5F
ENDCHAR
STARTCHAR uni4F51
ENCODING 20305
SWIDTH 1000 0
DWIDTH 9 0
BBX 8 8 0 -1
BITMAP
44
5F
C4
48
5F
69
49
4F
ENDCHAR
STARTCHAR uni4F52
ENCODING 20306
SWIDTH 1000 0
DWIDTH 9 0
BBX 8 8 0 -1
BITMAP
24
5F
55
D5
7F
44
4A
71
ENDCHAR
STARTCHAR uni4F53
ENCODING 20307
SWIDTH 1000 0
DWIDTH 9 0
BBX 8 8 0 -1
BITMAP
28
48
FF
5C
6A
5D
48
48
ENDCHAR
STARTCHAR uni4F54
ENCODING 20308
SWIDTH 1000 0
DWIDTH 9 0
BBX 8 8 0 -1
BITMAP
24
44
47
C4
5F
51
51
5F
ENDCHAR
STARTCHAR uni4F55
ENCODING 20309
SWIDTH 1000 0
DWIDTH 9 0
BBX 8 8 0 -1
BITMAP
5F
42
DA
56
56
5A
42
46
ENDCHAR
STARTCHAR uni4F56
ENCODING 20310
SWIDTH 1000 0
DWIDTH 9 0
BBX 8 8 0 -1
BITMAP
48
46
4A
CA
6D
69
5A
6E
ENDCHAR
STARTCHAR uni4F57
ENCODING 20311
SWIDTH 1000 0
DWIDTH 9 0
BBX 8 8 0 -1
BITMAP
24
5F
D1
48
4A
4C
49
4F
ENDCHAR
STARTCHAR uni4F58
ENCODING 20312
SWIDTH 1000 0
DWIDTH 9 0
BBX 8 8 0 -1
BITMAP
10
6C
BB
00
FE
14
52
B2
ENDCHAR
STARTCHAR uni4F59
ENCODING 20313
SWIDTH 1000 0
DWIDTH 9 0
BBX 8 8 0 -1
BITMAP
10
2C
C3
7C
10
FE
54
B2
ENDCHAR
STARTCHAR uni4F5A
ENCODING 20314
SWIDTH 1000 0
DWIDTH 9 0
BBX 8 8 0 -1
BITMAP
44
54
9F
64
5F
44
4A
51
ENDCHAR
STARTCHAR uni4F5B
ENCODING 20315
SWIDTH 1000 0
DWIDTH 9 0
BBX 8 8 0 -1
BITMAP
54
7F
D5
7F
54
7F
55
67
ENDCHAR
STARTCHAR uni4F5C
ENCODING 20316
SWIDTH 1000 0
DWIDTH 9 0
BBX 8 8 0 -1
BITMAP
28
5F
E8
4F
48
4F
48
48
ENDCHAR
STARTCHAR uni4F5D
ENCODING 20317
SWIDTH 1000 0
DWIDTH 9 0
BBX 8 8 0 -1
BITMAP
28
4F
F1
5D
55
55
5D
43
ENDCHAR
STARTCHAR uni4F5E
ENCODING 20318
SWIDTH 1000 0
DWIDTH 9 0
BBX 8 8 0 -1
BITMAP
2E
40
DF
48
7F
52
4C
52
ENDCHAR
STARTCHAR uni4F5F
ENCODING 20319
SWIDTH 1000 0
DWIDTH 9 0
BBX 8 8 0 -1
BITMAP
28
4F
DA
44
5B
46
58
46
ENDCHAR
STARTCHAR uni4F60
ENCODING 20320
SWIDTH 1000 0
DWIDTH 9 0
BBX 8 8 0 -1
BITMAP
48
4F
D5
44
56
65
45
4C
ENDCHAR
STARTCHAR uni4F61
ENCODING 20321
SWIDTH 1000 0
DWIDTH 9 0
BBX 8 8 0 -1
BITMAP
4C
4A
51
E4
55
55
55
5F
ENDCHAR
STARTCHAR uni4F62
ENCODING 20322
SWIDTH 1000 0
DWIDTH 9 0
BBX 8 8 0 -1
BITMAP
5F
50
5E
D2
52
5E
50
7F
ENDCHAR
STARTCHAR uni4F63
ENCODING 20323
SWIDTH 1000 0
DWIDTH 9 0
BBX 8 8 0 -1
BITMAP
5F
55
DF
55
5F
55
55
63
ENDCHAR
STARTCHAR uni4F64
ENCODING 20324
SWIDTH 1000 0
DWIDTH 9 0
BBX 8 8 0 -1
BITMAP
7F
50
DE
52
5A
56
5A
73
ENDCHAR
STARTCHAR uni4F65
ENCODING 20325
SWIDTH 1000 0
DWIDTH 9 0
BBX 8 8 0 -1
BITMAP
10
2C
C3
7C
12
4A
24
FF
ENDCHAR
STARTCHAR uni4F67
ENCODING 20327
SWIDTH 1000 0
DWIDTH 9 0
BBX 8 8 0 -1
BITMAP
48
4F
C8
7F
4C
4A
49
48
ENDCHAR
STARTCHAR uni4F69
ENCODING 20329
SWIDTH 1000 0
DWIDTH 9 0
BBX 8 8 0 -1
BITMAP
5F
51
DF
55
5F
5B
5B
65
ENDCHAR
STARTCHAR uni4F6A
ENCODING 20330
SWIDTH 1000 0
DWIDTH 9 0
BBX 8 8 0 -1
BITMAP
5F
51
5D
D5
5D
51
51
5F
ENDCHAR
STARTCHAR uni4F6B
ENCODING 20331
SWIDTH 1000 0
DWIDTH 9 0
BBX 8 8 0 -1
BITMAP
48
5F
6A
CC
73
5E
52
5E
ENDCHAR
STARTCHAR uni4F6C
ENCODING 20332
SWIDTH 1000 0
DWIDTH 9 0
BBX 8 8 0 -1
BITMAP
2A
5F
4A
FF
48
7E
51
5F
ENDCHAR
STARTCHAR uni4F6E
ENCODING 20334
SWIDTH 1000 0
DWIDTH 9 0
BBX 8 8 0 -1
BITMAP
24
2A
51
DE
40
5E
52
5E
ENDCHAR
STARTCHAR uni4F6F
ENCODING 20335
SWIDTH 1000 0
DWIDTH 9 0
BBX 8 8 0 -1
BITMAP
2A
5F
C4
5F
44
5F
44
44
ENDCHAR
STARTCHAR uni4F70
ENCODING 20336
SWIDTH 1000 0
DWIDTH 9 0
BBX 8 8 0 -1
BITMAP
3F
24
5F
D1
5F
51
51
5F
ENDCHAR
STARTCHAR uni4F73
ENCODING 20339
SWIDTH 1000 0
DWIDTH 9 0
BBX 8 8 0 -1
BITMAP
24
4E
C4
5F
44
4E
44
5F
ENDCHAR
STARTCHAR uni4F74
ENCODING 20340
SWIDTH 1000 0
DWIDTH 9 0
BBX 8 8 0 -1
BITMAP
3F
52
DE
52
5E
53
7E
42
ENDCHAR
STARTCHAR uni4F75
ENCODING 20341
SWIDTH 1000 0
DWIDTH 9 0
BBX 8 8 0 -1
BITMAP
22
54
7F
D2
7F
52
52
62
ENDCHAR
STARTCHAR uni4F76
ENCODING 20342
SWIDTH 1000 0
DWIDTH 9 0
BBX 8 8 0 -1
BITMAP
28
7F
C8
7E
40
5E
52
5E
ENDCHAR
STARTCHAR uni4F77
ENCODING 20343
SWIDTH 1000 0
DWIDTH 9 0
BBX 8 8 0 -1
BITMAP
5E
52
5E
D2
5E
55
52
79
ENDCHAR
STARTCHAR uni4F78
ENCODING 20344
SWIDTH 1000 0
DWIDTH 9 0
BBX 8 8 0 -1
BITMAP
46
5C
44
DF
44
5F
51
5F
ENDCHAR
STARTCHAR uni4F79
ENCODING 20345
SWIDTH 1000 0
DWIDTH 9 0
BBX 8 8 0 -1
BITMAP
4E
52
7F
D0
5E
5A
59
6F
ENDCHAR
STARTCHAR uni4F7A
ENCODING 20346
SWIDTH 1000 0
DWIDTH 9 0
BBX 8 8 0 -1
BITMAP
5C
4A
D1
7F
44
5F
44
7F
ENDCHAR
STARTCHAR uni4F7B
ENCODING 20347
SWIDTH 1000 0
DWIDTH 9 0
BBX 8 8 0 -1
BITMAP
2A
4A
DB
4A
5B
4A
4A
53
ENDCHAR
STARTCHAR uni4F7C
ENCODING 20348
SWIDTH 1000 0
DWIDTH 9 0
BBX 8 8 0 -1
BITMAP
24
5F
8A
51
4A
44
4A
51
ENDCHAR
STARTCHAR uni4F7D
ENCODING 20349
SWIDTH 1000 0
DWIDTH 9 0
BBX 8 8 0 -1
BITMAP
48
6F
51
C4
54
64
4A
71
ENDCHAR
STARTCHAR uni4F7E
ENCODING 20350
SWIDTH 1000 0
DWIDTH 9 0
BBX 8 8 0 -1
BITMAP
54
63
DE
52
5E
52
5E
52
ENDCHAR
STARTCHAR uni4F7F
ENCODING 20351
SWIDTH 1000 0
DWIDTH 9 0
BBX 8 8 0 -1
BITMAP
44
5F
C4
5F
55
5F
4C
53
ENDCHAR
STARTCHAR uni4F80
ENCODING 20352
SWIDTH 1000 0
DWIDTH 9 0
BBX 8 8 0 -1
BITMAP
41
7F
D5
7F
55
55
65
45
ENDCHAR
STARTCHAR uni4F81
ENCODING 20353
SWIDTH 1000 0
DWIDTH 9 0
BBX 8 8 0 -1
BITMAP
54
5F
64
C4
7F
4C
55
67
ENDCHAR
STARTCHAR uni4F82
ENCODING 20354
SWIDTH 1000 0
DWIDTH 9 0
BBX 8 8 0 -1
BITMAP
44
5F
52
DC
57
5C
55
67
ENDCHAR
STARTCHAR uni4F83
ENCODING 20355
SWIDTH 1000 0
DWIDTH 9 0
BBX 8 8 0 -1
BITMAP
3E
52
D2
5E
40
5A
5A
6B
ENDCHAR
STARTCHAR uni4F84
ENCODING 20356
SWIDTH 1000 0
DWIDTH 9 0
BBX 8 8 0 -1
BITMAP
5F
44
CA
5D
44
5F
44
5F
ENDCHAR
STARTCHAR uni4F85
ENCODING 20357
SWIDTH 1000 0
DWIDTH 9 0
BBX 8 8 0 -1
BITMAP
24
5F
48
DE
45
5A
46
59
ENDCHAR
STARTCHAR uni4F86
ENCODING 20358
SWIDTH 1000 0
DWIDTH 9 0
BBX 8 8 0 -1
BITMAP
10
FF
54
76
99
34
52
91
ENDCHAR
STARTCHAR uni4F87
ENCODING 20359
SWIDTH 1000 0
DWIDTH 9 0
BBX 8 8 0 -1
BITMAP
48
5F
48
DE
4A
5F
4D
53
ENDCHAR
STARTCHAR uni4F88
ENCODING 20360
SWIDTH 1000 0
DWIDTH 9 0
BBX 8 8 0 -1
BITMAP
4E
5A
C4
5B
45
5D
42
5C
ENDCHAR
STARTCHAR uni4F89
ENCODING 20361
SWIDTH 1000 0
DWIDTH 9 0
BBX 8 8 0 -1
BITMAP
24
5F
CA
5E
69
4E
42
46
ENDCHAR
STARTCHAR uni4F8B
ENCODING 20363
SWIDTH 1000 0
DWIDTH 9 0
BBX 8 8 0 -1
BITMAP
7D
51
DD
65
55
49
71
43
ENDCHAR
STARTCHAR uni4F8D
ENCODING 20365
SWIDTH 1000 0
DWIDTH 9 0
BBX 8 8 0 -1
BITMAP
24
4E
C4
5F
42
5F
4A
46
ENDCHAR
STARTCHAR uni4F8F
ENCODING 20367
SWIDTH 1000 0
DWIDTH 9 0
BBX 8 8 0 -1
BITMAP
24
54
DF
64
5F
4E
55
44
ENDCHAR
STARTCHAR uni4F90
ENCODING 20368
SWIDTH 1000 0
DWIDTH 9 0
BBX 8 8 0 -1
BITMAP
48
50
7F
D5
55
55
55
7F
ENDCHAR
STARTCHAR uni4F91
ENCODING 20369
SWIDTH 1000 0
DWIDTH 9 0
BBX 8 8 0 -1
BITMAP
28
7F
D2
7E
52
5E
52
52
ENDCHAR
STARTCHAR uni4F92
ENCODING 20370
SWIDTH 1000 0
DWIDTH 9 0
BBX 8 8 0 -1
BITMAP
48
5F
69
FF
4A
52
4C
73
ENDCHAR
STARTCHAR uni4F94
ENCODING 20372
SWIDTH 1000 0
DWIDTH 9 0
BBX 8 8 0 -1
BITMAP
24
4A
DD
54
5F
64
5F
44
ENDCHAR
STARTCHAR uni4F95
ENCODING 20373
SWIDTH 1000 0
DWIDTH 9 0
BBX 8 8 0 -1
BITMAP
5F
48
5F
D5
55
55
55
53
ENDCHAR
STARTCHAR uni4F96
ENCODING 20374
SWIDTH 1000 0
DWIDTH 9 0
BBX 8 8 0 -1
BITMAP
18
24
7E
81
7F
55
7F
55
ENDCHAR
STARTCHAR uni4F97
ENCODING 20375
SWIDTH 1000 0
DWIDTH 9 0
BBX 8 8 0 -1
BITMAP
5F
51
DF
51
5D
55
5D
51
ENDCHAR
STARTCHAR uni4F98
ENCODING 20376
SWIDTH 1000 0
DWIDTH 9 0
BBX 8 8 0 -1
BITMAP
48
7F
65
D8
4F
78
49
4F
ENDCHAR
STARTCHAR uni4F9A
ENCODING 20378
SWIDTH 1000 0
DWIDTH 9 0
BBX 8 8 0 -1
BITMAP
50
5F
61
DD
55
5D
5D
47
ENDCHAR
STARTCHAR uni4F9B
ENCODING 20379
SWIDTH 1000 0
DWIDTH 9 0
BBX 8 8 0 -1
BITMAP
52
7F
D2
52
7F
40
52
61
ENDCHAR
STARTCHAR uni4F9C
ENCODING 20380
SWIDTH 1000 0
DWIDTH 9 0
BBX 8 8 0 -1
BITMAP
44
5E
52
D6
7F
5A
52
66
ENDCHAR
STARTCHAR uni4F9D
ENCODING 20381
SWIDTH 1000 0
DWIDTH 9 0
BBX 8 8 0 -1
BITMAP
24
5F
C8
55
76
52
56
59
ENDCHAR
STARTCHAR uni4F9E
ENCODING 20382
SWIDTH 1000 0
DWIDTH 9 0
BBX 8 8 0 -1
BITMAP
50
57
7D
ED
6D
55
57
6C
ENDCHAR
STARTCHAR uni4FA0
ENCODING 20384
SWIDTH 1000 0
DWIDTH 9 0
BBX 8 8 0 -1
BITMAP
44
5F
D5
4E
7F
44
4A
51
ENDCHAR
STARTCHAR uni4FA1
ENCODING 20385
SWIDTH 1000 0
DWIDTH 9 0
BBX 8 8 0 -1
BITMAP
3F
54
D4
7F
55
55
55
7F
ENDCHAR
STARTCHAR uni4FA3
ENCODING 20387
SWIDTH 1000 0
DWIDTH 9 0
BBX 8 8 0 -1
BITMAP
20
3E
52
DE
40
5F
51
5F
ENDCHAR
STARTCHAR uni4FA5
ENCODING 20389
SWIDTH 1000 0
DWIDTH 9 0
BBX 8 8 0 -1
BITMAP
28
5F
C4
5A
7F
54
55
67
ENDCHAR
STARTCHAR uni4FA6
ENCODING 20390
SWIDTH 1000 0
DWIDTH 9 0
BBX 8 8 0 -1
BITMAP
47
44
DF
51
55
55
44
5B
ENDCHAR
STARTCHAR uni4FA7
ENCODING 20391
SWIDTH 1000 0
DWIDTH 9 0
BBX 8 8 0 -1
BITMAP
5D
55
D5
55
5D
5D
49
57
ENDCHAR
STARTCHAR uni4FA8
ENCODING 20392
SWIDTH 1000 0
DWIDTH 9 0
BBX 8 8 0 -1
BITMAP
43
4C
DF
4A
51
6A
4A
52
ENDCHAR
STARTCHAR uni4FA9
ENCODING 20393
SWIDTH 1000 0
DWIDTH 9 0
BBX 8 8 0 -1
BITMAP
24
4A
91
4E
40
5F
4A
5D
ENDCHAR
STARTCHAR uni4FAA
ENCODING 20394
SWIDTH 1000 0
DWIDTH 9 0
BBX 8 8 0 -1
BITMAP
24
5F
CA
44
5B
4A
4A
52
ENDCHAR
STARTCHAR uni4FAB
ENCODING 20395
SWIDTH 1000 0
DWIDTH 9 0
BBX 8 8 0 -1
BITMAP
24
5F
D0
5F
44
5F
4A
5F
ENDCHAR
STARTCHAR uni4FAC
ENCODING 20396
SWIDTH 1000 0
DWIDTH 9 0
BBX 8 8 0 -1
BITMAP
44
5F
A9
48
55
76
52
59
ENDCHAR
STARTCHAR uni4FAD
ENCODING 20397
SWIDTH 1000 0
DWIDTH 9 0
BBX 8 8 0 -1
BITMAP
3F
51
DF
52
52
65
40
44
ENDCHAR
STARTCHAR uni4FAE
ENCODING 20398
SWIDTH 1000 0
DWIDTH 9 0
BBX 8 8 0 -1
BITMAP
50
5F
E0
5F
55
7F
55
5F
ENDCHAR
STARTCHAR uni4FAF
ENCODING 20399
SWIDTH 1000 0
DWIDTH 9 0
BBX 8 8 0 -1
BITMAP
2E
42
DF
50
5F
64
5F
4A
ENDCHAR
STARTCHAR uni4FB2
ENCODING 20402
SWIDTH 1000 0
DWIDTH 9 0
BBX 8 8 0 -1
BITMAP
5F
50
5F
D0
5F
55
56
6D
ENDCHAR
STARTCHAR uni4FB3
ENCODING 20403
SWIDTH 1000 0
DWIDTH 9 0
BBX 8 8 0 -1
BITMAP
44
55
D6
6D
44
7F
44
7F
ENDCHAR
STARTCHAR uni4FB5
ENCODING 20405
SWIDTH 1000 0
DWIDTH 9 0
BBX 8 8 0 -1
BITMAP
4E
42
DF
42
5F
6B
44
5B
ENDCHAR
STARTCHAR uni4FB6
ENCODING 20406
SWIDTH 1000 0
DWIDTH 9 0
BBX 8 8 0 -1
BITMAP
5E
52
5E
C8
5F
51
51
5F
ENDCHAR
STARTCHAR uni4FB7
ENCODING 20407
SWIDTH 1000 0
DWIDTH 9 0
BBX 8 8 0 -1
BITMAP
5E
52
5F
D1
5D
55
5D
67
ENDCHAR
STARTCHAR uni4FB9
ENCODING 20409
SWIDTH 1000 0
DWIDTH 9 0
BBX 8 8 0 -1
BITMAP
47
72
57
FA
52
77
50
6F
ENDCHAR
STARTCHAR uni4FBA
ENCODING 20410
SWIDTH 1000 0
DWIDTH 9 0
BBX 8 8 0 -1
BITMAP
44
55
5F
CA
75
5E
42
44
ENDCHAR
STARTCHAR uni4FBB
ENCODING 20411
SWIDTH 1000 0
DWIDTH 9 0
BBX 8 8 0 -1
BITMAP
52
54
5E
D2
5E
4C
55
67
ENDCHAR
STARTCHAR uni4FBF
ENCODING 20415
SWIDTH 1000 0
DWIDTH 9 0
BBX 8 8 0 -1
BITMAP
7F
55
DF
55
5F
54
4C
5B
ENDCHAR
STARTCHAR uni4FC0
ENCODING 20416
SWIDTH 1000 0
DWIDTH 9 0
BBX 8 8 0 -1
BITMAP
47
5C
55
CA
7F
52
4C
73
ENDCHAR
STARTCHAR uni4FC1
ENCODING 20417
SWIDTH 1000 0
DWIDTH 9 0
BBX 8 8 0 -1
BITMAP
4E
5A
5A
DE
4A
7F
54
63
ENDCHAR
STARTCHAR uni4FC2
ENCODING 20418
SWIDTH 1000 0
DWIDTH 9 0
BBX 8 8 0 -1
BITMAP
5F
4A
5C
CA
5F
45
56
65
ENDCHAR
STARTCHAR uni4FC3
ENCODING 20419
SWIDTH 1000 0
DWIDTH 9 0
BBX 8 8 0 -1
BITMAP
5E
52
DE
44
57
54
5C
67
ENDCHAR
STARTCHAR uni4FC4
ENCODING 20420
SWIDTH 1000 0
DWIDTH 9 0
BBX 8 8 0 -1
BITMAP
4E
75
BF
54
5D
76
52
75
ENDCHAR
STARTCHAR uni4FC5
ENCODING 20421
SWIDTH 1000 0
DWIDTH 9 0
BBX 8 8 0 -1
BITMAP
25
5F
C4
55
4E
55
45
4C
ENDCHAR
STARTCHAR uni4FC7
ENCODING 20423
SWIDTH 1000 0
DWIDTH 9 0
BBX 8 8 0 -1
BITMAP
6F
52
52
EF
5A
6A
4A
77
ENDCHAR
STARTCHAR uni4FC9
ENCODING 20425
SWIDTH 1000 0
DWIDTH 9 0
BBX 8 8 0 -1
BITMAP
5F
48
5E
CA
7F
5E
52
5E
ENDCHAR
STARTCHAR uni4FCA
ENCODING 20426
SWIDTH 1000 0
DWIDTH 9 0
BBX 8 8 0 -1
BITMAP
24
4A
DD
52
6F
5A
44
5B
ENDCHAR
STARTCHAR uni4FCB
ENCODING 20427
SWIDTH 1000 0
DWIDTH 9 0
BBX 8 8 0 -1
BITMAP
5E
52
5F
D5
5F
50
51
5F
ENDCHAR
STARTCHAR uni4FCD
ENCODING 20429
SWIDTH 1000 0
DWIDTH 9 0
BBX 8 8 0 -1
BITMAP
44
5E
52
DE
52
5F
54
5B
ENDCHAR
STARTCHAR uni4FCE
ENCODING 20430
SWIDTH 1000 0
DWIDTH 9 0
BBX 8 8 0 -1
BITMAP
5E
52
BE
12
5E
52
B2
BF
ENDCHAR
STARTCHAR uni4FCF
ENCODING 20431
SWIDTH 1000 0
DWIDTH 9 0
BBX 8 8 0 -1
BITMAP
55
4E
DF
51
5F
51
5F
51
ENDCHAR
STARTCHAR uni4FD0
ENCODING 20432
SWIDTH 1000 0
DWIDTH 9 0
BBX 8 8 0 -1
BITMAP
45
59
C9
7F
5B
5F
69
4B
ENDCHAR
STARTCHAR uni4FD1
ENCODING 20433
SWIDTH 1000 0
DWIDTH 9 0
BBX 8 8 0 -1
BITMAP
5F
4A
DF
55
5F
55
5F
55
ENDCHAR
STARTCHAR uni4FD3
ENCODING 20435
SWIDTH 1000 0
DWIDTH 9 0
BBX 8 8 0 -1
BITMAP
5F
4A
55
CA
40
5F
44
7F
ENDCHAR
STARTCHAR uni4FD4
ENCODING 20436
SWIDTH 1000 0
DWIDTH 9 0
BBX 8 8 0 -1
BITMAP
5E
52
5E
D2
5E
54
55
67
ENDCHAR
STARTCHAR uni4FD6
ENCODING 20438
SWIDTH 1000 0
DWIDTH 9 0
BBX 8 8 0 -1
BITMAP
5F
44
4E
D5
44
5E
52
5E
ENDCHAR
STARTCHAR uni4FD7
ENCODING 20439
SWIDTH 1000 0
DWIDTH 9 0
BBX 8 8 0 -1
BITMAP
2A
55
CA
51
7F
52
52
5E
ENDCHAR
STARTCHAR uni4FD8
ENCODING 20440
SWIDTH 1000 0
DWIDTH 9 0
BBX 8 8 0 -1
BITMAP
47
5D
CA
5F
42
5F
44
4C
ENDCHAR
STARTCHAR uni4FD9
ENCODING 20441
SWIDTH 1000 0
DWIDTH 9 0
BBX 8 8 0 -1
BITMAP
57
4A
7F
D4
5F
75
57
44
ENDCHAR
STARTCHAR uni4FDA
ENCODING 20442
SWIDTH 1000 0
DWIDTH 9 0
BBX 8 8 0 -1
BITMAP
5F
55
DF
55
4E
5F
44
5F
ENDCHAR
STARTCHAR uni4FDB
ENCODING 20443
SWIDTH 1000 0
DWIDTH 9 0
BBX 8 8 0 -1
BITMAP
4E
54
7F
D5
5F
54
55
67
ENDCHAR
STARTCHAR uni4FDC
ENCODING 20444
SWIDTH 1000 0
DWIDTH 9 0
BBX 8 8 0 -1
BITMAP
24
5F
D5
55
7F
48
4F
41
ENDCHAR
STARTCHAR uni4FDD
ENCODING 20445
SWIDTH 1000 0
DWIDTH 9 0
BBX 8 8 0 -1
BITMAP
5F
51
DF
44
5F
4E
55
65
ENDCHAR
STARTCHAR uni4FDE
ENCODING 20446
SWIDTH 1000 0
DWIDTH 9 0
BBX 8 8 0 -1
BITMAP
18
24
DB
75
55
75
51
53
ENDCHAR
STARTCHAR uni4FDF
ENCODING 20447
SWIDTH 1000 0
DWIDTH 9 0
BBX 8 8 0 -1
BITMAP
2A
5D
C8
4F
54
5F
4A
51
ENDCHAR
STARTCHAR uni4FE0
ENCODING 20448
SWIDTH 1000 0
DWIDTH 9 0
BBX 8 8 0 -1
BITMAP
44
7F
55
D6
6D
44
4A
51
ENDCHAR
STARTCHAR uni4FE1
ENCODING 20449
SWIDTH 1000 0
DWIDTH 9 0
BBX 8 8 0 -1
BITMAP
44
5F
C0
5F
40
5F
51
5F
ENDCHAR
STARTCHAR uni4FE3
ENCODING 20451
SWIDTH 1000 0
DWIDTH 9 0
BBX 8 8 0 -1
BITMAP
5F
51
DF
40
5F
44
5F
4A
ENDCHAR
STARTCHAR uni4FE4
ENCODING 20452
SWIDTH 1000 0
DWIDTH 9 0
BBX 8 8 0 -1
BITMAP
2A
5F
C5
5F
54
5F
4D
55
ENDCHAR
STARTCHAR uni4FE5
ENCODING 20453
SWIDTH 1000 0
DWIDTH 9 0
BBX 8 8 0 -1
BITMAP
3F
44
DF
55
5F
44
5F
44
ENDCHAR
STARTCHAR uni4FE6
ENCODING 20454
SWIDTH 1000 0
DWIDTH 9 0
BBX 8 8 0 -1
BITMAP
24
5F
C8
7F
52
5F
6A
46
ENDCHAR
STARTCHAR uni4FE8
ENCODING 20456
SWIDTH 1000 0
DWIDTH 9 0
BBX 8 8 0 -1
BITMAP
5F
6A
9B
5F
50
50
50
60
ENDCHAR
STARTCHAR uni4FE9
ENCODING 20457
SWIDTH 1000 0
DWIDTH 9 0
BBX 8 8 0 -1
BITMAP
7F
54
FF
55
55
6B
41
43
ENDCHAR
STARTCHAR uni4FEA
ENCODING 20458
SWIDTH 1000 0
DWIDTH 9 0
BBX 8 8 0 -1
BITMAP
5F
40
DB
55
5F
55
55
53
ENDCHAR
STARTCHAR uni4FEC
ENCODING 20460
SWIDTH 1000 0
DWIDTH 9 0
BBX 8 8 0 -1
BITMAP
7A
52
7A
D2
54
75
57
5D
ENDCHAR
STARTCHAR uni4FED
ENCODING 20461
SWIDTH 1000 0
DWIDTH 9 0
BBX 8 8 0 -1
BITMAP
24
4A
F1
4E
40
55
4A
7F
ENDCHAR
STARTCHAR uni4FEE
ENCODING 20462
SWIDTH 1000 0
DWIDTH 9 0
BBX 8 8 0 -1
BITMAP
28
5F
CA
66
79
64
6B
5C
ENDCHAR
STARTCHAR uni4FEF
ENCODING 20463
SWIDTH 1000 0
DWIDTH 9 0
BBX 8 8 0 -1
BITMAP
44
5F
D2
5F
5A
56
52
66
ENDCHAR
STARTCHAR uni4FF1
ENCODING 20465
SWIDTH 1000 0
DWIDTH 9 0
BBX 8 8 0 -1
BITMAP
5E
52
DE
52
5E
52
7F
52
ENDCHAR
STARTCHAR uni4FF3
ENCODING 20467
SWIDTH 1000 0
DWIDTH 9 0
BBX 8 8 0 -1
BITMAP
4A
5B
CA
5B
4A
5B
4A
4A
ENDCHAR
STARTCHAR uni4FF4
ENCODING 20468
SWIDTH 1000 0
DWIDTH 9 0
BBX 8 8 0 -1
BITMAP
4A
5F
45
DB
48
5F
45
5B
ENDCHAR
STARTCHAR uni4FF5
ENCODING 20469
SWIDTH 1000 0
DWIDTH 9 0
BBX 8 8 0 -1
BITMAP
48
5E
C8
7F
48
75
5A
71
ENDCHAR
STARTCHAR uni4FF6
ENCODING 20470
SWIDTH 1000 0
DWIDTH 9 0
BBX 8 8 0 -1
BITMAP
50
5F
55
FD
52
7A
55
79
ENDCHAR
STARTCHAR uni4FF7
ENCODING 20471
SWIDTH 1000 0
DWIDTH 9 0
BBX 8 8 0 -1
BITMAP
5F
55
5D
D7
5C
54
55
67
ENDCHAR
STARTCHAR uni4FF8
ENCODING 20472
SWIDTH 1000 0
DWIDTH 9 0
BBX 8 8 0 -1
BITMAP
44
5F
C4
5F
4A
55
5F
44
ENDCHAR
STARTCHAR uni4FFA
ENCODING 20474
SWIDTH 1000 0
DWIDTH 9 0
BBX 8 8 0 -1
BITMAP
48
7F
AA
7D
6A
7E
49
4F
ENDCHAR
STARTCHAR uni4FFE
ENCODING 20478
SWIDTH 1000 0
DWIDTH 9 0
BBX 8 8 0 -1
BITMAP
48
5F
D5
5F
55
4A
5F
42
ENDCHAR
STARTCHAR uni5000
ENCODING 20480
SWIDTH 1000 0
DWIDTH 9 0
BBX 8 8 0 -1
BITMAP
5F
50
5E
D0
7F
55
52
79
ENDCHAR
STARTCHAR uni5005
ENCODING 20485
SWIDTH 1000 0
DWIDTH 9 0
BBX 8 8 0 -1
BITMAP
44
7F
52
DB
64
5F
44
44
ENDCHAR
STARTCHAR uni5006
ENCODING 20486
SWIDTH 1000 0
DWIDTH 9 0
BBX 8 8 0 -1
BITMAP
5F
44
5F
D5
57
5D
55
53
ENDCHAR
STARTCHAR uni5007
ENCODING 20487
SWIDTH 1000 0
DWIDTH 9 0
BBX 8 8 0 -1
BITMAP
44
5F
71
DF
6D
57
54
67
ENDCHAR
STARTCHAR uni5009
ENCODING 20489
SWIDTH 1000 0
DWIDTH 9 0
BBX 8 8 0 -1
BITMAP
18
24
7F
A2
3E
22
62
BE
ENDCHAR
STARTCHAR uni500B
ENCODING 20491
SWIDTH 1000 0
DWIDTH 9 0
BBX 8 8 0 -1
BITMAP
5F
55
5F
D5
5B
5F
51
5F
ENDCHAR
STARTCHAR uni500C
ENCODING 20492
SWIDTH 1000 0
DWIDTH 9 0
BBX 8 8 0 -1
BITMAP
44
7F
E1
5E
52
5C
52
5E
ENDCHAR
STARTCHAR uni500D
ENCODING 20493
SWIDTH 1000 0
DWIDTH 9 0
BBX 8 8 0 -1
BITMAP
48
7F
D2
7F
40
5E
52
5E
ENDCHAR
STARTCHAR uni500E
ENCODING 20494
SWIDTH 1000 0
DWIDTH 9 0
BBX 8 8 0 -1
BITMAP
4A
5F
55
DF
55
7F
52
61
ENDCHAR
STARTCHAR uni500F
ENCODING 20495
SWIDTH 1000 0
DWIDTH 9 0
BBX 8 8 0 -1
BITMAP
4F
5A
E4
7B
64
5F
44
5B
ENDCHAR
STARTCHAR uni5011
ENCODING 20497
SWIDTH 1000 0
DWIDTH 9 0
BBX 8 8 0 -1
BITMAP
5F
55
5F
D1
51
51
51
53
ENDCHAR
STARTCHAR uni5012
ENCODING 20498
SWIDTH 1000 0
DWIDTH 9 0
BBX 8 8 0 -1
BITMAP
5D
49
D7
4B
5F
49
5D
43
ENDCHAR
STARTCHAR uni5013
ENCODING 20499
SWIDTH 1000 0
DWIDTH 9 0
BBX 8 8 0 -1
BITMAP
25
56
4A
D1
4A
6C
4A
71
ENDCHAR
STARTCHAR uni5014
ENCODING 20500
SWIDTH 1000 0
DWIDTH 9 0
BBX 8 8 0 -1
BITMAP
5F
51
DF
54
55
5E
55
6F
ENDCHAR
STARTCHAR uni5015
ENCODING 20501
SWIDTH 1000 0
DWIDTH 9 0
BBX 8 8 0 -1
BITMAP
44
58
7F
DA
7F
5A
5C
7F
ENDCHAR
STARTCHAR uni5016
ENCODING 20502
SWIDTH 1000 0
DWIDTH 9 0
BBX 8 8 0 -1
BITMAP
44
5F
C4
7F
52
7F
44
44
ENDCHAR
STARTCHAR uni5017
ENCODING 20503
SWIDTH 1000 0
DWIDTH 9 0
BBX 8 8 0 -1
BITMAP
5F
55
57
DD
57
5D
55
65
ENDCHAR
STARTCHAR uni5018
ENCODING 20504
SWIDTH 1000 0
DWIDTH 9 0
BBX 8 8 0 -1
BITMAP
55
4E
DF
51
5D
55
5D
53
ENDCHAR
STARTCHAR uni5019
ENCODING 20505
SWIDTH 1000 0
DWIDTH 9 0
BBX 8 8 0 -1
BITMAP
2E
42
7F
E8
6F
54
5F
4A
ENDCHAR
STARTCHAR uni501A
ENCODING 20506
SWIDTH 1000 0
DWIDTH 9 0
BBX 8 8 0 -1
BITMAP
48
7F
D4
7F
5A
56
5A
46
ENDCHAR
STARTCHAR uni501B
ENCODING 20507
SWIDTH 1000 0
DWIDTH 9 0
BBX 8 8 0 -1
BITMAP
52
7F
52
DE
52
7F
4A
71
ENDCHAR
STARTCHAR uni501C
ENCODING 20508
SWIDTH 1000 0
DWIDTH 9 0
BBX 8 8 0 -1
BITMAP
5F
55
DF
55
57
5B
57
61
ENDCHAR
STARTCHAR uni501E
ENCODING 20510
SWIDTH 1000 0
DWIDTH 9 0
BBX 8 8 0 -1
BITMAP
44
7F
5E
D2
5E
56
65
4C
ENDCHAR
STARTCHAR uni501F
ENCODING 20511
SWIDTH 1000 0
DWIDTH 9 0
BBX 8 8 0 -1
BITMAP
52
7F
D2
7F
52
5E
52
5E
ENDCHAR
STARTCHAR uni5020
ENCODING 20512
SWIDTH 1000 0
DWIDTH 9 0
BBX 8 8 0 -1
BITMAP
54
5F
74
DF
54
5F
54
5F
ENDCHAR
STARTCHAR uni5021
ENCODING 20513
SWIDTH 1000 0
DWIDTH 9 0
BBX 8 8 0 -1
BITMAP
4E
4A
CA
5F
51
5F
51
5F
ENDCHAR
STARTCHAR uni5022
ENCODING 20514
SWIDTH 1000 0
DWIDTH 9 0
BBX 8 8 0 -1
BITMAP
48
5E
4B
BE
48
5E
58
67
ENDCHAR
STARTCHAR uni5023
ENCODING 20515
SWIDTH 1000 0
DWIDTH 9 0
BBX 8 8 0 -1
BITMAP
54
7F
D5
7D
56
5A
6A
55
ENDCHAR
STARTCHAR uni5024
ENCODING 20516
SWIDTH 1000 0
DWIDTH 9 0
BBX 8 8 0 -1
BITMAP
22
4F
C2
57
55
57
55
5F
ENDCHAR
STARTCHAR uni5025
ENCODING 20517
SWIDTH 1000 0
DWIDTH 9 0
BBX 8 8 0 -1
BITMAP
24
5F
D5
4A
5F
44
44
5F
ENDCHAR
STARTCHAR uni5026
ENCODING 20518
SWIDTH 1000 0
DWIDTH 9 0
BBX 8 8 0 -1
BITMAP
55
7F
C4
7F
4A
7D
4A
4F
ENDCHAR
STARTCHAR uni5027
ENCODING 20519
SWIDTH 1000 0
DWIDTH 9 0
BBX 8 8 0 -1
BITMAP
44
5F
51
DE
40
5F
56
6D
ENDCHAR
STARTCHAR uni5028
ENCODING 20520
SWIDTH 1000 0
DWIDTH 9 0
BBX 8 8 0 -1
BITMAP
5F
51
DF
54
5F
56
59
6F
ENDCHAR
STARTCHAR uni5029
ENCODING 20521
SWIDTH 1000 0
DWIDTH 9 0
BBX 8 8 0 -1
BITMAP
44
5F
C4
5F
4A
4E
4A
4A
ENDCHAR
STARTCHAR uni502A
ENCODING 20522
SWIDTH 1000 0
DWIDTH 9 0
BBX 8 8 0 -1
BITMAP
4B
51
DB
51
5F
4C
4D
57
ENDCHAR
STARTCHAR uni502B
ENCODING 20523
SWIDTH 1000 0
DWIDTH 9 0
BBX 8 8 0 -1
BITMAP
4C
52
7F
C0
5F
55
5F
55
ENDCHAR
STARTCHAR uni502C
ENCODING 20524
SWIDTH 1000 0
DWIDTH 9 0
BBX 8 8 0 -1
BITMAP
27
44
DF
51
5F
51
7F
44
ENDCHAR
STARTCHAR uni502D
ENCODING 20525
SWIDTH 1000 0
DWIDTH 9 0
BBX 8 8 0 -1
BITMAP
42
4C
DF
4E
55
4A
44
5B
ENDCHAR
STARTCHAR uni502E
ENCODING 20526
SWIDTH 1000 0
DWIDTH 9 0
BBX 8 8 0 -1
BITMAP
5F
55
DF
55
7F
4E
55
65
ENDCHAR
STARTCHAR uni502F
ENCODING 20527
SWIDTH 1000 0
DWIDTH 9 0
BBX 8 8 0 -1
BITMAP
56
55
7D
D9
74
55
57
5D
ENDCHAR
STARTCHAR uni5030
ENCODING 20528
SWIDTH 1000 0
DWIDTH 9 0
BBX 8 8 0 -1
BITMAP
48
5E
48
BF
52
7D
54
6B
ENDCHAR
STARTCHAR uni5031
ENCODING 20529
SWIDTH 1000 0
DWIDTH 9 0
BBX 8 8 0 -1
BITMAP
5E
52
5E
C0
55
5E
55
7B
ENDCHAR
STARTCHAR uni5033
ENCODING 20531
SWIDTH 1000 0
DWIDTH 9 0
BBX 8 8 0 -1
BITMAP
48
7F
5A
FC
4B
7E
48
58
ENDCHAR
STARTCHAR uni5035
ENCODING 20533
SWIDTH 1000 0
DWIDTH 9 0
BBX 8 8 0 -1
BITMAP
5B
42
7F
D2
5A
52
5E
71
ENDCHAR
STARTCHAR uni5036
ENCODING 20534
SWIDTH 1000 0
DWIDTH 9 0
BBX 8 8 0 -1
BITMAP
3E
52
DE
52
52
7F
52
61
ENDCHAR
STARTCHAR uni5037
ENCODING 20535
SWIDTH 1000 0
DWIDTH 9 0
BBX 8 8 0 -1
BITMAP
48
7F
52
ED
40
7F
55
6C
ENDCHAR
STARTCHAR uni5039
ENCODING 20537
SWIDTH 1000 0
DWIDTH 9 0
BBX 8 8 0 -1
BITMAP
24
4A
D5
7F
55
5F
4A
51
ENDCHAR
STARTCHAR uni503A
ENCODING 20538
SWIDTH 1000 0
DWIDTH 9 0
BBX 8 8 0 -1
BITMAP
48
7F
DE
7F
52
5A
4C
52
ENDCHAR
STARTCHAR uni503C
ENCODING 20540
SWIDTH 1000 0
DWIDTH 9 0
BBX 8 8 0 -1
BITMAP
48
7F
C8
5E
52
5E
52
7F
ENDCHAR
STARTCHAR uni503E
ENCODING 20542
SWIDTH 1000 0
DWIDTH 9 0
BBX 8 8 0 -1
BITMAP
57
5A
D7
55
55
5D
52
45
ENDCHAR
STARTCHAR uni5040
ENCODING 20544
SWIDTH 1000 0
DWIDTH 9 0
BBX 8 8 0 -1
BITMAP
4A
5F
4A
DF
55
7F
4A
71
ENDCHAR
STARTCHAR uni5041
ENCODING 20545
SWIDTH 1000 0
DWIDTH 9 0
BBX 8 8 0 -1
BITMAP
46
5D
4A
DF
55
7F
51
53
ENDCHAR
STARTCHAR uni5043
ENCODING 20547
SWIDTH 1000 0
DWIDTH 9 0
BBX 8 8 0 -1
BITMAP
3F
52
DE
52
5E
5A
54
5F
ENDCHAR
STARTCHAR uni5045
ENCODING 20549
SWIDTH 1000 0
DWIDTH 9 0
BBX 8 8 0 -1
BITMAP
42
4C
7F
EA
7E
6A
5C
7F
ENDCHAR
STARTCHAR uni5046
ENCODING 20550
SWIDTH 1000 0
DWIDTH 9 0
BBX 8 8 0 -1
BITMAP
44
5F
4A
FF
52
7F
52
5E
ENDCHAR
STARTCHAR uni5047
ENCODING 20551
SWIDTH 1000 0
DWIDTH 9 0
BBX 8 8 0 -1
BITMAP
5B
55
9B
50
5F
55
5A
55
ENDCHAR
STARTCHAR uni5048
ENCODING 20552
SWIDTH 1000 0
DWIDTH 9 0
BBX 8 8 0 -1
BITMAP
5E
52
9E
52
4F
75
5B
5D
ENDCHAR
STARTCHAR uni5049
ENCODING 20553
SWIDTH 1000 0
DWIDTH 9 0
BBX 8 8 0 -1
BITMAP
5E
4A
7F
D2
5E
54
7F
44
ENDCHAR
STARTCHAR uni504A
ENCODING 20554
SWIDTH 1000 0
DWIDTH 9 0
BBX 8 8 0 -1
BITMAP
42
4C
7F
D5
4E
55
5D
53
ENDCHAR
STARTCHAR uni504B
ENCODING 20555
SWIDTH 1000 0
DWIDTH 9 0
BBX 8 8 0 -1
BITMAP
5F
51
5F
D2
5F
6A
7F
6A
ENDCHAR
STARTCHAR uni504C
ENCODING 20556
SWIDTH 1000 0
DWIDTH 9 0
BBX 8 8 0 -1
BITMAP
4A
5F
84
5F
48
5F
69
4F
ENDCHAR
STARTCHAR uni504D
ENCODING 20557
SWIDTH 1000 0
DWIDTH 9 0
BBX 8 8 0 -1
BITMAP
5E
52
5E
D2
7F
56
54
6F
ENDCHAR
STARTCHAR uni504E
ENCODING 20558
SWIDTH 1000 0
DWIDTH 9 0
BBX 8 8 0 -1
BITMAP
5F
55
DF
55
7F
55
56
59
ENDCHAR
STARTCHAR uni504F
ENCODING 20559
SWIDTH 1000 0
DWIDTH 9 0
BBX 8 8 0 -1
BITMAP
44
5F
D1
5E
55
5F
55
65
ENDCHAR
STARTCHAR uni5050
ENCODING 20560
SWIDTH 1000 0
DWIDTH 9 0
BBX 8 8 0 -1
BITMAP
24
5F
CA
5F
51
56
51
6E
ENDCHAR
STARTCHAR uni5051
ENCODING 20561
SWIDTH 1000 0
DWIDTH 9 0
BBX 8 8 0 -1
BITMAP
5E
52
5E
D6
5E
55
5F
61
ENDCHAR
STARTCHAR uni5053
ENCODING 20563
SWIDTH 1000 0
DWIDTH 9 0
BBX 8 8 0 -1
BITMAP
5F
51
5F
D4
59
5E
54
7F
ENDCHAR
STARTCHAR uni5055
ENCODING 20565
SWIDTH 1000 0
DWIDTH 9 0
BBX 8 8 0 -1
BITMAP
35
5E
D5
5F
52
5E
52
5E
ENDCHAR
STARTCHAR uni5056
ENCODING 20566
SWIDTH 1000 0
DWIDTH 9 0
BBX 8 8 0 -1
BITMAP
29
5E
CA
7F
4A
5F
69
4F
ENDCHAR
STARTCHAR uni5057
ENCODING 20567
SWIDTH 1000 0
DWIDTH 9 0
BBX 8 8 0 -1
BITMAP
44
56
55
DE
72
5E
52
5E
ENDCHAR
STARTCHAR uni505A
ENCODING 20570
SWIDTH 1000 0
DWIDTH 9 0
BBX 8 8 0 -1
BITMAP
52
7B
D5
55
7A
6A
7D
45
ENDCHAR
STARTCHAR uni505B
ENCODING 20571
SWIDTH 1000 0
DWIDTH 9 0
BBX 8 8 0 -1
BITMAP
5E
44
7F
CE
55
5F
55
5F
ENDCHAR
STARTCHAR uni505C
ENCODING 20572
SWIDTH 1000 0
DWIDTH 9 0
BBX 8 8 0 -1
BITMAP
44
5F
CA
7F
61
5F
44
4C
ENDCHAR
STARTCHAR uni505D
ENCODING 20573
SWIDTH 1000 0
DWIDTH 9 0
BBX 8 8 0 -1
BITMAP
55
76
55
F7
5E
52
5E
52
ENDCHAR
STARTCHAR uni505E
ENCODING 20574
SWIDTH 1000 0
DWIDTH 9 0
BBX 8 8 0 -1
BITMAP
54
7F
54
DF
48
7F
5A
69
ENDCHAR
STARTCHAR uni505F
ENCODING 20575
SWIDTH 1000 0
DWIDTH 9 0
BBX 8 8 0 -1
BITMAP
48
5E
52
DE
52
7F
44
7F
ENDCHAR
STARTCHAR uni5060
ENCODING 20576
SWIDTH 1000 0
DWIDTH 9 0
BBX 8 8 0 -1
BITMAP
7F
4A
5F
D5
7F
5A
4C
7B
ENDCHAR
STARTCHAR uni5061
ENCODING 20577
SWIDTH 1000 0
DWIDTH 9 0
BBX 8 8 0 -1
BITMAP
52
7F
52
9E
52
7F
56
5F
ENDCHAR
STARTCHAR uni5062
ENCODING 20578
SWIDTH 1000 0
DWIDTH 9 0
BBX 8 8 0 -1
BITMAP
7A
52
7B
D6
7A
72
55
59
ENDCHAR
STARTCHAR uni5063
ENCODING 20579
SWIDTH 1000 0
DWIDTH 9 0
BBX 8 8 0 -1
BITMAP
48
5F
4A
FF
52
5E
52
5E
ENDCHAR
STARTCHAR uni5064
ENCODING 20580
SWIDTH 1000 0
DWIDTH 9 0
BBX 8 8 0 -1
BITMAP
4A
7F
44
DF
55
5F
51
5F
ENDCHAR
STARTCHAR uni5065
ENCODING 20581
SWIDTH 1000 0
DWIDTH 9 0
BBX 8 8 0 -1
BITMAP
44
7F
D5
6F
55
7F
54
6F
ENDCHAR
STARTCHAR uni5068
ENCODING 20584
SWIDTH 1000 0
DWIDTH 9 0
BBX 8 8 0 -1
BITMAP
55
5E
D5
7F
48
7F
5A
69
ENDCHAR
STARTCHAR uni5069
ENCODING 20585
SWIDTH 1000 0
DWIDTH 9 0
BBX 8 8 0 -1
BITMAP
4E
54
7F
D1
5F
51
5F
71
ENDCHAR
STARTCHAR uni506A
ENCODING 20586
SWIDTH 1000 0
DWIDTH 9 0
BBX 8 8 0 -1
BITMAP
7F
5E
52
DF
55
5F
55
5F
ENDCHAR
STARTCHAR uni506B
ENCODING 20587
SWIDTH 1000 0
DWIDTH 9 0
BBX 8 8 0 -1
BITMAP
57
62
4F
D2
7F
52
5A
56
ENDCHAR
STARTCHAR uni506C
ENCODING 20588
SWIDTH 1000 0
DWIDTH 9 0
BBX 8 8 0 -1
BITMAP
50
5F
FB
4D
57
4A
71
5F
ENDCHAR
STARTCHAR uni506D
ENCODING 20589
SWIDTH 1000 0
DWIDTH 9 0
BBX 8 8 0 -1
BITMAP
5F
44
5F
D5
57
55
55
5F
ENDCHAR
STARTCHAR uni506E
ENCODING 20590
SWIDTH 1000 0
DWIDTH 9 0
BBX 8 8 0 -1
BITMAP
5E
52
7F
D2
5E
52
7F
42
ENDCHAR
STARTCHAR uni506F
ENCODING 20591
SWIDTH 1000 0
DWIDTH 9 0
BBX 8 8 0 -1
BITMAP
44
7F
5E
D2
5E
55
72
59
ENDCHAR
STARTCHAR uni5070
ENCODING 20592
SWIDTH 1000 0
DWIDTH 9 0
BBX 8 8 0 -1
BITMAP
57
7D
55
FD
52
7F
4C
73
ENDCHAR
STARTCHAR uni5072
ENCODING 20594
SWIDTH 1000 0
DWIDTH 9 0
BBX 8 8 0 -1
BITMAP
5F
55
5F
D5
5F
4A
59
6F
ENDCHAR
STARTCHAR uni5073
ENCODING 20595
SWIDTH 1000 0
DWIDTH 9 0
BBX 8 8 0 -1
BITMAP
55
5F
40
DF
48
5F
55
55
ENDCHAR
STARTCHAR uni5074
ENCODING 20596
SWIDTH 1000 0
DWIDTH 9 0
BBX 8 8 0 -1
BITMAP
5D
55
5D
D5
55
5D
49
57
ENDCHAR
STARTCHAR uni5075
ENCODING 20597
SWIDTH 1000 0
DWIDTH 9 0
BBX 8 8 0 -1
BITMAP
27
44
5F
D1
5F
51
5F
71
ENDCHAR
STARTCHAR uni5076
ENCODING 20598
SWIDTH 1000 0
DWIDTH 9 0
BBX 8 8 0 -1
BITMAP
5F
55
9F
55
7F
65
6F
63
ENDCHAR
STARTCHAR uni5077
ENCODING 20599
SWIDTH 1000 0
DWIDTH 9 0
BBX 8 8 0 -1
BITMAP
24
4B
FE
55
5D
55
5D
57
ENDCHAR
STARTCHAR uni5078
ENCODING 20600
SWIDTH 1000 0
DWIDTH 9 0
BBX 8 8 0 -1
BITMAP
24
4A
D5
7D
55
5E
55
55
ENDCHAR
STARTCHAR uni507A
ENCODING 20602
SWIDTH 1000 0
DWIDTH 9 0
BBX 8 8 0 -1
BITMAP
52
5A
ED
58
67
5E
52
5E
ENDCHAR
STARTCHAR uni507B
ENCODING 20603
SWIDTH 1000 0
DWIDTH 9 0
BBX 8 8 0 -1
BITMAP
6A
7F
DC
6A
7F
52
4C
52
ENDCHAR
STARTCHAR uni507D
ENCODING 20605
SWIDTH 1000 0
DWIDTH 9 0
BBX 8 8 0 -1
BITMAP
54
5E
4A
DF
51
7F
41
55
ENDCHAR
STARTCHAR uni507E
ENCODING 20606
SWIDTH 1000 0
DWIDTH 9 0
BBX 8 8 0 -1
BITMAP
44
7F
D5
7F
51
55
44
5B
ENDCHAR
STARTCHAR uni507F
ENCODING 20607
SWIDTH 1000 0
DWIDTH 9 0
BBX 8 8 0 -1
BITMAP
55
7F
E1
5E
40
7F
4A
5D
ENDCHAR
STARTCHAR uni5080
ENCODING 20608
SWIDTH 1000 0
DWIDTH 9 0
BBX 8 8 0 -1
BITMAP
28
5F
DF
55
5F
4E
55
67
ENDCHAR
STARTCHAR uni5082
ENCODING 20610
SWIDTH 1000 0
DWIDTH 9 0
BBX 8 8 0 -1
BITMAP
5E
54
5F
D4
57
54
6A
4B
ENDCHAR
STARTCHAR uni5083
ENCODING 20611
SWIDTH 1000 0
DWIDTH 9 0
BBX 8 8 0 -1
BITMAP
44
5F
4E
DF
4A
5D
4E
55
ENDCHAR
STARTCHAR uni5085
ENCODING 20613
SWIDTH 1000 0
DWIDTH 9 0
BBX 8 8 0 -1
BITMAP
44
7F
D5
5F
55
7F
52
46
ENDCHAR
STARTCHAR uni5087
ENCODING 20615
SWIDTH 1000 0
DWIDTH 9 0
BBX 8 8 0 -1
BITMAP
52
7F
D2
7F
52
5E
53
7E
ENDCHAR
STARTCHAR uni5088
ENCODING 20616
SWIDTH 1000 0
DWIDTH 9 0
BBX 8 8 0 -1
BITMAP
7F
54
FF
55
7F
48
7F
6A
ENDCHAR
STARTCHAR uni508B
ENCODING 20619
SWIDTH 1000 0
DWIDTH 9 0
BBX 8 8 0 -1
BITMAP
4A
5F
4A
DF
55
7F
51
53
ENDCHAR
STARTCHAR uni508C
ENCODING 20620
SWIDTH 1000 0
DWIDTH 9 0
BBX 8 8 0 -1
BITMAP
5F
54
5F
D4
5F
41
55
56
ENDCHAR
STARTCHAR uni508D
ENCODING 20621
SWIDTH 1000 0
DWIDTH 9 0
BBX 8 8 0 -1
BITMAP
44
5F
CA
7F
65
5E
4A
56
ENDCHAR
STARTCHAR uni508E
ENCODING 20622
SWIDTH 1000 0
DWIDTH 9 0
BBX 8 8 0 -1
BITMAP
48
7F
4C
D2
5E
52
7F
52
ENDCHAR
STARTCHAR uni5091
ENCODING 20625
SWIDTH 1000 0
DWIDTH 9 0
BBX 8 8 0 -1
BITMAP
52
5F
6A
D7
6A
7F
5A
69
ENDCHAR
STARTCHAR uni5092
ENCODING 20626
SWIDTH 1000 0
DWIDTH 9 0
BBX 8 8 0 -1
BITMAP
5F
55
4A
DC
4A
7F
4C
73
ENDCHAR
STARTCHAR uni5094
ENCODING 20628
SWIDTH 1000 0
DWIDTH 9 0
BBX 8 8 0 -1
BITMAP
54
7F
55
FF
55
7F
56
75
ENDCHAR
STARTCHAR uni5095
ENCODING 20629
SWIDTH 1000 0
DWIDTH 9 0
BBX 8 8 0 -1
BITMAP
48
7F
69
DF
74
5F
54
5F
ENDCHAR
STARTCHAR uni5096
ENCODING 20630
SWIDTH 1000 0
DWIDTH 9 0
BBX 8 8 0 -1
BITMAP
2C
52
65
DE
52
5C
72
5E
ENDCHAR
STARTCHAR uni5098
ENCODING 20632
SWIDTH 1000 0
DWIDTH 9 0
BBX 8 8 0 -1
BITMAP
18
24
CB
2A
7F
2A
FF
08
ENDCHAR
STARTCHAR uni5099
ENCODING 20633
SWIDTH 1000 0
DWIDTH 9 0
BBX 8 8 0 -1
BITMAP
54
7F
54
FF
55
7F
55
55
ENDCHAR
STARTCHAR uni509A
ENCODING 20634
SWIDTH 1000 0
DWIDTH 9 0
BBX 8 8 0 -1
BITMAP
54
7C
57
ED
55
52
6D
49
ENDCHAR
STARTCHAR uni509B
ENCODING 20635
SWIDTH 1000 0
DWIDTH 9 0
BBX 8 8 0 -1
BITMAP
44
7F
6A
D5
4A
7F
52
5E
ENDCHAR
STARTCHAR uni509C
ENCODING 20636
SWIDTH 1000 0
DWIDTH 9 0
BBX 8 8 0 -1
BITMAP
48
5F
72
CE
54
7F
55
5F
ENDCHAR
STARTCHAR uni509D
ENCODING 20637
SWIDTH 1000 0
DWIDTH 9 0
BBX 8 8 0 -1
BITMAP
5E
52
5E
C0
7F
5B
6D
5B
ENDCHAR
STARTCHAR uni509E
ENCODING 20638
SWIDTH 1000 0
DWIDTH 9 0
BBX 8 8 0 -1
BITMAP
4A
5F
44
DF
48
5F
64
5F
ENDCHAR
STARTCHAR uni50A2
ENCODING 20642
SWIDTH 1000 0
DWIDTH 9 0
BBX 8 8 0 -1
BITMAP
24
5F
D1
5E
4D
56
4D
54
ENDCHAR
STARTCHAR uni50A3
ENCODING 20643
SWIDTH 1000 0
DWIDTH 9 0
BBX 8 8 0 -1
BITMAP
48
7F
C8
7F
6A
5B
6C
5B
ENDCHAR
STARTCHAR uni50A5
ENCODING 20645
SWIDTH 1000 0
DWIDTH 9 0
BBX 8 8 0 -1
BITMAP
55
7F
E1
5E
52
5E
4D
57
ENDCHAR
STARTCHAR uni50A7
ENCODING 20647
SWIDTH 1000 0
DWIDTH 9 0
BBX 8 8 0 -1
BITMAP
24
5F
D9
4F
4A
5F
4A
51
ENDCHAR
STARTCHAR uni50A8
ENCODING 20648
SWIDTH 1000 0
DWIDTH 9 0
BBX 8 8 0 -1
BITMAP
55
4F
F6
5F
55
57
5D
57
ENDCHAR
STARTCHAR uni50A9
ENCODING 20649
SWIDTH 1000 0
DWIDTH 9 0
BBX 8 8 0 -1
BITMAP
4A
4F
BA
6F
5A
5F
6A
4F
ENDCHAR
STARTCHAR uni50AC
ENCODING 20652
SWIDTH 1000 0
DWIDTH 9 0
BBX 8 8 0 -1
BITMAP
55
5F
D4
7F
54
5F
54
5F
ENDCHAR
STARTCHAR uni50AD
ENCODING 20653
SWIDTH 1000 0
DWIDTH 9 0
BBX 8 8 0 -1
BITMAP
44
7F
E5
7F
55
5F
55
55
ENDCHAR
STARTCHAR uni50AE
ENCODING 20654
SWIDTH 1000 0
DWIDTH 9 0
BBX 8 8 0 -1
BITMAP
54
7F
55
BF
55
7F
52
5E
ENDCHAR
STARTCHAR uni50AF
ENCODING 20655
SWIDTH 1000 0
DWIDTH 9 0
BBX 8 8 0 -1
BITMAP
48
5F
5B
D5
5F
50
75
5E
ENDCHAR
STARTCHAR uni50B0
ENCODING 20656
SWIDTH 1000 0
DWIDTH 9 0
BBX 8 8 0 -1
BITMAP
55
5F
40
DF
55
5F
55
6D
ENDCHAR
STARTCHAR uni50B1
ENCODING 20657
SWIDTH 1000 0
DWIDTH 9 0
BBX 8 8 0 -1
BITMAP
55
65
4B
D0
72
5B
5E
53
ENDCHAR
STARTCHAR uni50B2
ENCODING 20658
SWIDTH 1000 0
DWIDTH 9 0
BBX 8 8 0 -1
BITMAP
52
7A
D7
7D
55
5A
6A
55
ENDCHAR
STARTCHAR uni50B3
ENCODING 20659
SWIDTH 1000 0
DWIDTH 9 0
BBX 8 8 0 -1
BITMAP
44
7F
D5
5F
55
7F
52
46
ENDCHAR
STARTCHAR uni50B4
ENCODING 20660
SWIDTH 1000 0
DWIDTH 9 0
BBX 8 8 0 -1
BITMAP
5F
56
55
DF
55
5F
50
5F
ENDCHAR
STARTCHAR uni50B5
ENCODING 20661
SWIDTH 1000 0
DWIDTH 9 0
BBX 8 8 0 -1
BITMAP
44
5F
C4
7F
52
5E
5E
73
ENDCHAR
STARTCHAR uni50B6
ENCODING 20662
SWIDTH 1000 0
DWIDTH 9 0
BBX 8 8 0 -1
BITMAP
42
7F
6A
AB
BE
AA
BD
A9
ENDCHAR
STARTCHAR uni50B7
ENCODING 20663
SWIDTH 1000 0
DWIDTH 9 0
BBX 8 8 0 -1
BITMAP
5F
72
DE
52
7F
55
6B
55
ENDCHAR
STARTCHAR uni50B8
ENCODING 20664
SWIDTH 1000 0
DWIDTH 9 0
BBX 8 8 0 -1
BITMAP
44
7F
55
EE
55
6A
52
61
ENDCHAR
STARTCHAR uni50BA
ENCODING 20666
SWIDTH 1000 0
DWIDTH 9 0
BBX 8 8 0 -1
BITMAP
57
5D
AA
5D
60
5F
4E
55
ENDCHAR
STARTCHAR uni50BB
ENCODING 20667
SWIDTH 1000 0
DWIDTH 9 0
BBX 8 8 0 -1
BITMAP
48
5F
D5
5B
5E
5B
64
5B
ENDCHAR
STARTCHAR uni50BD
ENCODING 20669
SWIDTH 1000 0
DWIDTH 9 0
BBX 8 8 0 -1
BITMAP
44
7F
52
FF
52
5E
7F
44
ENDCHAR
STARTCHAR uni50BE
ENCODING 20670
SWIDTH 1000 0
DWIDTH 9 0
BBX 8 8 0 -1
BITMAP
4F
42
EF
79
6F
79
6F
59
ENDCHAR
STARTCHAR uni50BF
ENCODING 20671
SWIDTH 1000 0
DWIDTH 9 0
BBX 8 8 0 -1
BITMAP
7F
54
7F
D0
5F
41
55
56
ENDCHAR
STARTCHAR uni50C1
ENCODING 20673
SWIDTH 1000 0
DWIDTH 9 0
BBX 8 8 0 -1
BITMAP
5E
55
7F
CE
55
48
6B
6E
ENDCHAR
STARTCHAR uni50C2
ENCODING 20674
SWIDTH 1000 0
DWIDTH 9 0
BBX 8 8 0 -1
BITMAP
44
5E
77
DE
55
7F
4A
75
ENDCHAR
STARTCHAR uni50C4
ENCODING 20676
SWIDTH 1000 0
DWIDTH 9 0
BBX 8 8 0 -1
BITMAP
7F
4A
5F
D5
5F
7F
56
6D
ENDCHAR
STARTCHAR uni50C5
ENCODING 20677
SWIDTH 1000 0
DWIDTH 9 0
BBX 8 8 0 -1
BITMAP
52
7F
52
FF
49
7F
48
7F
ENDCHAR
STARTCHAR uni50C6
ENCODING 20678
SWIDTH 1000 0
DWIDTH 9 0
BBX 8 8 0 -1
BITMAP
64
5F
74
9E
7E
5F
54
6F
ENDCHAR
STARTCHAR uni50C7
ENCODING 20679
SWIDTH 1000 0
DWIDTH 9 0
BBX 8 8 0 -1
BITMAP
5B
49
5B
CD
72
4D
42
5C
ENDCHAR
STARTCHAR uni50C8
ENCODING 20680
SWIDTH 1000 0
DWIDTH 9 0
BBX 8 8 0 -1
BITMAP
5E
52
7F
E9
7F
52
4C
73
ENDCHAR
STARTCHAR uni50C9
ENCODING 20681
SWIDTH 1000 0
DWIDTH 9 0
BBX 8 8 0 -1
BITMAP
18
3C
C3
7E
5A
6E
24
DB
ENDCHAR
STARTCHAR uni50CA
ENCODING 20682
SWIDTH 1000 0
DWIDTH 9 0
BBX 8 8 0 -1
BITMAP
7F
54
7F
D5
7F
52
75
5F
ENDCHAR
STARTCHAR uni50CB
ENCODING 20683
SWIDTH 1000 0
DWIDTH 9 0
BBX 8 8 0 -1
BITMAP
4C
5E
65
DE
52
5E
5E
73
ENDCHAR
STARTCHAR uni50CD
ENCODING 20685
SWIDTH 1000 0
DWIDTH 9 0
BBX 8 8 0 -1
BITMAP
2C
54
FF
55
6D
7D
55
7A
ENDCHAR
STARTCHAR uni50CE
ENCODING 20686
SWIDTH 1000 0
DWIDTH 9 0
BBX 8 8 0 -1
BITMAP
5F
55
5F
CA
5F
4A
7F
51
ENDCHAR
STARTCHAR uni50CF
ENCODING 20687
SWIDTH 1000 0
DWIDTH 9 0
BBX 8 8 0 -1
BITMAP
4F
52
DF
55
5E
69
56
4D
ENDCHAR
STARTCHAR uni50D1
ENCODING 20689
SWIDTH 1000 0
DWIDTH 9 0
BBX 8 8 0 -1
BITMAP
46
5C
7F
D2
7F
55
5D
53
ENDCHAR
STARTCHAR uni50D3
ENCODING 20691
SWIDTH 1000 0
DWIDTH 9 0
BBX 8 8 0 -1
BITMAP
48
5E
6A
BF
5E
52
5E
73
ENDCHAR
STARTCHAR uni50D4
ENCODING 20692
SWIDTH 1000 0
DWIDTH 9 0
BBX 8 8 0 -1
BITMAP
4A
7F
55
DB
5F
42
7F
4A
ENDCHAR
STARTCHAR uni50D5
ENCODING 20693
SWIDTH 1000 0
DWIDTH 9 0
BBX 8 8 0 -1
BITMAP
54
7F
52
FF
48
7F
54
63
ENDCHAR
STARTCHAR uni50D6
ENCODING 20694
SWIDTH 1000 0
DWIDTH 9 0
BBX 8 8 0 -1
BITMAP
24
5F
C4
5F
4A
5F
4A
4E
ENDCHAR
STARTCHAR uni50D7
ENCODING 20695
SWIDTH 1000 0
DWIDTH 9 0
BBX 8 8 0 -1
BITMAP
5B
76
55
FF
69
5E
4A
76
ENDCHAR
STARTCHAR uni50DA
ENCODING 20698
SWIDTH 1000 0
DWIDTH 9 0
BBX 8 8 0 -1
BITMAP
48
7F
D5
7E
55
5C
6A
49
ENDCHAR
STARTCHAR uni50DB
ENCODING 20699
SWIDTH 1000 0
DWIDTH 9 0
BBX 8 8 0 -1
BITMAP
6A
7B
AD
BA
AA
FE
95
A9
ENDCHAR
STARTCHAR uni50DD
ENCODING 20701
SWIDTH 1000 0
DWIDTH 9 0
BBX 8 8 0 -1
BITMAP
5F
51
DF
54
5F
5A
6F
5A
ENDCHAR
STARTCHAR uni50DE
ENCODING 20702
SWIDTH 1000 0
DWIDTH 9 0
BBX 8 8 0 -1
BITMAP
2E
55
DE
52
5E
52
5F
55
ENDCHAR
STARTCHAR uni50E0
ENCODING 20704
SWIDTH 1000 0
DWIDTH 9 0
BBX 8 8 0 -1
BITMAP
5E
6A
7F
DA
69
5E
52
5E
ENDCHAR
STARTCHAR uni50E3
ENCODING 20707
SWIDTH 1000 0
DWIDTH 9 0
BBX 8 8 0 -1
BITMAP
52
7F
52
FF
6D
5E
52
5E
ENDCHAR
STARTCHAR uni50E4
ENCODING 20708
SWIDTH 1000 0
DWIDTH 9 0
BBX 8 8 0 -1
BITMAP
5F
55
4E
D5
5F
55
7F
44
ENDCHAR
STARTCHAR uni50E5
ENCODING 20709
SWIDTH 1000 0
DWIDTH 9 0
BBX 8 8 0 -1
BITMAP
48
7F
D2
7F
52
7F
54
67
ENDCHAR
STARTCHAR uni50E6
ENCODING 20710
SWIDTH 1000 0
DWIDTH 9 0
BBX 8 8 0 -1
BITMAP
56
7D
C7
7C
6C
54
7D
53
ENDCHAR
STARTCHAR uni50E7
ENCODING 20711
SWIDTH 1000 0
DWIDTH 9 0
BBX 8 8 0 -1
BITMAP
54
7F
EB
5D
7F
52
52
5E
ENDCHAR
STARTCHAR uni50E8
ENCODING 20712
SWIDTH 1000 0
DWIDTH 9 0
BBX 8 8 0 -1
BITMAP
48
7F
6A
BF
52
52
5E
73
ENDCHAR
STARTCHAR uni50E9
ENCODING 20713
SWIDTH 1000 0
DWIDTH 9 0
BBX 8 8 0 -1
BITMAP
5F
55
5F
D5
5D
55
5D
53
ENDCHAR
STARTCHAR uni50EA
ENCODING 20714
SWIDTH 1000 0
DWIDTH 9 0
BBX 8 8 0 -1
BITMAP
5E
44
5F
D4
7F
55
57
53
ENDCHAR
STARTCHAR uni50EC
ENCODING 20716
SWIDTH 1000 0
DWIDTH 9 0
BBX 8 8 0 -1
BITMAP
54
5F
B4
5F
54
5F
60
55
ENDCHAR
STARTCHAR uni50ED
ENCODING 20717
SWIDTH 1000 0
DWIDTH 9 0
BBX 8 8 0 -1
BITMAP
5F
5A
FF
56
6B
5F
51
5F
ENDCHAR
STARTCHAR uni50EE
ENCODING 20718
SWIDTH 1000 0
DWIDTH 9 0
BBX 8 8 0 -1
BITMAP
44
5F
8A
7F
55
5F
44
5F
ENDCHAR
STARTCHAR uni50EF
ENCODING 20719
SWIDTH 1000 0
DWIDTH 9 0
BBX 8 8 0 -1
BITMAP
4A
7F
5A
E9
5F
6A
57
62
ENDCHAR
STARTCHAR uni50F0
ENCODING 20720
SWIDTH 1000 0
DWIDTH 9 0
BBX 8 8 0 -1
BITMAP
22
FF
AB
76
AB
12
28
C7
ENDCHAR
STARTCHAR uni50F1
ENCODING 20721
SWIDTH 1000 0
DWIDTH 9 0
BBX 8 8 0 -1
BITMAP
5E
5F
51
DF
54
5F
74
5F
ENDCHAR
STARTCHAR uni50F3
ENCODING 20723
SWIDTH 1000 0
DWIDTH 9 0
BBX 8 8 0 -1
BITMAP
7F
54
FF
55
7F
5A
7F
55
ENDCHAR
STARTCHAR uni50F5
ENCODING 20725
SWIDTH 1000 0
DWIDTH 9 0
BBX 8 8 0 -1
BITMAP
7F
D5
5E
7F
55
5F
55
7F
ENDCHAR
STARTCHAR uni50F6
ENCODING 20726
SWIDTH 1000 0
DWIDTH 9 0
BBX 8 8 0 -1
BITMAP
5F
55
4E
DF
55
5F
4C
4F
ENDCHAR
STARTCHAR uni50F8
ENCODING 20728
SWIDTH 1000 0
DWIDTH 9 0
BBX 8 8 0 -1
BITMAP
52
7F
56
7F
C0
7F
56
6D
ENDCHAR
STARTCHAR uni50F9
ENCODING 20729
SWIDTH 1000 0
DWIDTH 9 0
BBX 8 8 0 -1
BITMAP
5F
4A
5F
D5
5F
52
5E
73
ENDCHAR
STARTCHAR uni50FB
ENCODING 20731
SWIDTH 1000 0
DWIDTH 9 0
BBX 8 8 0 -1
BITMAP
5A
6F
B5
67
7A
6F
7A
42
ENDCHAR
STARTCHAR uni50FD
ENCODING 20733
SWIDTH 1000 0
DWIDTH 9 0
BBX 8 8 0 -1
BITMAP
7A
57
7A
D6
71
4C
73
5E
ENDCHAR
STARTCHAR uni50FE
ENCODING 20734
SWIDTH 1000 0
DWIDTH 9 0
BBX 8 8 0 -1
BITMAP
5F
4A
7F
D4
4F
5E
44
5B
ENDCHAR
STARTCHAR uni50FF
ENCODING 20735
SWIDTH 1000 0
DWIDTH 9 0
BBX 8 8 0 -1
BITMAP
48
5F
75
BE
54
7F
48
7F
ENDCHAR
STARTCHAR uni5100
ENCODING 20736
SWIDTH 1000 0
DWIDTH 9 0
BBX 8 8 0 -1
BITMAP
52
7F
48
FF
54
7F
52
75
ENDCHAR
STARTCHAR uni5101
ENCODING 20737
SWIDTH 1000 0
DWIDTH 9 0
BBX 8 8 0 -1
BITMAP
2A
5F
CA
4F
40
5F
55
51
ENDCHAR
STARTCHAR uni5102
ENCODING 20738
SWIDTH 1000 0
DWIDTH 9 0
BBX 8 8 0 -1
BITMAP
54
7F
55
FF
50
5F
6A
5D
ENDCHAR
STARTCHAR uni5103
ENCODING 20739
SWIDTH 1000 0
DWIDTH 9 0
BBX 8 8 0 -1
BITMAP
48
7F
55
DD
41
7F
52
7F
ENDCHAR
STARTCHAR uni5104
ENCODING 20740
SWIDTH 1000 0
DWIDTH 9 0
BBX 8 8 0 -1
BITMAP
44
5F
4A
FF
52
5D
5A
6F
ENDCHAR
STARTCHAR uni5105
ENCODING 20741
SWIDTH 1000 0
DWIDTH 9 0
BBX 8 8 0 -1
BITMAP
55
7F
52
DE
65
7F
65
7F
ENDCHAR
STARTCHAR uni5106
ENCODING 20742
SWIDTH 1000 0
DWIDTH 9 0
BBX 8 8 0 -1
BITMAP
54
7F
D5
79
6D
5A
6D
59
ENDCHAR
STARTCHAR uni5107
ENCODING 20743
SWIDTH 1000 0
DWIDTH 9 0
BBX 8 8 0 -1
BITMAP
7F
55
BF
52
5E
5D
6A
4D
ENDCHAR
STARTCHAR uni5108
ENCODING 20744
SWIDTH 1000 0
DWIDTH 9 0
BBX 8 8 0 -1
BITMAP
4C
52
7F
EA
7E
52
5E
5E
ENDCHAR
STARTCHAR uni5109
ENCODING 20745
SWIDTH 1000 0
DWIDTH 9 0
BBX 8 8 0 -1
BITMAP
4C
52
6D
FF
65
7F
52
6D
ENDCHAR
STARTCHAR uni510A
ENCODING 20746
SWIDTH 1000 0
DWIDTH 9 0
BBX 8 8 0 -1
BITMAP
52
7F
5B
D2
7F
56
5C
67
ENDCHAR
STARTCHAR uni510B
ENCODING 20747
SWIDTH 1000 0
DWIDTH 9 0
BBX 8 8 0 -1
BITMAP
4E
52
BF
54
5F
56
59
6F
ENDCHAR
STARTCHAR uni510C
ENCODING 20748
SWIDTH 1000 0
DWIDTH 9 0
BBX 8 8 0 -1
BITMAP
52
7A
6F
FD
55
7A
6A
5D
ENDCHAR
STARTCHAR uni5110
ENCODING 20752
SWIDTH 1000 0
DWIDTH 9 0
BBX 8 8 0 -1
BITMAP
48
7F
6B
CC
7F
51
5E
71
ENDCHAR
STARTCHAR uni5111
ENCODING 20753
SWIDTH 1000 0
DWIDTH 9 0
BBX 8 8 0 -1
BITMAP
5E
52
5E
CA
55
7F
40
6B
ENDCHAR
STARTCHAR uni5112
ENCODING 20754
SWIDTH 1000 0
DWIDTH 9 0
BBX 8 8 0 -1
BITMAP
5F
44
DF
55
4E
44
5F
55
ENDCHAR
STARTCHAR uni5113
ENCODING 20755
SWIDTH 1000 0
DWIDTH 9 0
BBX 8 8 0 -1
BITMAP
48
7E
5C
D4
7F
55
48
7F
ENDCHAR
STARTCHAR uni5114
ENCODING 20756
SWIDTH 1000 0
DWIDTH 9 0
BBX 8 8 0 -1
BITMAP
48
7E
48
FF
75
5E
74
4C
ENDCHAR
STARTCHAR uni5115
ENCODING 20757
SWIDTH 1000 0
DWIDTH 9 0
BBX 8 8 0 -1
BITMAP
48
7F
6A
DB
7E
52
5E
62
ENDCHAR
STARTCHAR uni5116
ENCODING 20758
SWIDTH 1000 0
DWIDTH 9 0
BBX 8 8 0 -1
BITMAP
3C
57
D0
5B
40
5F
55
7F
ENDCHAR
STARTCHAR uni5117
ENCODING 20759
SWIDTH 1000 0
DWIDTH 9 0
BBX 8 8 0 -1
BITMAP
5B
51
5A
E7
52
7B
56
6B
ENDCHAR
STARTCHAR uni5118
ENCODING 20760
SWIDTH 1000 0
DWIDTH 9 0
BBX 8 8 0 -1
BITMAP
48
5E
7F
CA
7F
6D
56
7F
ENDCHAR
STARTCHAR uni511A
ENCODING 20762
SWIDTH 1000 0
DWIDTH 9 0
BBX 8 8 0 -1
BITMAP
52
7F
52
BE
6A
7F
55
78
ENDCHAR
STARTCHAR uni511C
ENCODING 20764
SWIDTH 1000 0
DWIDTH 9 0
BBX 8 8 0 -1
BITMAP
48
7F
5D
EA
7F
55
7F
48
ENDCHAR
STARTCHAR uni511F
ENCODING 20767
SWIDTH 1000 0
DWIDTH 9 0
BBX 8 8 0 -1
BITMAP
4A
7F
75
DE
52
52
5E
73
ENDCHAR
STARTCHAR uni5120
ENCODING 20768
SWIDTH 1000 0
DWIDTH 9 0
BBX 8 8 0 -1
BITMAP
55
6A
7F
D5
7F
56
5D
75
ENDCHAR
STARTCHAR uni5121
ENCODING 20769
SWIDTH 1000 0
DWIDTH 9 0
BBX 8 8 0 -1
BITMAP
5E
6A
DE
6A
55
7F
55
7F
ENDCHAR
STARTCHAR uni5122
ENCODING 20770
SWIDTH 1000 0
DWIDTH 9 0
BBX 8 8 0 -1
BITMAP
4E
48
5F
D9
5E
5E
54
67
ENDCHAR
STARTCHAR uni5124
ENCODING 20772
SWIDTH 1000 0
DWIDTH 9 0
BBX 8 8 0 -1
BITMAP
5E
52
7F
D4
7F
5A
6D
5A
ENDCHAR
STARTCHAR uni5125
ENCODING 20773
SWIDTH 1000 0
DWIDTH 9 0
BBX 8 8 0 -1
BITMAP
48
7F
48
BF
7F
52
5E
73
ENDCHAR
STARTCHAR uni5126
ENCODING 20774
SWIDTH 1000 0
DWIDTH 9 0
BBX 8 8 0 -1
BITMAP
44
7F
AA
BF
AA
BE
A3
D5
ENDCHAR
STARTCHAR uni5129
ENCODING 20777
SWIDTH 1000 0
DWIDTH 9 0
BBX 8 8 0 -1
BITMAP
47
75
57
F4
5F
75
6B
55
ENDCHAR
STARTCHAR uni512A
ENCODING 20778
SWIDTH 1000 0
DWIDTH 9 0
BBX 8 8 0 -1
BITMAP
7F
5E
D2
7F
61
5E
4C
73
ENDCHAR
STARTCHAR uni512D
ENCODING 20781
SWIDTH 1000 0
DWIDTH 9 0
BBX 8 8 0 -1
BITMAP
57
7D
6F
FD
57
7A
56
59
ENDCHAR
STARTCHAR uni512E
ENCODING 20782
SWIDTH 1000 0
DWIDTH 9 0
BBX 8 8 0 -1
BITMAP
7F
6A
7F
EB
7A
67
54
7F
ENDCHAR
STARTCHAR uni5130
ENCODING 20784
SWIDTH 1000 0
DWIDTH 9 0
BBX 8 8 0 -1
BITMAP
4A
7F
54
FE
4A
7F
69
57
ENDCHAR
STARTCHAR uni5131
ENCODING 20785
SWIDTH 1000 0
DWIDTH 9 0
BBX 8 8 0 -1
BITMAP
57
7C
6F
F9
57
74
55
57
ENDCHAR
STARTCHAR uni5132
ENCODING 20786
SWIDTH 1000 0
DWIDTH 9 0
BBX 8 8 0 -1
BITMAP
55
7F
46
FF
4D
77
55
77
ENDCHAR
STARTCHAR uni5133
ENCODING 20787
SWIDTH 1000 0
DWIDTH 9 0
BBX 8 8 0 -1
BITMAP
4E
72
5E
D5
5F
55
4E
77
ENDCHAR
STARTCHAR uni5134
ENCODING 20788
SWIDTH 1000 0
DWIDTH 9 0
BBX 8 8 0 -1
BITMAP
24
3F
55
DF
4A
7F
54
7B
ENDCHAR
STARTCHAR uni5135
ENCODING 20789
SWIDTH 1000 0
DWIDTH 9 0
BBX 8 8 0 -1
BITMAP
5E
6A
DF
75
5F
44
7F
55
ENDCHAR
STARTCHAR uni5137
ENCODING 20791
SWIDTH 1000 0
DWIDTH 9 0
BBX 8 8 0 -1
BITMAP
7F
6D
C8
7F
55
7F
54
7F
ENDCHAR
STARTCHAR uni5138
ENCODING 20792
SWIDTH 1000 0
DWIDTH 9 0
BBX 8 8 0 -1
BITMAP
7F
55
7F
EA
5F
6A
5A
6F
ENDCHAR
STARTCHAR uni5139
ENCODING 20793
SWIDTH 1000 0
DWIDTH 9 0
BBX 8 8 0 -1
BITMAP
52
7F
56
EB
5E
52
5E
73
ENDCHAR
STARTCHAR uni513A
ENCODING 20794
SWIDTH 1000 0
DWIDTH 9 0
BBX 8 8 0 -1
BITMAP
52
7F
EA
7F
5A
7F
5A
6F
ENDCHAR
STARTCHAR uni513B
ENCODING 20795
SWIDTH 1000 0
DWIDTH 9 0
BBX 8 8 0 -1
BITMAP
55
7F
52
FF
65
7F
40
55
ENDCHAR
STARTCHAR uni513C
ENCODING 20796
SWIDTH 1000 0
DWIDTH 9 0
BBX 8 8 0 -1
BITMAP
5F
55
FF
64
7F
6D
7A
4D
ENDCHAR
STARTCHAR uni513D
ENCODING 20797
SWIDTH 1000 0
DWIDTH 9 0
BBX 8 8 0 -1
BITMAP
5E
52
7F
E9
7F
52
7F
55
ENDCHAR
STARTCHAR uni513F
ENCODING 20799
SWIDTH 1000 0
DWIDTH 9 0
BBX 8 8 0 -1
BITMAP
28
28
28
28
28
48
49
8F
ENDCHAR
STARTCHAR uni5140
ENCODING 20800
SWIDTH 1000 0
DWIDTH 9 0
BBX 8 8 0 -1
BITMAP
FF
24
24
24
24
24
45
87
ENDCHAR
STARTCHAR uni5141
ENCODING 20801
SWIDTH 1000 0
DWIDTH 9 0
BBX 8 8 0 -1
BITMAP
20
24
46
FA
28
28
49
8F
ENDCHAR
STARTCHAR uni5143
ENCODING 20803
SWIDTH 1000 0
DWIDTH 9 0
BBX 8 8 0 -1
BITMAP
7E
00
FF
28
28
28
49
8F
ENDCHAR
STARTCHAR uni5144
ENCODING 20804
SWIDTH 1000 0
DWIDTH 9 0
BBX 8 8 0 -1
BITMAP
7C
44
44
7C
28
28
29
CF
ENDCHAR
STARTCHAR uni5145
ENCODING 20805
SWIDTH 1000 0
DWIDTH 9 0
BBX 8 8 0 -1
BITMAP
10
FF
24
7E
28
28
29
CF
ENDCHAR
STARTCHAR uni5146
ENCODING 20806
SWIDTH 1000 0
DWIDTH 9 0
BBX 8 8 0 -1
BITMAP
28
AA
6C
28
6C
AA
29
CF
ENDCHAR
STARTCHAR uni5147
ENCODING 20807
SWIDTH 1000 0
DWIDTH 9 0
BBX 8 8 0 -1
BITMAP
56
4A
56
42
7E
14
25
C7
ENDCHAR
STARTCHAR uni5148
ENCODING 20808
SWIDTH 1000 0
DWIDTH 9 0
BBX 8 8 0 -1
BITMAP
50
7E
90
10
FF
28
49
8F
ENDCHAR
STARTCHAR uni5149
ENCODING 20809
SWIDTH 1000 0
DWIDTH 9 0
BBX 8 8 0 -1
BITMAP
92
52
54
FF
28
28
49
8F
ENDCHAR
STARTCHAR uni514B
ENCODING 20811
SWIDTH 1000 0
DWIDTH 9 0
BBX 8 8 0 -1
BITMAP
10
FF
10
7C
44
7C
29
CF
ENDCHAR
STARTCHAR uni514C
ENCODING 20812
SWIDTH 1000 0
DWIDTH 9 0
BBX 8 8 0 -1
BITMAP
44
28
7C
44
7C
28
29
C7
ENDCHAR
STARTCHAR uni514D
ENCODING 20813
SWIDTH 1000 0
DWIDTH 9 0
BBX 8 8 0 -1
BITMAP
3E
44
FF
49
7F
14
25
C7
ENDCHAR
STARTCHAR uni514E
ENCODING 20814
SWIDTH 1000 0
DWIDTH 9 0
BBX 8 8 0 -1
BITMAP
38
10
FE
92
FE
2A
29
CF
ENDCHAR
STARTCHAR uni5150
ENCODING 20816
SWIDTH 1000 0
DWIDTH 9 0
BBX 8 8 0 -1
BITMAP
9E
92
9E
92
9E
28
29
CF
ENDCHAR
STARTCHAR uni5151
ENCODING 20817
SWIDTH 1000 0
DWIDTH 9 0
BBX 8 8 0 -1
BITMAP
24
7E
42
42
7E
28
29
CF
ENDCHAR
STARTCHAR uni5152
ENCODING 20818
SWIDTH 1000 0
DWIDTH 9 0
BBX 8 8 0 -1
BITMAP
76
42
76
42
7E
14
25
C7
ENDCHAR
STARTCHAR uni5154
ENCODING 20820
SWIDTH 1000 0
DWIDTH 9 0
BBX 8 8 0 -1
BITMAP
3C
48
FE
92
FE
2A
29
CF
ENDCHAR
STARTCHAR uni5155
ENCODING 20821
SWIDTH 1000 0
DWIDTH 9 0
BBX 8 8 0 -1
BITMAP
EE
AA
BA
82
FE
28
29
CF
ENDCHAR
STARTCHAR uni5156
ENCODING 20822
SWIDTH 1000 0
DWIDTH 9 0
BBX 8 8 0 -1
BITMAP
10
FF
44
92
28
74
29
CF
ENDCHAR
STARTCHAR uni5157
ENCODING 20823
SWIDTH 1000 0
DWIDTH 9 0
BBX 8 8 0 -1
BITMAP
10
FF
42
BD
24
3C
29
CF
ENDCHAR
STARTCHAR uni5159
ENCODING 20825
SWIDTH 1000 0
DWIDTH 9 0
BBX 8 8 0 -1
BITMAP
42
F2
67
92
F2
62
A1
9F
ENDCHAR
STARTCHAR uni515A
ENCODING 20826
SWIDTH 1000 0
DWIDTH 9 0
BBX 8 8 0 -1
BITMAP
54
FF
81
7C
44
7C
29
CF
ENDCHAR
STARTCHAR uni515B
ENCODING 20827
SWIDTH 1000 0
DWIDTH 9 0
BBX 8 8 0 -1
BITMAP
43
F6
62
97
F2
62
A1
9F
ENDCHAR
STARTCHAR uni515C
ENCODING 20828
SWIDTH 1000 0
DWIDTH 9 0
BBX 8 8 0 -1
BITMAP
50
AE
BA
AA
FE
28
29
CF
ENDCHAR
STARTCHAR uni515D
ENCODING 20829
SWIDTH 1000 0
DWIDTH 9 0
BBX 8 8 0 -1
BITMAP
46
F5
69
97
F5
65
AA
9F
ENDCHAR
STARTCHAR uni515E
ENCODING 20830
SWIDTH 1000 0
DWIDTH 9 0
BBX 8 8 0 -1
BITMAP
46
FC
67
9C
F6
6C
A5
9F
ENDCHAR
STARTCHAR uni515F
ENCODING 20831
SWIDTH 1000 0
DWIDTH 9 0
BBX 8 8 0 -1
BITMAP
AC
FF
24
FF
66
76
AA
93
ENDCHAR
STARTCHAR uni5161
ENCODING 20833
SWIDTH 1000 0
DWIDTH 9 0
BBX 8 8 0 -1
BITMAP
4F
F4
6F
99
FF
69
AE
BF
ENDCHAR
STARTCHAR uni5162
ENCODING 20834
SWIDTH 1000 0
DWIDTH 9 0
BBX 8 8 0 -1
BITMAP
44
EF
44
EE
AA
EE
55
AB
ENDCHAR
STARTCHAR uni5163
ENCODING 20835
SWIDTH 1000 0
DWIDTH 9 0
BBX 8 8 0 -1
BITMAP
40
FF
55
BF
F5
7F
A4
BF
ENDCHAR
STARTCHAR uni5165
ENCODING 20837
SWIDTH 1000 0
DWIDTH 9 0
BBX 8 8 0 -1
BITMAP
20
10
10
18
28
24
44
83
ENDCHAR
STARTCHAR uni5167
ENCODING 20839
SWIDTH 1000 0
DWIDTH 9 0
BBX 7 8 1 -1
BITMAP
70
10
FE
92
AA
C6
82
8E
ENDCHAR
STARTCHAR uni5168
ENCODING 20840
SWIDTH 1000 0
DWIDTH 9 0
BBX 8 8 0 -1
BITMAP
10
28
44
FF
10
7C
10
FE
ENDCHAR
STARTCHAR uni5169
ENCODING 20841
SWIDTH 1000 0
DWIDTH 9 0
BBX 8 8 0 -1
BITMAP
FF
08
FF
AD
AD
DB
89
83
ENDCHAR
STARTCHAR uni516A
ENCODING 20842
SWIDTH 1000 0
DWIDTH 9 0
BBX 8 8 0 -1
BITMAP
78
24
5A
F5
55
7A
55
55
ENDCHAR
STARTCHAR uni516B
ENCODING 20843
SWIDTH 1000 0
DWIDTH 9 0
BBX 8 8 0 -1
BITMAP
08
28
28
28
44
44
42
81
ENDCHAR
STARTCHAR uni516C
ENCODING 20844
SWIDTH 1000 0
DWIDTH 9 0
BBX 8 8 0 -1
BITMAP
28
28
44
93
10
24
4E
F2
ENDCHAR
STARTCHAR uni516D
ENCODING 20845
SWIDTH 1000 0
DWIDTH 9 0
BBX 8 8 0 -1
BITMAP
20
10
FF
00
28
24
42
82
ENDCHAR
STARTCHAR uni516E
ENCODING 20846
SWIDTH 1000 0
DWIDTH 9 0
BBX 8 8 0 -1
BITMAP
28
44
83
7E
20
7E
02
0C
ENDCHAR
STARTCHAR uni5170
ENCODING 20848
SWIDTH 1000 0
DWIDTH 9 0
BBX 8 8 0 -1
BITMAP
44
28
FF
00
7E
00
00
FF
ENDCHAR
STARTCHAR uni5171
ENCODING 20849
SWIDTH 1000 0
DWIDTH 9 0
BBX 8 8 0 -1
BITMAP
24
FF
24
24
FF
24
22
C2
ENDCHAR
STARTCHAR uni5173
ENCODING 20851
SWIDTH 1000 0
DWIDTH 9 0
BBX 8 8 0 -1
BITMAP
44
28
FE
10
FF
10
28
C6
ENDCHAR
STARTCHAR uni5174
ENCODING 20852
SWIDTH 1000 0
DWIDTH 9 0
BBX 8 8 0 -1
BITMAP
12
4A
2A
24
FF
00
24
42
ENDCHAR
STARTCHAR uni5175
ENCODING 20853
SWIDTH 1000 0
DWIDTH 9 0
BBX 8 8 0 -1
BITMAP
04
78
40
7E
44
FF
44
82
ENDCHAR
STARTCHAR uni5176
ENCODING 20854
SWIDTH 1000 0
DWIDTH 9 0
BBX 8 8 0 -1
BITMAP
24
7E
24
3C
24
FF
24
42
ENDCHAR
STARTCHAR uni5177
ENCODING 20855
SWIDTH 1000 0
DWIDTH 9 0
BBX 8 8 0 -1
BITMAP
3C
24
3C
24
3C
24
FF
66
ENDCHAR
STARTCHAR uni5178
ENCODING 20856
SWIDTH 1000 0
DWIDTH 9 0
BBX 8 8 0 -1
BITMAP
28
FE
AA
FE
AA
FF
28
C6
ENDCHAR
STARTCHAR uni5179
ENCODING 20857
SWIDTH 1000 0
DWIDTH 9 0
BBX 8 8 0 -1
BITMAP
22
FF
22
44
55
22
55
F7
ENDCHAR
STARTCHAR uni517B
ENCODING 20859
SWIDTH 1000 0
DWIDTH 9 0
BBX 8 8 0 -1
BITMAP
28
FE
10
FF
44
AB
28
48
ENDCHAR
STARTCHAR uni517C
ENCODING 20860
SWIDTH 1000 0
DWIDTH 9 0
BBX 8 8 0 -1
BITMAP
44
FF
2A
FF
2A
FE
6C
AB
ENDCHAR
STARTCHAR uni517D
ENCODING 20861
SWIDTH 1000 0
DWIDTH 9 0
BBX 8 8 0 -1
BITMAP
24
7E
52
7E
52
FF
24
3C
ENDCHAR
STARTCHAR uni5180
ENCODING 20864
SWIDTH 1000 0
DWIDTH 9 0
BBX 8 8 0 -1
BITMAP
EE
29
CF
7C
54
FF
28
C6
ENDCHAR
STARTCHAR uni5181
ENCODING 20865
SWIDTH 1000 0
DWIDTH 9 0
BBX 8 8 0 -1
BITMAP
8F
59
FF
AA
FF
AA
FE
35
ENDCHAR
STARTCHAR uni5182
ENCODING 20866
SWIDTH 1000 0
DWIDTH 9 0
BBX 7 8 0 -1
BITMAP
FE
82
82
82
82
82
82
86
ENDCHAR
STARTCHAR uni5185
ENCODING 20869
SWIDTH 1000 0
DWIDTH 9 0
BBX 7 8 0 -1
BITMAP
10
FE
92
92
AA
C6
82
86
ENDCHAR
STARTCHAR uni5186
ENCODING 20870
SWIDTH 1000 0
DWIDTH 9 0
BBX 8 8 0 -1
BITMAP
FF
91
91
FF
81
81
81
83
ENDCHAR
STARTCHAR uni5187
ENCODING 20871
SWIDTH 1000 0
DWIDTH 9 0
BBX 8 8 0 -1
BITMAP
10
FF
20
7E
A2
22
22
26
ENDCHAR
STARTCHAR uni5188
ENCODING 20872
SWIDTH 1000 0
DWIDTH 9 0
BBX 7 8 0 -1
BITMAP
FE
8A
AA
92
AA
C6
82
86
ENDCHAR
STARTCHAR uni5189
ENCODING 20873
SWIDTH 1000 0
DWIDTH 9 0
BBX 8 8 0 -1
BITMAP
10
7E
52
7E
52
FF
42
46
ENDCHAR
STARTCHAR uni518A
ENCODING 20874
SWIDTH 1000 0
DWIDTH 9 0
BBX 8 8 0 -1
BITMAP
7F
55
55
FF
55
55
55
43
ENDCHAR
STARTCHAR uni518C
ENCODING 20876
SWIDTH 1000 0
DWIDTH 9 0
BBX 8 8 0 -1
BITMAP
77
55
55
FF
55
55
55
9B
ENDCHAR
STARTCHAR uni518D
ENCODING 20877
SWIDTH 1000 0
DWIDTH 9 0
BBX 8 8 0 -1
BITMAP
FF
10
7E
52
7E
52
FF
42
ENDCHAR
STARTCHAR uni518F
ENCODING 20879
SWIDTH 1000 0
DWIDTH 9 0
BBX 8 8 0 -1
BITMAP
FF
A9
AF
C1
BD
A5
BD
83
ENDCHAR
STARTCHAR uni5190
ENCODING 20880
SWIDTH 1000 0
DWIDTH 9 0
BBX 8 8 0 -1
BITMAP
FF
81
FF
81
7E
42
7E
42
ENDCHAR
STARTCHAR uni5191
ENCODING 20881
SWIDTH 1000 0
DWIDTH 9 0
BBX 6 8 1 -1
BITMAP
20
FC
A4
FC
48
78
48
58
ENDCHAR
STARTCHAR uni5192
ENCODING 20882
SWIDTH 1000 0
DWIDTH 9 0
BBX 7 8 0 -1
BITMAP
FE
82
BA
7C
44
7C
44
7C
ENDCHAR
STARTCHAR uni5193
ENCODING 20883
SWIDTH 1000 0
DWIDTH 9 0
BBX 8 8 0 -1
BITMAP
24
FF
24
FF
4A
FF
42
46
ENDCHAR
STARTCHAR uni5194
ENCODING 20884
SWIDTH 1000 0
DWIDTH 9 0
BBX 8 8 0 -1
BITMAP
7E
42
5A
0F
E4
BF
E4
0C
ENDCHAR
STARTCHAR uni5195
ENCODING 20885
SWIDTH 1000 0
DWIDTH 9 0
BBX 8 8 0 -1
BITMAP
FE
82
FE
28
7C
D4
79
EF
ENDCHAR
STARTCHAR uni5196
ENCODING 20886
SWIDTH 1000 0
DWIDTH 9 0
BBX 8 2 0 4
BITMAP
FF
81
ENDCHAR
STARTCHAR uni5197
ENCODING 20887
SWIDTH 1000 0
DWIDTH 9 0
BBX 8 8 0 -1
BITMAP
FF
81
3C
24
24
24
25
C7
ENDCHAR
STARTCHAR uni5198
ENCODING 20888
SWIDTH 1000 0
DWIDTH 9 0
BBX 8 8 0 -1
BITMAP
08
7F
C9
08
18
18
29
CF
ENDCHAR
STARTCHAR uni5199
ENCODING 20889
SWIDTH 1000 0
DWIDTH 9 0
BBX 8 8 0 -1
BITMAP
FF
A1
3C
20
3E
02
FA
06
ENDCHAR
STARTCHAR uni519B
ENCODING 20891
SWIDTH 1000 0
DWIDTH 9 0
BBX 8 8 0 -1
BITMAP
FF
91
7E
28
7E
08
FF
08
ENDCHAR
STARTCHAR uni519C
ENCODING 20892
SWIDTH 1000 0
DWIDTH 9 0
BBX 8 8 0 -1
BITMAP
10
FF
91
30
2A
EC
24
33
ENDCHAR
STARTCHAR uni519E
ENCODING 20894
SWIDTH 1000 0
DWIDTH 9 0
BBX 8 8 0 -1
BITMAP
7F
89
4A
2C
FF
2C
4A
89
ENDCHAR
STARTCHAR uni51A0
ENCODING 20896
SWIDTH 1000 0
DWIDTH 9 0
BBX 8 8 0 -1
BITMAP
FF
81
E2
0F
F2
6A
65
BF
ENDCHAR
STARTCHAR uni51A2
ENCODING 20898
SWIDTH 1000 0
DWIDTH 9 0
BBX 8 8 0 -1
BITMAP
FF
81
7E
50
EA
3C
EB
18
ENDCHAR
STARTCHAR uni51A4
ENCODING 20900
SWIDTH 1000 0
DWIDTH 9 0
BBX 8 8 0 -1
BITMAP
FF
A9
7C
D4
7C
2A
29
CF
ENDCHAR
STARTCHAR uni51A5
ENCODING 20901
SWIDTH 1000 0
DWIDTH 9 0
BBX 8 8 0 -1
BITMAP
FF
A5
3C
24
3C
10
FF
44
ENDCHAR
STARTCHAR uni51A6
ENCODING 20902
SWIDTH 1000 0
DWIDTH 9 0
BBX 8 8 0 -1
BITMAP
FF
81
72
03
FA
57
52
9F
ENDCHAR
STARTCHAR uni51A8
ENCODING 20904
SWIDTH 1000 0
DWIDTH 9 0
BBX 8 8 0 -1
BITMAP
FF
A5
24
7E
52
7E
52
7E
ENDCHAR
STARTCHAR uni51A9
ENCODING 20905
SWIDTH 1000 0
DWIDTH 9 0
BBX 8 8 0 -1
BITMAP
FF
91
42
7E
20
3F
41
AB
ENDCHAR
STARTCHAR uni51AA
ENCODING 20906
SWIDTH 1000 0
DWIDTH 9 0
BBX 8 8 0 -1
BITMAP
FF
95
3E
22
FF
7E
AB
2A
ENDCHAR
STARTCHAR uni51AB
ENCODING 20907
SWIDTH 1000 0
DWIDTH 9 0
BBX 2 8 1 -1
BITMAP
80
40
00
00
40
40
80
80
ENDCHAR
STARTCHAR uni51AC
ENCODING 20908
SWIDTH 1000 0
DWIDTH 9 0
BBX 8 8 0 -1
BITMAP
20
3E
64
98
34
CB
30
0C
ENDCHAR
STARTCHAR uni51AF
ENCODING 20911
SWIDTH 1000 0
DWIDTH 9 0
BBX 8 8 0 -1
BITMAP
9E
52
12
14
5F
41
9D
83
ENDCHAR
STARTCHAR uni51B0
ENCODING 20912
SWIDTH 1000 0
DWIDTH 9 0
BBX 8 8 0 -1
BITMAP
88
49
3A
5C
5A
A9
89
18
ENDCHAR
STARTCHAR uni51B1
ENCODING 20913
SWIDTH 1000 0
DWIDTH 9 0
BBX 8 8 0 -1
BITMAP
BF
48
0E
2A
52
5C
84
BF
ENDCHAR
STARTCHAR uni51B2
ENCODING 20914
SWIDTH 1000 0
DWIDTH 9 0
BBX 8 8 0 -1
BITMAP
84
5F
15
15
55
5F
84
84
ENDCHAR
STARTCHAR uni51B3
ENCODING 20915
SWIDTH 1000 0
DWIDTH 9 0
BBX 8 8 0 -1
BITMAP
88
5E
0A
0A
7F
48
94
A3
ENDCHAR
STARTCHAR uni51B4
ENCODING 20916
SWIDTH 1000 0
DWIDTH 9 0
BBX 8 8 0 -1
BITMAP
9F
4A
0A
1F
06
4A
52
A6
ENDCHAR
STARTCHAR uni51B5
ENCODING 20917
SWIDTH 1000 0
DWIDTH 9 0
BBX 8 8 0 -1
BITMAP
BE
62
22
3E
54
54
95
A7
ENDCHAR
STARTCHAR uni51B6
ENCODING 20918
SWIDTH 1000 0
DWIDTH 9 0
BBX 8 8 0 -1
BITMAP
84
4A
13
5D
40
9F
91
9F
ENDCHAR
STARTCHAR uni51B7
ENCODING 20919
SWIDTH 1000 0
DWIDTH 9 0
BBX 8 8 0 -1
BITMAP
8C
52
29
04
5F
41
8A
84
ENDCHAR
STARTCHAR uni51B9
ENCODING 20921
SWIDTH 1000 0
DWIDTH 9 0
BBX 8 8 0 -1
BITMAP
8A
48
3F
4A
4A
94
AA
51
ENDCHAR
STARTCHAR uni51BB
ENCODING 20923
SWIDTH 1000 0
DWIDTH 9 0
BBX 8 8 0 -1
BITMAP
88
7F
08
54
5F
84
95
AD
ENDCHAR
STARTCHAR uni51BC
ENCODING 20924
SWIDTH 1000 0
DWIDTH 9 0
BBX 8 8 0 -1
BITMAP
94
5F
24
1F
44
4C
95
A7
ENDCHAR
STARTCHAR uni51BD
ENCODING 20925
SWIDTH 1000 0
DWIDTH 9 0
BBX 8 8 0 -1
BITMAP
BD
51
1D
27
5B
8B
91
A3
ENDCHAR
STARTCHAR uni51BE
ENCODING 20926
SWIDTH 1000 0
DWIDTH 9 0
BBX 7 7 0 -1
BITMAP
88
54
3E
00
5E
92
9E
ENDCHAR
STARTCHAR uni51C0
ENCODING 20928
SWIDTH 1000 0
DWIDTH 9 0
BBX 8 8 0 -1
BITMAP
90
5E
24
3E
4B
BE
88
98
ENDCHAR
STARTCHAR uni51C4
ENCODING 20932
SWIDTH 1000 0
DWIDTH 9 0
BBX 8 8 0 -1
BITMAP
88
7F
4A
3F
4A
7F
8C
B2
ENDCHAR
STARTCHAR uni51C5
ENCODING 20933
SWIDTH 1000 0
DWIDTH 9 0
BBX 8 8 0 -1
BITMAP
BF
65
3F
65
AF
AB
A5
3F
ENDCHAR
STARTCHAR uni51C6
ENCODING 20934
SWIDTH 1000 0
DWIDTH 9 0
BBX 8 8 0 -1
BITMAP
94
5F
34
5F
94
9F
94
9F
ENDCHAR
STARTCHAR uni51C7
ENCODING 20935
SWIDTH 1000 0
DWIDTH 9 0
BBX 8 8 0 -1
BITMAP
92
7A
15
3A
72
55
97
95
ENDCHAR
STARTCHAR uni51C8
ENCODING 20936
SWIDTH 1000 0
DWIDTH 9 0
BBX 8 8 0 -1
BITMAP
BE
55
3E
4A
7F
DE
48
18
ENDCHAR
STARTCHAR uni51C9
ENCODING 20937
SWIDTH 1000 0
DWIDTH 9 0
BBX 8 8 0 -1
BITMAP
08
BF
40
1E
52
5E
9A
A9
ENDCHAR
STARTCHAR uni51CA
ENCODING 20938
SWIDTH 1000 0
DWIDTH 9 0
BBX 8 8 0 -1
BITMAP
88
7F
1C
7F
92
9E
92
16
ENDCHAR
STARTCHAR uni51CB
ENCODING 20939
SWIDTH 1000 0
DWIDTH 9 0
BBX 8 8 0 -1
BITMAP
9F
55
1F
15
5F
55
9B
A5
ENDCHAR
STARTCHAR uni51CC
ENCODING 20940
SWIDTH 1000 0
DWIDTH 9 0
BBX 8 8 0 -1
BITMAP
84
5F
04
1F
5A
6D
8A
9D
ENDCHAR
STARTCHAR uni51CD
ENCODING 20941
SWIDTH 1000 0
DWIDTH 9 0
BBX 8 8 0 -1
BITMAP
88
7F
2A
BE
AA
9C
AA
49
ENDCHAR
STARTCHAR uni51CE
ENCODING 20942
SWIDTH 1000 0
DWIDTH 9 0
BBX 8 8 0 -1
BITMAP
8C
52
3F
48
7F
CA
5C
7F
ENDCHAR
STARTCHAR uni51CF
ENCODING 20943
SWIDTH 1000 0
DWIDTH 9 0
BBX 8 8 0 -1
BITMAP
05
BF
64
3D
65
BA
AA
5D
ENDCHAR
STARTCHAR uni51D0
ENCODING 20944
SWIDTH 1000 0
DWIDTH 9 0
BBX 8 8 0 -1
BITMAP
BF
4A
3F
29
7F
9E
84
BF
ENDCHAR
STARTCHAR uni51D1
ENCODING 20945
SWIDTH 1000 0
DWIDTH 9 0
BBX 8 8 0 -1
BITMAP
08
BE
48
3F
52
BD
88
B6
ENDCHAR
STARTCHAR uni51D4
ENCODING 20948
SWIDTH 1000 0
DWIDTH 9 0
BBX 8 8 0 -1
BITMAP
8C
52
3D
52
5E
92
B2
5E
ENDCHAR
STARTCHAR uni51D6
ENCODING 20950
SWIDTH 1000 0
DWIDTH 9 0
BBX 8 8 0 -1
BITMAP
94
3F
14
5F
94
FF
10
10
ENDCHAR
STARTCHAR uni51D7
ENCODING 20951
SWIDTH 1000 0
DWIDTH 9 0
BBX 8 8 0 -1
BITMAP
95
5F
14
5F
74
DF
54
5F
ENDCHAR
STARTCHAR uni51D8
ENCODING 20952
SWIDTH 1000 0
DWIDTH 9 0
BBX 8 8 0 -1
BITMAP
AB
FC
2F
BD
AD
FD
AD
49
ENDCHAR
STARTCHAR uni51DB
ENCODING 20955
SWIDTH 1000 0
DWIDTH 9 0
BBX 8 8 0 -1
BITMAP
08
BF
76
2A
7E
80
FF
AA
ENDCHAR
STARTCHAR uni51DC
ENCODING 20956
SWIDTH 1000 0
DWIDTH 9 0
BBX 8 8 0 -1
BITMAP
88
FF
2A
7E
48
BF
9A
A9
ENDCHAR
STARTCHAR uni51DD
ENCODING 20957
SWIDTH 1000 0
DWIDTH 9 0
BBX 8 8 0 -1
BITMAP
2B
B1
7A
27
7A
93
BE
2B
ENDCHAR
STARTCHAR uni51DE
ENCODING 20958
SWIDTH 1000 0
DWIDTH 9 0
BBX 8 8 0 -1
BITMAP
BF
A5
37
2C
A5
BB
80
2B
ENDCHAR
STARTCHAR uni51E0
ENCODING 20960
SWIDTH 1000 0
DWIDTH 9 0
BBX 8 8 0 -1
BITMAP
3C
24
24
24
24
24
45
87
ENDCHAR
STARTCHAR uni51E1
ENCODING 20961
SWIDTH 1000 0
DWIDTH 9 0
BBX 8 8 0 -1
BITMAP
7C
44
64
54
54
44
45
83
ENDCHAR
STARTCHAR uni51E4
ENCODING 20964
SWIDTH 1000 0
DWIDTH 9 0
BBX 8 8 0 -1
BITMAP
7E
42
7A
4A
6A
52
6A
81
ENDCHAR
STARTCHAR uni51E6
ENCODING 20966
SWIDTH 1000 0
DWIDTH 9 0
BBX 8 8 0 -1
BITMAP
80
EE
AA
AA
AA
53
60
9F
ENDCHAR
STARTCHAR uni51E7
ENCODING 20967
SWIDTH 1000 0
DWIDTH 9 0
BBX 8 8 0 -1
BITMAP
FE
82
A2
FA
AA
AA
AA
A1
ENDCHAR
STARTCHAR uni51E9
ENCODING 20969
SWIDTH 1000 0
DWIDTH 9 0
BBX 8 8 0 -1
BITMAP
FE
92
FE
92
BA
D6
92
91
ENDCHAR
STARTCHAR uni51EA
ENCODING 20970
SWIDTH 1000 0
DWIDTH 9 0
BBX 8 8 0 -1
BITMAP
FE
8A
8A
AE
AA
AA
FE
81
ENDCHAR
STARTCHAR uni51EB
ENCODING 20971
SWIDTH 1000 0
DWIDTH 9 0
BBX 7 8 1 -1
BITMAP
40
FC
A4
90
FE
2A
28
CE
ENDCHAR
STARTCHAR uni51ED
ENCODING 20973
SWIDTH 1000 0
DWIDTH 9 0
BBX 8 8 0 -1
BITMAP
46
D8
7F
48
3E
24
25
C7
ENDCHAR
STARTCHAR uni51EF
ENCODING 20975
SWIDTH 1000 0
DWIDTH 9 0
BBX 8 8 0 -1
BITMAP
AE
FA
0A
EA
2A
EA
AA
D3
ENDCHAR
STARTCHAR uni51F0
ENCODING 20976
SWIDTH 1000 0
DWIDTH 9 0
BBX 8 8 0 -1
BITMAP
FE
92
BA
AA
AA
FE
92
FD
ENDCHAR
STARTCHAR uni51F1
ENCODING 20977
SWIDTH 1000 0
DWIDTH 9 0
BBX 8 8 0 -1
BITMAP
2E
AA
FA
0A
FA
9A
6A
F3
ENDCHAR
STARTCHAR uni51F3
ENCODING 20979
SWIDTH 1000 0
DWIDTH 9 0
BBX 8 8 0 -1
BITMAP
EA
24
BB
44
FF
28
2A
CE
ENDCHAR
STARTCHAR uni51F5
ENCODING 20981
SWIDTH 1000 0
DWIDTH 9 0
BBX 7 7 0 -1
BITMAP
82
82
82
82
82
82
FE
ENDCHAR
STARTCHAR uni51F6
ENCODING 20982
SWIDTH 1000 0
DWIDTH 9 0
BBX 8 7 0 -1
BITMAP
25
95
89
95
A5
81
FF
ENDCHAR
STARTCHAR uni51F8
ENCODING 20984
SWIDTH 1000 0
DWIDTH 9 0
BBX 8 8 0 -1
BITMAP
3C
24
24
E7
81
81
81
FF
ENDCHAR
STARTCHAR uni51F9
ENCODING 20985
SWIDTH 1000 0
DWIDTH 9 0
BBX 8 7 0 0
BITMAP
E7
A5
A5
BD
81
81
FF
ENDCHAR
STARTCHAR uni51FA
ENCODING 20986
SWIDTH 1000 0
DWIDTH 9 0
BBX 8 8 0 -1
BITMAP
10
91
91
FF
10
91
91
FF
ENDCHAR
STARTCHAR uni51FB
ENCODING 20987
SWIDTH 1000 0
DWIDTH 9 0
BBX 8 8 0 -1
BITMAP
10
7E
10
FF
10
91
91
FF
ENDCHAR
STARTCHAR uni51FC
ENCODING 20988
SWIDTH 1000 0
DWIDTH 9 0
BBX 8 8 0 -1
BITMAP
10
92
F5
99
B5
D3
91
FF
ENDCHAR
STARTCHAR uni51FD
ENCODING 20989
SWIDTH 1000 0
DWIDTH 9 0
BBX 8 8 0 -1
BITMAP
FE
0C
91
D5
B9
D7
91
FF
ENDCHAR
STARTCHAR uni51FE
ENCODING 20990
SWIDTH 1000 0
DWIDTH 9 0
BBX 8 8 0 -1
BITMAP
7C
08
91
FF
9B
F5
9B
FF
ENDCHAR
STARTCHAR uni51FF
ENCODING 20991
SWIDTH 1000 0
DWIDTH 9 0
BBX 8 8 0 -1
BITMAP
AA
6C
FF
AA
FE
BA
92
FE
ENDCHAR
STARTCHAR uni5200
ENCODING 20992
SWIDTH 1000 0
DWIDTH 9 0
BBX 8 8 0 -1
BITMAP
FF
21
21
21
21
21
45
82
ENDCHAR
STARTCHAR uni5201
ENCODING 20993
SWIDTH 1000 0
DWIDTH 9 0
BBX 8 8 0 -1
BITMAP
FF
01
01
09
11
21
C5
02
ENDCHAR
STARTCHAR uni5202
ENCODING 20994
SWIDTH 1000 0
DWIDTH 9 0
BBX 3 8 3 -1
BITMAP
20
A0
A0
A0
A0
A0
20
60
ENDCHAR
STARTCHAR uni5203
ENCODING 20995
SWIDTH 1000 0
DWIDTH 9 0
BBX 8 8 0 -1
BITMAP
FF
11
51
51
91
21
25
C2
ENDCHAR
STARTCHAR uni5204
ENCODING 20996
SWIDTH 1000 0
DWIDTH 9 0
BBX 8 8 0 -1
BITMAP
FE
12
52
D2
72
3A
26
CD
ENDCHAR
STARTCHAR uni5206
ENCODING 20998
SWIDTH 1000 0
DWIDTH 9 0
BBX 8 8 0 -1
BITMAP
28
28
44
FB
24
24
44
8C
ENDCHAR
STARTCHAR uni5207
ENCODING 20999
SWIDTH 1000 0
DWIDTH 9 0
BBX 8 8 0 -1
BITMAP
5F
49
E9
49
49
69
49
13
ENDCHAR
STARTCHAR uni5208
ENCODING 21000
SWIDTH 1000 0
DWIDTH 9 0
BBX 8 8 0 -1
BITMAP
01
51
55
25
25
55
51
93
ENDCHAR
STARTCHAR uni5209
ENCODING 21001
SWIDTH 1000 0
DWIDTH 9 0
BBX 8 8 0 -1
BITMAP
41
7D
85
F5
25
45
89
FB
ENDCHAR
STARTCHAR uni520A
ENCODING 21002
SWIDTH 1000 0
DWIDTH 9 0
BBX 8 8 0 -1
BITMAP
71
25
25
FD
25
25
21
23
ENDCHAR
STARTCHAR uni520B
ENCODING 21003
SWIDTH 1000 0
DWIDTH 9 0
BBX 8 8 0 -1
BITMAP
11
E5
25
F5
25
25
41
83
ENDCHAR
STARTCHAR uni520C
ENCODING 21004
SWIDTH 1000 0
DWIDTH 9 0
BBX 8 8 0 -1
BITMAP
11
FD
15
95
55
15
11
73
ENDCHAR
STARTCHAR uni520D
ENCODING 21005
SWIDTH 1000 0
DWIDTH 9 0
BBX 7 8 0 -1
BITMAP
20
3E
44
FE
02
7E
02
FE
ENDCHAR
STARTCHAR uni520E
ENCODING 21006
SWIDTH 1000 0
DWIDTH 9 0
BBX 8 8 0 -1
BITMAP
41
75
B5
55
B5
55
91
33
ENDCHAR
STARTCHAR uni5210
ENCODING 21008
SWIDTH 1000 0
DWIDTH 9 0
BBX 8 8 0 -1
BITMAP
71
55
75
55
FD
55
51
B3
ENDCHAR
STARTCHAR uni5211
ENCODING 21009
SWIDTH 1000 0
DWIDTH 9 0
BBX 8 8 0 -1
BITMAP
F9
55
55
FD
55
55
51
93
ENDCHAR
STARTCHAR uni5212
ENCODING 21010
SWIDTH 1000 0
DWIDTH 9 0
BBX 8 8 0 -1
BITMAP
51
5D
E5
55
55
61
A9
1B
ENDCHAR
STARTCHAR uni5213
ENCODING 21011
SWIDTH 1000 0
DWIDTH 9 0
BBX 8 8 0 -1
BITMAP
F1
05
FD
55
55
55
59
B3
ENDCHAR
STARTCHAR uni5214
ENCODING 21012
SWIDTH 1000 0
DWIDTH 9 0
BBX 8 8 0 -1
BITMAP
41
F5
55
55
FD
45
41
A3
ENDCHAR
STARTCHAR uni5216
ENCODING 21014
SWIDTH 1000 0
DWIDTH 9 0
BBX 8 8 0 -1
BITMAP
71
55
75
55
75
55
51
B3
ENDCHAR
STARTCHAR uni5217
ENCODING 21015
SWIDTH 1000 0
DWIDTH 9 0
BBX 8 8 0 -1
BITMAP
F9
25
75
95
55
35
21
C3
ENDCHAR
STARTCHAR uni5218
ENCODING 21016
SWIDTH 1000 0
DWIDTH 9 0
BBX 8 8 0 -1
BITMAP
21
F9
15
55
55
25
51
93
ENDCHAR
STARTCHAR uni5219
ENCODING 21017
SWIDTH 1000 0
DWIDTH 9 0
BBX 8 8 0 -1
BITMAP
F1
95
95
95
D5
D5
41
B3
ENDCHAR
STARTCHAR uni521A
ENCODING 21018
SWIDTH 1000 0
DWIDTH 9 0
BBX 8 8 0 -1
BITMAP
F9
8B
DB
AB
AB
DB
89
9B
ENDCHAR
STARTCHAR uni521B
ENCODING 21019
SWIDTH 1000 0
DWIDTH 9 0
BBX 8 8 0 -1
BITMAP
21
55
8D
75
55
65
49
7B
ENDCHAR
STARTCHAR uni521C
ENCODING 21020
SWIDTH 1000 0
DWIDTH 9 0
BBX 8 8 0 -1
BITMAP
51
FD
55
FD
D1
FD
55
93
ENDCHAR
STARTCHAR uni521D
ENCODING 21021
SWIDTH 1000 0
DWIDTH 9 0
BBX 8 8 0 -1
BITMAP
40
2F
E5
35
65
B9
29
33
ENDCHAR
STARTCHAR uni521E
ENCODING 21022
SWIDTH 1000 0
DWIDTH 9 0
BBX 8 8 0 -1
BITMAP
71
55
75
55
75
55
59
E3
ENDCHAR
STARTCHAR uni5220
ENCODING 21024
SWIDTH 1000 0
DWIDTH 9 0
BBX 8 8 0 -1
BITMAP
D9
AB
AB
FF
AB
AB
A9
9B
ENDCHAR
STARTCHAR uni5221
ENCODING 21025
SWIDTH 1000 0
DWIDTH 9 0
BBX 8 8 0 -1
BITMAP
79
4B
7B
53
7B
51
55
EB
ENDCHAR
STARTCHAR uni5224
ENCODING 21028
SWIDTH 1000 0
DWIDTH 9 0
BBX 8 8 0 -1
BITMAP
A9
75
F5
25
FD
25
21
43
ENDCHAR
STARTCHAR uni5225
ENCODING 21029
SWIDTH 1000 0
DWIDTH 9 0
BBX 8 8 0 -1
BITMAP
F1
95
F5
45
75
55
51
B3
ENDCHAR
STARTCHAR uni5227
ENCODING 21031
SWIDTH 1000 0
DWIDTH 9 0
BBX 8 8 0 -1
BITMAP
40
4F
F5
45
F5
45
A9
EA
ENDCHAR
STARTCHAR uni5228
ENCODING 21032
SWIDTH 1000 0
DWIDTH 9 0
BBX 8 8 0 -1
BITMAP
41
7B
8B
7B
4B
73
49
7B
ENDCHAR
STARTCHAR uni5229
ENCODING 21033
SWIDTH 1000 0
DWIDTH 9 0
BBX 8 8 0 -1
BITMAP
19
E5
25
FD
75
69
A1
23
ENDCHAR
STARTCHAR uni522A
ENCODING 21034
SWIDTH 1000 0
DWIDTH 9 0
BBX 8 8 0 -1
BITMAP
F9
AB
AB
FF
AB
AB
A9
8B
ENDCHAR
STARTCHAR uni522B
ENCODING 21035
SWIDTH 1000 0
DWIDTH 9 0
BBX 8 8 0 -1
BITMAP
F1
95
F5
45
F5
55
51
B3
ENDCHAR
STARTCHAR uni522D
ENCODING 21037
SWIDTH 1000 0
DWIDTH 9 0
BBX 8 8 0 -1
BITMAP
F1
21
75
8D
75
25
39
E3
ENDCHAR
STARTCHAR uni522E
ENCODING 21038
SWIDTH 1000 0
DWIDTH 9 0
BBX 8 8 0 -1
BITMAP
31
C5
F5
45
F5
95
91
F3
ENDCHAR
STARTCHAR uni5230
ENCODING 21040
SWIDTH 1000 0
DWIDTH 9 0
BBX 8 8 0 -1
BITMAP
F9
25
55
FD
25
F5
21
F3
ENDCHAR
STARTCHAR uni5231
ENCODING 21041
SWIDTH 1000 0
DWIDTH 9 0
BBX 8 8 0 -1
BITMAP
5F
55
F5
5D
F5
55
59
93
ENDCHAR
STARTCHAR uni5232
ENCODING 21042
SWIDTH 1000 0
DWIDTH 9 0
BBX 8 8 0 -1
BITMAP
21
F5
25
FD
25
75
21
FB
ENDCHAR
STARTCHAR uni5233
ENCODING 21043
SWIDTH 1000 0
DWIDTH 9 0
BBX 8 8 0 -1
BITMAP
21
F9
55
8D
F5
45
71
13
ENDCHAR
STARTCHAR uni5235
ENCODING 21045
SWIDTH 1000 0
DWIDTH 9 0
BBX 8 8 0 -1
BITMAP
F9
55
75
55
75
55
F1
17
ENDCHAR
STARTCHAR uni5236
ENCODING 21046
SWIDTH 1000 0
DWIDTH 9 0
BBX 8 8 0 -1
BITMAP
61
F5
A5
FD
25
FD
A9
AB
ENDCHAR
STARTCHAR uni5237
ENCODING 21047
SWIDTH 1000 0
DWIDTH 9 0
BBX 8 8 0 -1
BITMAP
7D
45
7D
51
7D
55
55
93
ENDCHAR
STARTCHAR uni5238
ENCODING 21048
SWIDTH 1000 0
DWIDTH 9 0
BBX 8 8 0 -1
BITMAP
54
FE
20
FF
44
BB
24
CC
ENDCHAR
STARTCHAR uni5239
ENCODING 21049
SWIDTH 1000 0
DWIDTH 9 0
BBX 8 8 0 -1
BITMAP
D1
25
DD
25
FD
75
A9
2B
ENDCHAR
STARTCHAR uni523A
ENCODING 21050
SWIDTH 1000 0
DWIDTH 9 0
BBX 8 8 0 -1
BITMAP
21
FB
23
FB
AB
73
69
AB
ENDCHAR
STARTCHAR uni523B
ENCODING 21051
SWIDTH 1000 0
DWIDTH 9 0
BBX 8 8 0 -1
BITMAP
21
F9
45
D5
25
C5
21
D3
ENDCHAR
STARTCHAR uni523D
ENCODING 21053
SWIDTH 1000 0
DWIDTH 9 0
BBX 8 8 0 -1
BITMAP
21
55
8D
75
05
FD
51
EB
ENDCHAR
STARTCHAR uni523F
ENCODING 21055
SWIDTH 1000 0
DWIDTH 9 0
BBX 8 8 0 -1
BITMAP
A9
F9
45
75
95
55
21
C3
ENDCHAR
STARTCHAR uni5240
ENCODING 21056
SWIDTH 1000 0
DWIDTH 9 0
BBX 8 8 0 -1
BITMAP
A9
F9
05
F5
15
E5
91
E3
ENDCHAR
STARTCHAR uni5241
ENCODING 21057
SWIDTH 1000 0
DWIDTH 9 0
BBX 8 8 0 -1
BITMAP
71
55
5D
A5
FD
25
75
AB
ENDCHAR
STARTCHAR uni5242
ENCODING 21058
SWIDTH 1000 0
DWIDTH 9 0
BBX 8 8 0 -1
BITMAP
21
F9
55
25
DD
55
51
93
ENDCHAR
STARTCHAR uni5243
ENCODING 21059
SWIDTH 1000 0
DWIDTH 9 0
BBX 8 8 0 -1
BITMAP
51
F9
2B
FB
A3
FB
69
AB
ENDCHAR
STARTCHAR uni5244
ENCODING 21060
SWIDTH 1000 0
DWIDTH 9 0
BBX 8 8 0 -1
BITMAP
F9
55
A5
55
FD
25
39
E7
ENDCHAR
STARTCHAR uni5246
ENCODING 21062
SWIDTH 1000 0
DWIDTH 9 0
BBX 8 8 0 -1
BITMAP
21
75
75
55
75
45
71
D7
ENDCHAR
STARTCHAR uni5247
ENCODING 21063
SWIDTH 1000 0
DWIDTH 9 0
BBX 8 8 0 -1
BITMAP
71
55
75
55
75
55
71
DB
ENDCHAR
STARTCHAR uni5249
ENCODING 21065
SWIDTH 1000 0
DWIDTH 9 0
BBX 8 8 0 -1
BITMAP
21
AB
AB
73
FB
23
39
E3
ENDCHAR
STARTCHAR uni524A
ENCODING 21066
SWIDTH 1000 0
DWIDTH 9 0
BBX 8 8 0 -1
BITMAP
D1
65
F5
95
F5
95
F1
93
ENDCHAR
STARTCHAR uni524B
ENCODING 21067
SWIDTH 1000 0
DWIDTH 9 0
BBX 8 8 0 -1
BITMAP
21
F5
25
F5
95
F5
51
9F
ENDCHAR
STARTCHAR uni524C
ENCODING 21068
SWIDTH 1000 0
DWIDTH 9 0
BBX 8 8 0 -1
BITMAP
21
F9
25
FD
AD
F5
71
AB
ENDCHAR
STARTCHAR uni524D
ENCODING 21069
SWIDTH 1000 0
DWIDTH 9 0
BBX 8 8 0 -1
BITMAP
22
FF
51
75
55
75
51
53
ENDCHAR
STARTCHAR uni524E
ENCODING 21070
SWIDTH 1000 0
DWIDTH 9 0
BBX 8 8 0 -1
BITMAP
51
25
D5
25
FD
75
A9
23
ENDCHAR
STARTCHAR uni524F
ENCODING 21071
SWIDTH 1000 0
DWIDTH 9 0
BBX 8 8 0 -1
BITMAP
BE
0A
FA
AA
FA
AE
AB
B4
ENDCHAR
STARTCHAR uni5250
ENCODING 21072
SWIDTH 1000 0
DWIDTH 9 0
BBX 8 8 0 -1
BITMAP
F1
95
F5
25
FD
A9
D9
8B
ENDCHAR
STARTCHAR uni5251
ENCODING 21073
SWIDTH 1000 0
DWIDTH 9 0
BBX 8 8 0 -1
BITMAP
21
55
8D
75
05
AD
51
FB
ENDCHAR
STARTCHAR uni5252
ENCODING 21074
SWIDTH 1000 0
DWIDTH 9 0
BBX 8 8 0 -1
BITMAP
51
FB
53
FF
4B
7B
49
7B
ENDCHAR
STARTCHAR uni5254
ENCODING 21076
SWIDTH 1000 0
DWIDTH 9 0
BBX 8 8 0 -1
BITMAP
79
49
7B
4B
73
AB
59
AB
ENDCHAR
STARTCHAR uni5255
ENCODING 21077
SWIDTH 1000 0
DWIDTH 9 0
BBX 8 8 0 -1
BITMAP
51
DB
53
DB
53
DB
51
93
ENDCHAR
STARTCHAR uni5256
ENCODING 21078
SWIDTH 1000 0
DWIDTH 9 0
BBX 8 8 0 -1
BITMAP
21
F9
55
FD
05
F5
91
F3
ENDCHAR
STARTCHAR uni525A
ENCODING 21082
SWIDTH 1000 0
DWIDTH 9 0
BBX 8 8 0 -1
BITMAP
21
FB
2B
FF
2B
FB
21
63
ENDCHAR
STARTCHAR uni525B
ENCODING 21083
SWIDTH 1000 0
DWIDTH 9 0
BBX 8 8 0 -1
BITMAP
F9
AB
FB
AB
DB
DB
F9
8B
ENDCHAR
STARTCHAR uni525C
ENCODING 21084
SWIDTH 1000 0
DWIDTH 9 0
BBX 8 8 0 -1
BITMAP
11
FD
A5
79
55
BD
51
9B
ENDCHAR
STARTCHAR uni525D
ENCODING 21085
SWIDTH 1000 0
DWIDTH 9 0
BBX 8 8 0 -1
BITMAP
41
75
55
FD
AD
75
A9
63
ENDCHAR
STARTCHAR uni525E
ENCODING 21086
SWIDTH 1000 0
DWIDTH 9 0
BBX 8 8 0 -1
BITMAP
21
F9
55
FD
B5
D5
11
33
ENDCHAR
STARTCHAR uni525F
ENCODING 21087
SWIDTH 1000 0
DWIDTH 9 0
BBX 8 8 0 -1
BITMAP
FD
B5
4B
B3
FB
AB
51
AB
ENDCHAR
STARTCHAR uni5261
ENCODING 21089
SWIDTH 1000 0
DWIDTH 9 0
BBX 8 8 0 -1
BITMAP
A9
73
53
8B
AB
73
51
8B
ENDCHAR
STARTCHAR uni5262
ENCODING 21090
SWIDTH 1000 0
DWIDTH 9 0
BBX 8 8 0 -1
BITMAP
F9
41
AB
53
BB
53
91
33
ENDCHAR
STARTCHAR uni5263
ENCODING 21091
SWIDTH 1000 0
DWIDTH 9 0
BBX 8 8 0 -1
BITMAP
21
55
AD
FD
AD
F9
51
8B
ENDCHAR
STARTCHAR uni5264
ENCODING 21092
SWIDTH 1000 0
DWIDTH 9 0
BBX 8 8 0 -1
BITMAP
21
F9
55
25
DD
75
51
93
ENDCHAR
STARTCHAR uni5265
ENCODING 21093
SWIDTH 1000 0
DWIDTH 9 0
BBX 8 8 0 -1
BITMAP
F1
15
FD
25
AD
75
A9
63
ENDCHAR
STARTCHAR uni5267
ENCODING 21095
SWIDTH 1000 0
DWIDTH 9 0
BBX 8 8 0 -1
BITMAP
79
49
7B
53
7B
53
69
BB
ENDCHAR
STARTCHAR uni5269
ENCODING 21097
SWIDTH 1000 0
DWIDTH 9 0
BBX 8 8 0 -1
BITMAP
11
65
FD
65
FD
75
A9
23
ENDCHAR
STARTCHAR uni526A
ENCODING 21098
SWIDTH 1000 0
DWIDTH 9 0
BBX 8 8 0 -1
BITMAP
24
FF
52
76
52
FE
22
C6
ENDCHAR
STARTCHAR uni526B
ENCODING 21099
SWIDTH 1000 0
DWIDTH 9 0
BBX 8 8 0 -1
BITMAP
11
FD
A9
FF
AB
BB
91
EB
ENDCHAR
STARTCHAR uni526C
ENCODING 21100
SWIDTH 1000 0
DWIDTH 9 0
BBX 8 8 0 -1
BITMAP
A9
FB
03
FB
43
FB
A9
AB
ENDCHAR
STARTCHAR uni526D
ENCODING 21101
SWIDTH 1000 0
DWIDTH 9 0
BBX 8 8 0 -1
BITMAP
F9
8B
FB
A3
FB
93
B9
E3
ENDCHAR
STARTCHAR uni526E
ENCODING 21102
SWIDTH 1000 0
DWIDTH 9 0
BBX 8 8 0 -1
BITMAP
71
53
53
FB
AB
BB
89
9B
ENDCHAR
STARTCHAR uni526F
ENCODING 21103
SWIDTH 1000 0
DWIDTH 9 0
BBX 8 8 0 -1
BITMAP
F9
51
55
FD
AD
FD
A9
FB
ENDCHAR
STARTCHAR uni5270
ENCODING 21104
SWIDTH 1000 0
DWIDTH 9 0
BBX 8 8 0 -1
BITMAP
71
FD
6B
FF
6B
FF
69
A5
ENDCHAR
STARTCHAR uni5271
ENCODING 21105
SWIDTH 1000 0
DWIDTH 9 0
BBX 8 8 0 -1
BITMAP
5E
AA
3A
FA
AA
FE
6B
96
ENDCHAR
STARTCHAR uni5272
ENCODING 21106
SWIDTH 1000 0
DWIDTH 9 0
BBX 8 8 0 -1
BITMAP
21
F9
AD
75
25
FD
51
73
ENDCHAR
STARTCHAR uni5273
ENCODING 21107
SWIDTH 1000 0
DWIDTH 9 0
BBX 8 8 0 -1
BITMAP
51
FD
55
25
55
FD
51
73
ENDCHAR
STARTCHAR uni5274
ENCODING 21108
SWIDTH 1000 0
DWIDTH 9 0
BBX 8 8 0 -1
BITMAP
A9
F9
05
FD
55
75
59
F7
ENDCHAR
STARTCHAR uni5275
ENCODING 21109
SWIDTH 1000 0
DWIDTH 9 0
BBX 8 8 0 -1
BITMAP
31
49
F5
55
55
7D
C9
7B
ENDCHAR
STARTCHAR uni5277
ENCODING 21111
SWIDTH 1000 0
DWIDTH 9 0
BBX 8 8 0 -1
BITMAP
21
FB
53
FB
D3
FB
91
FB
ENDCHAR
STARTCHAR uni5278
ENCODING 21112
SWIDTH 1000 0
DWIDTH 9 0
BBX 8 8 0 -1
BITMAP
21
FD
7B
F3
2B
FF
51
33
ENDCHAR
STARTCHAR uni527A
ENCODING 21114
SWIDTH 1000 0
DWIDTH 9 0
BBX 8 8 0 -1
BITMAP
24
77
FD
72
A5
7F
52
A6
ENDCHAR
STARTCHAR uni527B
ENCODING 21115
SWIDTH 1000 0
DWIDTH 9 0
BBX 8 8 0 -1
BITMAP
A9
FB
03
FF
B7
FD
B5
AD
ENDCHAR
STARTCHAR uni527C
ENCODING 21116
SWIDTH 1000 0
DWIDTH 9 0
BBX 8 8 0 -1
BITMAP
29
79
55
B5
4D
B5
49
F3
ENDCHAR
STARTCHAR uni527D
ENCODING 21117
SWIDTH 1000 0
DWIDTH 9 0
BBX 8 8 0 -1
BITMAP
F9
53
FB
AB
FB
03
F9
AB
ENDCHAR
STARTCHAR uni527F
ENCODING 21119
SWIDTH 1000 0
DWIDTH 9 0
BBX 8 8 0 -1
BITMAP
55
A9
57
FB
AB
FB
21
AB
ENDCHAR
STARTCHAR uni5280
ENCODING 21120
SWIDTH 1000 0
DWIDTH 9 0
BBX 8 8 0 -1
BITMAP
F9
15
FD
25
FD
AD
B9
8B
ENDCHAR
STARTCHAR uni5281
ENCODING 21121
SWIDTH 1000 0
DWIDTH 9 0
BBX 8 8 0 -1
BITMAP
51
FB
53
7B
53
79
55
AB
ENDCHAR
STARTCHAR uni5282
ENCODING 21122
SWIDTH 1000 0
DWIDTH 9 0
BBX 8 8 0 -1
BITMAP
7D
69
7F
5B
7F
55
55
AB
ENDCHAR
STARTCHAR uni5283
ENCODING 21123
SWIDTH 1000 0
DWIDTH 9 0
BBX 8 8 0 -1
BITMAP
21
73
FF
33
FB
6B
69
FB
ENDCHAR
STARTCHAR uni5284
ENCODING 21124
SWIDTH 1000 0
DWIDTH 9 0
BBX 8 8 0 -1
BITMAP
44
FF
22
75
8D
75
51
73
ENDCHAR
STARTCHAR uni5287
ENCODING 21127
SWIDTH 1000 0
DWIDTH 9 0
BBX 8 8 0 -1
BITMAP
31
F9
AB
B3
FB
B3
D9
B3
ENDCHAR
STARTCHAR uni5288
ENCODING 21128
SWIDTH 1000 0
DWIDTH 9 0
BBX 8 8 0 -1
BITMAP
E4
BF
EA
BF
A4
FE
22
C6
ENDCHAR
STARTCHAR uni5289
ENCODING 21129
SWIDTH 1000 0
DWIDTH 9 0
BBX 8 8 0 -1
BITMAP
FD
95
ED
B1
5D
F9
29
FB
ENDCHAR
STARTCHAR uni528A
ENCODING 21130
SWIDTH 1000 0
DWIDTH 9 0
BBX 8 8 0 -1
BITMAP
31
49
FD
A5
FD
4D
79
7B
ENDCHAR
STARTCHAR uni528B
ENCODING 21131
SWIDTH 1000 0
DWIDTH 9 0
BBX 8 8 0 -1
BITMAP
71
53
FB
AB
FB
33
69
A3
ENDCHAR
STARTCHAR uni528C
ENCODING 21132
SWIDTH 1000 0
DWIDTH 9 0
BBX 8 8 0 -1
BITMAP
51
FD
13
FF
93
DB
A9
D7
ENDCHAR
STARTCHAR uni528D
ENCODING 21133
SWIDTH 1000 0
DWIDTH 9 0
BBX 8 8 0 -1
BITMAP
31
49
B5
FD
95
FD
51
AB
ENDCHAR
STARTCHAR uni5290
ENCODING 21136
SWIDTH 1000 0
DWIDTH 9 0
BBX 8 8 0 -1
BITMAP
51
79
D3
7B
53
7B
21
DB
ENDCHAR
STARTCHAR uni5291
ENCODING 21137
SWIDTH 1000 0
DWIDTH 9 0
BBX 8 8 0 -1
BITMAP
21
FF
DB
AF
7B
49
79
8B
ENDCHAR
STARTCHAR uni5292
ENCODING 21138
SWIDTH 1000 0
DWIDTH 9 0
BBX 8 8 0 -1
BITMAP
6F
95
65
FD
AD
FD
55
AB
ENDCHAR
STARTCHAR uni5293
ENCODING 21139
SWIDTH 1000 0
DWIDTH 9 0
BBX 8 8 0 -1
BITMAP
21
73
53
FB
AB
FB
51
93
ENDCHAR
STARTCHAR uni5294
ENCODING 21140
SWIDTH 1000 0
DWIDTH 9 0
BBX 8 8 0 -1
BITMAP
5E
AA
5A
FA
AA
EE
5B
B4
ENDCHAR
STARTCHAR uni5296
ENCODING 21142
SWIDTH 1000 0
DWIDTH 9 0
BBX 8 8 0 -1
BITMAP
71
C9
79
55
7D
C9
79
DF
ENDCHAR
STARTCHAR uni5297
ENCODING 21143
SWIDTH 1000 0
DWIDTH 9 0
BBX 8 8 0 -1
BITMAP
51
FB
53
AB
7B
4B
79
CB
ENDCHAR
STARTCHAR uni5298
ENCODING 21144
SWIDTH 1000 0
DWIDTH 9 0
BBX 8 8 0 -1
BITMAP
11
FD
A9
FD
A9
ED
A9
CB
ENDCHAR
STARTCHAR uni5299
ENCODING 21145
SWIDTH 1000 0
DWIDTH 9 0
BBX 8 8 0 -1
BITMAP
71
53
FB
53
AB
FD
AD
DB
ENDCHAR
STARTCHAR uni529B
ENCODING 21147
SWIDTH 1000 0
DWIDTH 9 0
BBX 8 8 0 -1
BITMAP
10
10
FF
11
11
21
2A
C6
ENDCHAR
STARTCHAR uni529D
ENCODING 21149
SWIDTH 1000 0
DWIDTH 9 0
BBX 8 8 0 -1
BITMAP
08
E8
3F
A9
A9
49
49
B3
ENDCHAR
STARTCHAR uni529E
ENCODING 21150
SWIDTH 1000 0
DWIDTH 9 0
BBX 8 8 0 -1
BITMAP
20
FC
24
66
A5
25
44
8C
ENDCHAR
STARTCHAR uni529F
ENCODING 21151
SWIDTH 1000 0
DWIDTH 9 0
BBX 8 8 0 -1
BITMAP
08
FF
49
49
49
69
95
22
ENDCHAR
STARTCHAR uni52A0
ENCODING 21152
SWIDTH 1000 0
DWIDTH 9 0
BBX 8 8 0 -1
BITMAP
40
40
F7
55
55
55
55
B7
ENDCHAR
STARTCHAR uni52A1
ENCODING 21153
SWIDTH 1000 0
DWIDTH 9 0
BBX 8 8 0 -1
BITMAP
7E
A4
18
E7
20
FE
22
CC
ENDCHAR
STARTCHAR uni52A2
ENCODING 21154
SWIDTH 1000 0
DWIDTH 9 0
BBX 8 8 0 -1
BITMAP
F4
4F
75
55
55
55
55
BB
ENDCHAR
STARTCHAR uni52A3
ENCODING 21155
SWIDTH 1000 0
DWIDTH 9 0
BBX 7 8 0 -1
BITMAP
54
54
9A
20
FE
22
22
C6
ENDCHAR
STARTCHAR uni52A6
ENCODING 21158
SWIDTH 1000 0
DWIDTH 9 0
BBX 8 8 0 -1
BITMAP
10
7E
22
44
FF
55
55
BB
ENDCHAR
STARTCHAR uni52A8
ENCODING 21160
SWIDTH 1000 0
DWIDTH 9 0
BBX 8 8 0 -1
BITMAP
04
E4
0F
E5
45
A5
E9
13
ENDCHAR
STARTCHAR uni52A9
ENCODING 21161
SWIDTH 1000 0
DWIDTH 9 0
BBX 8 8 0 -1
BITMAP
74
5F
75
55
75
55
75
CB
ENDCHAR
STARTCHAR uni52AA
ENCODING 21162
SWIDTH 1000 0
DWIDTH 9 0
BBX 8 8 0 -1
BITMAP
40
EE
AA
44
AB
7E
12
66
ENDCHAR
STARTCHAR uni52AB
ENCODING 21163
SWIDTH 1000 0
DWIDTH 9 0
BBX 8 8 0 -1
BITMAP
24
7F
25
FD
25
55
F5
0B
ENDCHAR
STARTCHAR uni52AC
ENCODING 21164
SWIDTH 1000 0
DWIDTH 9 0
BBX 8 8 0 -1
BITMAP
44
7F
95
75
55
75
15
3B
ENDCHAR
STARTCHAR uni52AD
ENCODING 21165
SWIDTH 1000 0
DWIDTH 9 0
BBX 8 8 0 -1
BITMAP
F4
54
5F
B5
E5
95
95
FB
ENDCHAR
STARTCHAR uni52AE
ENCODING 21166
SWIDTH 1000 0
DWIDTH 9 0
BBX 8 8 0 -1
BITMAP
24
A4
FF
25
FD
25
55
8B
ENDCHAR
STARTCHAR uni52B1
ENCODING 21169
SWIDTH 1000 0
DWIDTH 9 0
BBX 8 8 0 -1
BITMAP
F4
84
FF
A5
B5
D5
D5
BB
ENDCHAR
STARTCHAR uni52B2
ENCODING 21170
SWIDTH 1000 0
DWIDTH 9 0
BBX 8 8 0 -1
BITMAP
F4
24
5F
95
E5
45
69
D3
ENDCHAR
STARTCHAR uni52B3
ENCODING 21171
SWIDTH 1000 0
DWIDTH 9 0
BBX 8 8 0 -1
BITMAP
24
FF
24
FF
91
7E
12
66
ENDCHAR
STARTCHAR uni52B4
ENCODING 21172
SWIDTH 1000 0
DWIDTH 9 0
BBX 8 8 0 -1
BITMAP
A1
52
FF
91
7E
12
22
CC
ENDCHAR
STARTCHAR uni52B5
ENCODING 21173
SWIDTH 1000 0
DWIDTH 9 0
BBX 8 8 0 -1
BITMAP
52
7E
24
FF
52
BD
14
6C
ENDCHAR
STARTCHAR uni52B9
ENCODING 21177
SWIDTH 1000 0
DWIDTH 9 0
BBX 8 8 0 -1
BITMAP
24
F4
5F
8D
55
25
55
8A
ENDCHAR
STARTCHAR uni52BB
ENCODING 21179
SWIDTH 1000 0
DWIDTH 9 0
BBX 8 8 0 -1
BITMAP
F4
8F
F5
A5
F5
A5
A9
F3
ENDCHAR
STARTCHAR uni52BC
ENCODING 21180
SWIDTH 1000 0
DWIDTH 9 0
BBX 8 8 0 -1
BITMAP
24
F4
2F
F5
05
F5
95
FB
ENDCHAR
STARTCHAR uni52BE
ENCODING 21182
SWIDTH 1000 0
DWIDTH 9 0
BBX 8 8 0 -1
BITMAP
24
FF
4D
F5
2D
D5
35
CB
ENDCHAR
STARTCHAR uni52BF
ENCODING 21183
SWIDTH 1000 0
DWIDTH 9 0
BBX 8 8 0 -1
BITMAP
48
FE
6A
DB
60
FE
22
CE
ENDCHAR
STARTCHAR uni52C0
ENCODING 21184
SWIDTH 1000 0
DWIDTH 9 0
BBX 8 8 0 -1
BITMAP
F4
24
FF
95
F5
65
B5
AA
ENDCHAR
STARTCHAR uni52C1
ENCODING 21185
SWIDTH 1000 0
DWIDTH 9 0
BBX 8 8 0 -1
BITMAP
F4
54
AF
55
F5
25
39
CA
ENDCHAR
STARTCHAR uni52C2
ENCODING 21186
SWIDTH 1000 0
DWIDTH 9 0
BBX 8 8 0 -1
BITMAP
A4
F4
AF
F5
85
75
55
7B
ENDCHAR
STARTCHAR uni52C3
ENCODING 21187
SWIDTH 1000 0
DWIDTH 9 0
BBX 8 8 0 -1
BITMAP
24
FF
25
FD
AD
75
25
6B
ENDCHAR
STARTCHAR uni52C5
ENCODING 21189
SWIDTH 1000 0
DWIDTH 9 0
BBX 8 8 0 -1
BITMAP
24
F4
2F
F5
B5
F5
65
AA
ENDCHAR
STARTCHAR uni52C7
ENCODING 21191
SWIDTH 1000 0
DWIDTH 9 0
BBX 7 8 0 -1
BITMAP
7C
28
7E
7E
52
FE
22
CC
ENDCHAR
STARTCHAR uni52C9
ENCODING 21193
SWIDTH 1000 0
DWIDTH 9 0
BBX 8 8 0 -1
BITMAP
64
9F
25
F5
AD
FA
41
BF
ENDCHAR
STARTCHAR uni52CA
ENCODING 21194
SWIDTH 1000 0
DWIDTH 9 0
BBX 8 8 0 -1
BITMAP
44
E4
5F
E5
A9
D2
41
BF
ENDCHAR
STARTCHAR uni52CB
ENCODING 21195
SWIDTH 1000 0
DWIDTH 9 0
BBX 8 8 0 -1
BITMAP
F4
9F
65
95
D5
D5
45
AB
ENDCHAR
STARTCHAR uni52CD
ENCODING 21197
SWIDTH 1000 0
DWIDTH 9 0
BBX 8 8 0 -1
BITMAP
24
F4
7F
55
75
A5
B5
6A
ENDCHAR
STARTCHAR uni52D0
ENCODING 21200
SWIDTH 1000 0
DWIDTH 9 0
BBX 8 8 0 -1
BITMAP
FC
14
FF
25
FD
AD
AD
FB
ENDCHAR
STARTCHAR uni52D2
ENCODING 21202
SWIDTH 1000 0
DWIDTH 9 0
BBX 8 8 0 -1
BITMAP
54
FC
5F
75
AD
FD
25
2B
ENDCHAR
STARTCHAR uni52D3
ENCODING 21203
SWIDTH 1000 0
DWIDTH 9 0
BBX 8 8 0 -1
BITMAP
A2
BA
E7
BD
55
75
55
7A
ENDCHAR
STARTCHAR uni52D5
ENCODING 21205
SWIDTH 1000 0
DWIDTH 9 0
BBX 8 8 0 -1
BITMAP
34
E4
FF
75
75
25
75
EA
ENDCHAR
STARTCHAR uni52D6
ENCODING 21206
SWIDTH 1000 0
DWIDTH 9 0
BBX 8 8 0 -1
BITMAP
F4
9F
65
F5
95
F5
95
FB
ENDCHAR
STARTCHAR uni52D7
ENCODING 21207
SWIDTH 1000 0
DWIDTH 9 0
BBX 8 8 0 -1
BITMAP
7E
42
7E
74
5F
75
55
EB
ENDCHAR
STARTCHAR uni52D8
ENCODING 21208
SWIDTH 1000 0
DWIDTH 9 0
BBX 8 8 0 -1
BITMAP
54
FF
55
75
55
FD
95
7B
ENDCHAR
STARTCHAR uni52D9
ENCODING 21209
SWIDTH 1000 0
DWIDTH 9 0
BBX 8 8 0 -1
BITMAP
F4
2F
F2
2D
64
BF
29
76
ENDCHAR
STARTCHAR uni52DB
ENCODING 21211
SWIDTH 1000 0
DWIDTH 9 0
BBX 8 8 0 -1
BITMAP
74
54
FF
95
F5
95
F5
5A
ENDCHAR
STARTCHAR uni52DD
ENCODING 21213
SWIDTH 1000 0
DWIDTH 9 0
BBX 8 8 0 -1
BITMAP
F5
BF
EA
BF
E5
BE
AA
B6
ENDCHAR
STARTCHAR uni52DE
ENCODING 21214
SWIDTH 1000 0
DWIDTH 9 0
BBX 8 8 0 -1
BITMAP
B5
A5
5A
FF
91
7E
12
E6
ENDCHAR
STARTCHAR uni52DF
ENCODING 21215
SWIDTH 1000 0
DWIDTH 9 0
BBX 8 8 0 -1
BITMAP
28
FE
44
7C
44
FF
56
AD
ENDCHAR
STARTCHAR uni52E0
ENCODING 21216
SWIDTH 1000 0
DWIDTH 9 0
BBX 8 8 0 -1
BITMAP
F4
54
FF
25
55
AD
15
EB
ENDCHAR
STARTCHAR uni52E2
ENCODING 21218
SWIDTH 1000 0
DWIDTH 9 0
BBX 8 8 0 -1
BITMAP
24
FE
56
AA
71
FE
12
66
ENDCHAR
STARTCHAR uni52E3
ENCODING 21219
SWIDTH 1000 0
DWIDTH 9 0
BBX 8 8 0 -1
BITMAP
42
F2
EF
F5
A5
A5
65
DB
ENDCHAR
STARTCHAR uni52E4
ENCODING 21220
SWIDTH 1000 0
DWIDTH 9 0
BBX 8 8 0 -1
BITMAP
54
FF
55
FD
AD
F5
29
F3
ENDCHAR
STARTCHAR uni52E6
ENCODING 21222
SWIDTH 1000 0
DWIDTH 9 0
BBX 8 8 0 -1
BITMAP
AA
52
FF
B5
F5
25
75
AB
ENDCHAR
STARTCHAR uni52E7
ENCODING 21223
SWIDTH 1000 0
DWIDTH 9 0
BBX 8 8 0 -1
BITMAP
44
7C
A7
7D
D5
7D
55
7A
ENDCHAR
STARTCHAR uni52E9
ENCODING 21225
SWIDTH 1000 0
DWIDTH 9 0
BBX 8 8 0 -1
BITMAP
AA
FA
AF
FB
8B
FD
55
8A
ENDCHAR
STARTCHAR uni52EB
ENCODING 21227
SWIDTH 1000 0
DWIDTH 9 0
BBX 8 8 0 -1
BITMAP
FA
A2
FF
65
F5
B5
D5
FA
ENDCHAR
STARTCHAR uni52EF
ENCODING 21231
SWIDTH 1000 0
DWIDTH 9 0
BBX 8 8 0 -1
BITMAP
22
FA
AF
8B
FD
55
55
FA
ENDCHAR
STARTCHAR uni52F0
ENCODING 21232
SWIDTH 1000 0
DWIDTH 9 0
BBX 8 8 0 -1
BITMAP
5F
F5
7F
B5
4F
FA
5D
B6
ENDCHAR
STARTCHAR uni52F1
ENCODING 21233
SWIDTH 1000 0
DWIDTH 9 0
BBX 8 8 0 -1
BITMAP
52
FA
AF
FB
73
AD
F9
9A
ENDCHAR
STARTCHAR uni52F2
ENCODING 21234
SWIDTH 1000 0
DWIDTH 9 0
BBX 8 8 0 -1
BITMAP
74
2F
F5
AD
F9
32
E0
95
ENDCHAR
STARTCHAR uni52F3
ENCODING 21235
SWIDTH 1000 0
DWIDTH 9 0
BBX 8 8 0 -1
BITMAP
F4
24
FF
AD
FD
25
F5
AB
ENDCHAR
STARTCHAR uni52F4
ENCODING 21236
SWIDTH 1000 0
DWIDTH 9 0
BBX 8 8 0 -1
BITMAP
32
FA
A7
FB
AB
FD
A5
BB
ENDCHAR
STARTCHAR uni52F5
ENCODING 21237
SWIDTH 1000 0
DWIDTH 9 0
BBX 8 8 0 -1
BITMAP
FE
AA
FF
AB
BB
FB
AD
BA
ENDCHAR
STARTCHAR uni52F7
ENCODING 21239
SWIDTH 1000 0
DWIDTH 9 0
BBX 8 8 0 -1
BITMAP
22
FA
AF
F5
55
FD
51
6B
ENDCHAR
STARTCHAR uni52F8
ENCODING 21240
SWIDTH 1000 0
DWIDTH 9 0
BBX 8 8 0 -1
BITMAP
52
FA
AF
7B
D5
7D
55
7B
ENDCHAR
STARTCHAR uni52F9
ENCODING 21241
SWIDTH 1000 0
DWIDTH 9 0
BBX 8 8 0 -1
BITMAP
20
3F
41
81
01
01
09
06
ENDCHAR
STARTCHAR uni52FA
ENCODING 21242
SWIDTH 1000 0
DWIDTH 9 0
BBX 8 8 0 -1
BITMAP
40
7F
81
21
11
01
09
06
ENDCHAR
STARTCHAR uni52FB
ENCODING 21243
SWIDTH 1000 0
DWIDTH 9 0
BBX 8 8 0 -1
BITMAP
20
7F
41
99
05
1A
62
0C
ENDCHAR
STARTCHAR uni52FC
ENCODING 21244
SWIDTH 1000 0
DWIDTH 9 0
BBX 8 8 0 -1
BITMAP
40
7F
A1
79
29
2B
4D
86
ENDCHAR
STARTCHAR uni52FE
ENCODING 21246
SWIDTH 1000 0
DWIDTH 9 0
BBX 8 8 0 -1
BITMAP
20
3F
51
91
29
25
7D
03
ENDCHAR
STARTCHAR uni52FF
ENCODING 21247
SWIDTH 1000 0
DWIDTH 9 0
BBX 8 8 0 -1
BITMAP
20
3F
55
95
25
49
11
63
ENDCHAR
STARTCHAR uni5300
ENCODING 21248
SWIDTH 1000 0
DWIDTH 9 0
BBX 7 8 0 -1
BITMAP
40
7E
82
32
0A
12
62
06
ENDCHAR
STARTCHAR uni5301
ENCODING 21249
SWIDTH 1000 0
DWIDTH 9 0
BBX 8 8 0 -1
BITMAP
40
7E
92
52
32
2A
46
8D
ENDCHAR
STARTCHAR uni5302
ENCODING 21250
SWIDTH 1000 0
DWIDTH 9 0
BBX 8 8 0 -1
BITMAP
40
7F
41
A1
39
21
39
06
ENDCHAR
STARTCHAR uni5305
ENCODING 21253
SWIDTH 1000 0
DWIDTH 9 0
BBX 8 8 0 -1
BITMAP
20
7E
82
7A
4A
7C
41
7F
ENDCHAR
STARTCHAR uni5306
ENCODING 21254
SWIDTH 1000 0
DWIDTH 9 0
BBX 8 8 0 -1
BITMAP
20
7F
95
25
55
09
15
63
ENDCHAR
STARTCHAR uni5308
ENCODING 21256
SWIDTH 1000 0
DWIDTH 9 0
BBX 8 8 0 -1
BITMAP
40
7F
81
2D
55
6D
7D
03
ENDCHAR
STARTCHAR uni5309
ENCODING 21257
SWIDTH 1000 0
DWIDTH 9 0
BBX 8 8 0 -1
BITMAP
20
7F
81
FD
55
FD
11
16
ENDCHAR
STARTCHAR uni530A
ENCODING 21258
SWIDTH 1000 0
DWIDTH 9 0
BBX 8 8 0 -1
BITMAP
20
7F
91
55
FF
39
55
93
ENDCHAR
STARTCHAR uni530B
ENCODING 21259
SWIDTH 1000 0
DWIDTH 9 0
BBX 8 8 0 -1
BITMAP
20
7F
BD
51
FF
55
7D
06
ENDCHAR
STARTCHAR uni530D
ENCODING 21261
SWIDTH 1000 0
DWIDTH 9 0
BBX 8 8 0 -1
BITMAP
20
7F
95
FF
55
7D
55
57
ENDCHAR
STARTCHAR uni530E
ENCODING 21262
SWIDTH 1000 0
DWIDTH 9 0
BBX 8 8 0 -1
BITMAP
40
7F
A9
7F
D5
7D
11
1B
ENDCHAR
STARTCHAR uni530F
ENCODING 21263
SWIDTH 1000 0
DWIDTH 9 0
BBX 8 8 0 -1
BITMAP
48
EF
59
AF
FA
8C
E9
2F
ENDCHAR
STARTCHAR uni5310
ENCODING 21264
SWIDTH 1000 0
DWIDTH 9 0
BBX 8 8 0 -1
BITMAP
40
7F
81
7D
29
7D
55
7B
ENDCHAR
STARTCHAR uni5311
ENCODING 21265
SWIDTH 1000 0
DWIDTH 9 0
BBX 8 8 0 -1
BITMAP
7F
41
FD
55
79
FD
55
BD
ENDCHAR
STARTCHAR uni5312
ENCODING 21266
SWIDTH 1000 0
DWIDTH 9 0
BBX 8 8 0 -1
BITMAP
7F
A5
FF
29
7F
A5
3D
06
ENDCHAR
STARTCHAR uni5315
ENCODING 21269
SWIDTH 1000 0
DWIDTH 9 0
BBX 6 8 1 -1
BITMAP
80
80
9C
E0
80
80
84
FC
ENDCHAR
STARTCHAR uni5316
ENCODING 21270
SWIDTH 1000 0
DWIDTH 9 0
BBX 8 8 0 -1
BITMAP
28
29
4A
CC
78
48
49
4F
ENDCHAR
STARTCHAR uni5317
ENCODING 21271
SWIDTH 1000 0
DWIDTH 9 0
BBX 8 8 0 -1
BITMAP
28
29
EA
2C
28
28
69
AF
ENDCHAR
STARTCHAR uni5319
ENCODING 21273
SWIDTH 1000 0
DWIDTH 9 0
BBX 8 8 0 -1
BITMAP
74
55
56
FC
25
77
60
DF
ENDCHAR
STARTCHAR uni531A
ENCODING 21274
SWIDTH 1000 0
DWIDTH 9 0
BBX 7 8 1 -1
BITMAP
FE
80
80
80
80
80
80
FE
ENDCHAR
STARTCHAR uni531C
ENCODING 21276
SWIDTH 1000 0
DWIDTH 9 0
BBX 8 8 0 -1
BITMAP
FF
88
AE
FA
AA
A1
9E
FF
ENDCHAR
STARTCHAR uni531D
ENCODING 21277
SWIDTH 1000 0
DWIDTH 9 0
BBX 8 8 0 -1
BITMAP
FF
88
BE
AA
AA
AE
88
FF
ENDCHAR
STARTCHAR uni531F
ENCODING 21279
SWIDTH 1000 0
DWIDTH 9 0
BBX 8 8 0 -1
BITMAP
FF
88
FF
80
9C
95
A3
FF
ENDCHAR
STARTCHAR uni5320
ENCODING 21280
SWIDTH 1000 0
DWIDTH 9 0
BBX 7 8 0 -1
BITMAP
FE
84
B8
A0
BE
A8
C8
FE
ENDCHAR
STARTCHAR uni5321
ENCODING 21281
SWIDTH 1000 0
DWIDTH 9 0
BBX 8 8 0 -1
BITMAP
FF
80
BE
88
9C
88
BE
FF
ENDCHAR
STARTCHAR uni5322
ENCODING 21282
SWIDTH 1000 0
DWIDTH 9 0
BBX 8 8 0 -1
BITMAP
FF
90
BE
D6
AA
92
A6
FF
ENDCHAR
STARTCHAR uni5323
ENCODING 21283
SWIDTH 1000 0
DWIDTH 9 0
BBX 8 8 0 -1
BITMAP
FF
AA
BE
AA
BE
88
88
FF
ENDCHAR
STARTCHAR uni5326
ENCODING 21286
SWIDTH 1000 0
DWIDTH 9 0
BBX 8 8 0 -1
BITMAP
FF
94
FE
A6
FE
96
9B
FF
ENDCHAR
STARTCHAR uni532A
ENCODING 21290
SWIDTH 1000 0
DWIDTH 9 0
BBX 8 8 0 -1
BITMAP
FF
A8
EE
A8
EE
A8
A8
FF
ENDCHAR
STARTCHAR uni532D
ENCODING 21293
SWIDTH 1000 0
DWIDTH 9 0
BBX 8 8 0 -1
BITMAP
FF
A4
FE
A6
F6
F6
AB
FF
ENDCHAR
STARTCHAR uni532E
ENCODING 21294
SWIDTH 1000 0
DWIDTH 9 0
BBX 8 8 0 -1
BITMAP
FF
AA
FF
A2
AA
88
B6
FF
ENDCHAR
STARTCHAR uni532F
ENCODING 21295
SWIDTH 1000 0
DWIDTH 9 0
BBX 8 8 0 -1
BITMAP
FF
AA
9E
D4
BE
D4
DF
FF
ENDCHAR
STARTCHAR uni5330
ENCODING 21296
SWIDTH 1000 0
DWIDTH 9 0
BBX 8 8 0 -1
BITMAP
FF
AA
BE
AA
BE
FF
88
FF
ENDCHAR
STARTCHAR uni5331
ENCODING 21297
SWIDTH 1000 0
DWIDTH 9 0
BBX 8 8 0 -1
BITMAP
FF
AA
BE
FF
AA
BE
A4
FF
ENDCHAR
STARTCHAR uni5333
ENCODING 21299
SWIDTH 1000 0
DWIDTH 9 0
BBX 8 8 0 -1
BITMAP
FF
88
94
EB
BE
94
AA
FF
ENDCHAR
STARTCHAR uni5334
ENCODING 21300
SWIDTH 1000 0
DWIDTH 9 0
BBX 8 8 0 -1
BITMAP
FF
B6
C8
BE
A2
FF
94
FF
ENDCHAR
STARTCHAR uni5337
ENCODING 21303
SWIDTH 1000 0
DWIDTH 9 0
BBX 8 8 0 -1
BITMAP
FF
95
B7
A8
BF
E8
BE
FF
ENDCHAR
STARTCHAR uni5338
ENCODING 21304
SWIDTH 1000 0
DWIDTH 9 0
BBX 8 8 0 -1
BITMAP
FF
40
40
40
40
40
40
7E
ENDCHAR
STARTCHAR uni5339
ENCODING 21305
SWIDTH 1000 0
DWIDTH 9 0
BBX 8 8 0 -1
BITMAP
FF
94
94
94
A5
C7
80
FF
ENDCHAR
STARTCHAR uni533A
ENCODING 21306
SWIDTH 1000 0
DWIDTH 9 0
BBX 8 8 0 -1
BITMAP
FF
84
94
88
94
A2
80
FF
ENDCHAR
STARTCHAR uni533B
ENCODING 21307
SWIDTH 1000 0
DWIDTH 9 0
BBX 8 8 0 -1
BITMAP
FE
90
BE
C8
BE
88
94
FF
ENDCHAR
STARTCHAR uni533C
ENCODING 21308
SWIDTH 1000 0
DWIDTH 9 0
BBX 8 8 0 -1
BITMAP
FF
88
94
FF
A2
BE
80
FF
ENDCHAR
STARTCHAR uni533D
ENCODING 21309
SWIDTH 1000 0
DWIDTH 9 0
BBX 8 8 0 -1
BITMAP
FF
A2
BE
A2
FF
8C
B2
FF
ENDCHAR
STARTCHAR uni533E
ENCODING 21310
SWIDTH 1000 0
DWIDTH 9 0
BBX 8 8 0 -1
BITMAP
FF
88
BF
A1
BE
B5
D5
FF
ENDCHAR
STARTCHAR uni533F
ENCODING 21311
SWIDTH 1000 0
DWIDTH 9 0
BBX 8 8 0 -1
BITMAP
FF
94
FF
90
FF
B2
D2
FF
ENDCHAR
STARTCHAR uni5340
ENCODING 21312
SWIDTH 1000 0
DWIDTH 9 0
BBX 8 8 0 -1
BITMAP
FF
9C
94
FE
DA
F6
80
FF
ENDCHAR
STARTCHAR uni5341
ENCODING 21313
SWIDTH 1000 0
DWIDTH 9 0
BBX 8 8 0 -1
BITMAP
10
10
10
FF
10
10
10
10
ENDCHAR
STARTCHAR uni5343
ENCODING 21315
SWIDTH 1000 0
DWIDTH 9 0
BBX 8 8 0 -1
BITMAP
0E
78
08
FF
08
08
08
08
ENDCHAR
STARTCHAR uni5344
ENCODING 21316
SWIDTH 1000 0
DWIDTH 9 0
BBX 8 8 0 -1
BITMAP
24
24
24
FF
24
24
24
24
ENDCHAR
STARTCHAR uni5345
ENCODING 21317
SWIDTH 1000 0
DWIDTH 9 0
BBX 8 8 0 -1
BITMAP
54
54
54
FF
54
54
54
84
ENDCHAR
STARTCHAR uni5346
ENCODING 21318
SWIDTH 1000 0
DWIDTH 9 0
BBX 8 8 0 -1
BITMAP
10
7C
25
C7
10
FF
10
10
ENDCHAR
STARTCHAR uni5347
ENCODING 21319
SWIDTH 1000 0
DWIDTH 9 0
BBX 8 8 0 -1
BITMAP
34
E4
24
FF
24
24
44
84
ENDCHAR
STARTCHAR uni5348
ENCODING 21320
SWIDTH 1000 0
DWIDTH 9 0
BBX 8 8 0 -1
BITMAP
40
7E
90
10
FF
10
10
10
ENDCHAR
STARTCHAR uni5349
ENCODING 21321
SWIDTH 1000 0
DWIDTH 9 0
BBX 8 8 0 -1
BITMAP
10
FE
10
44
FF
44
44
84
ENDCHAR
STARTCHAR uni534A
ENCODING 21322
SWIDTH 1000 0
DWIDTH 9 0
BBX 7 8 0 -1
BITMAP
92
54
FE
10
FE
10
10
10
ENDCHAR
STARTCHAR uni534C
ENCODING 21324
SWIDTH 1000 0
DWIDTH 9 0
BBX 8 8 0 -1
BITMAP
52
5A
5A
FF
5A
5A
5A
56
ENDCHAR
STARTCHAR uni534D
ENCODING 21325
SWIDTH 1000 0
DWIDTH 9 0
BBX 8 8 0 -1
BITMAP
F9
09
09
7F
48
48
48
4F
ENDCHAR
STARTCHAR uni534E
ENCODING 21326
SWIDTH 1000 0
DWIDTH 9 0
BBX 8 8 0 -1
BITMAP
2A
4C
D9
4F
10
FF
10
10
ENDCHAR
STARTCHAR uni534F
ENCODING 21327
SWIDTH 1000 0
DWIDTH 9 0
BBX 8 8 0 -1
BITMAP
48
5E
EA
4A
5B
6A
4A
56
ENDCHAR
STARTCHAR uni5351
ENCODING 21329
SWIDTH 1000 0
DWIDTH 9 0
BBX 8 8 0 -1
BITMAP
20
7E
52
7E
52
24
FF
04
ENDCHAR
STARTCHAR uni5352
ENCODING 21330
SWIDTH 1000 0
DWIDTH 9 0
BBX 8 8 0 -1
BITMAP
10
FF
44
AA
10
FF
10
10
ENDCHAR
STARTCHAR uni5353
ENCODING 21331
SWIDTH 1000 0
DWIDTH 9 0
BBX 8 8 0 -1
BITMAP
1F
10
7E
42
7E
42
FF
10
ENDCHAR
STARTCHAR uni5354
ENCODING 21332
SWIDTH 1000 0
DWIDTH 9 0
BBX 8 8 0 -1
BITMAP
48
5E
EA
52
7F
5B
6D
5B
ENDCHAR
STARTCHAR uni5355
ENCODING 21333
SWIDTH 1000 0
DWIDTH 9 0
BBX 7 8 0 -1
BITMAP
28
7C
54
7C
54
FE
10
10
ENDCHAR
STARTCHAR uni5356
ENCODING 21334
SWIDTH 1000 0
DWIDTH 9 0
BBX 8 8 0 -1
BITMAP
10
FF
10
FF
69
FE
08
76
ENDCHAR
STARTCHAR uni5357
ENCODING 21335
SWIDTH 1000 0
DWIDTH 9 0
BBX 7 8 0 -1
BITMAP
10
FE
10
FE
AA
FE
92
92
ENDCHAR
STARTCHAR uni5358
ENCODING 21336
SWIDTH 1000 0
DWIDTH 9 0
BBX 8 8 0 -1
BITMAP
A2
54
7E
52
7E
52
FF
10
ENDCHAR
STARTCHAR uni535A
ENCODING 21338
SWIDTH 1000 0
DWIDTH 9 0
BBX 8 8 0 -1
BITMAP
45
5F
F5
5F
55
42
5F
4A
ENDCHAR
STARTCHAR uni535C
ENCODING 21340
SWIDTH 1000 0
DWIDTH 9 0
BBX 4 8 3 -1
BITMAP
80
80
C0
A0
90
90
80
80
ENDCHAR
STARTCHAR uni535E
ENCODING 21342
SWIDTH 1000 0
DWIDTH 9 0
BBX 8 8 0 -1
BITMAP
10
08
FF
10
18
14
14
10
ENDCHAR
STARTCHAR uni535F
ENCODING 21343
SWIDTH 1000 0
DWIDTH 9 0
BBX 8 8 0 -1
BITMAP
08
E8
AC
AA
A9
A9
E8
08
ENDCHAR
STARTCHAR uni5360
ENCODING 21344
SWIDTH 1000 0
DWIDTH 9 0
BBX 7 8 1 -1
BITMAP
20
3E
20
20
FC
84
84
FC
ENDCHAR
STARTCHAR uni5361
ENCODING 21345
SWIDTH 1000 0
DWIDTH 9 0
BBX 8 8 0 -1
BITMAP
10
1E
10
FF
14
12
12
10
ENDCHAR
STARTCHAR uni5362
ENCODING 21346
SWIDTH 1000 0
DWIDTH 9 0
BBX 8 8 0 -1
BITMAP
10
1F
10
7E
42
7E
40
80
ENDCHAR
STARTCHAR uni5363
ENCODING 21347
SWIDTH 1000 0
DWIDTH 9 0
BBX 8 8 0 -1
BITMAP
10
1F
10
FF
81
F9
89
FF
ENDCHAR
STARTCHAR uni5364
ENCODING 21348
SWIDTH 1000 0
DWIDTH 9 0
BBX 7 8 0 -1
BITMAP
3E
20
FE
AA
92
AA
C6
FE
ENDCHAR
STARTCHAR uni5366
ENCODING 21350
SWIDTH 1000 0
DWIDTH 9 0
BBX 8 8 0 -1
BITMAP
24
74
26
FD
25
74
24
FC
ENDCHAR
STARTCHAR uni5367
ENCODING 21351
SWIDTH 1000 0
DWIDTH 9 0
BBX 8 8 0 -1
BITMAP
F4
A4
F4
96
F5
A5
A4
F4
ENDCHAR
STARTCHAR uni5369
ENCODING 21353
SWIDTH 1000 0
DWIDTH 9 0
BBX 4 8 3 -1
BITMAP
F0
90
90
90
90
B0
80
80
ENDCHAR
STARTCHAR uni536B
ENCODING 21355
SWIDTH 1000 0
DWIDTH 9 0
BBX 8 8 0 -1
BITMAP
7E
12
12
12
16
10
10
FF
ENDCHAR
STARTCHAR uni536C
ENCODING 21356
SWIDTH 1000 0
DWIDTH 9 0
BBX 8 8 0 -1
BITMAP
30
4F
49
49
59
69
CB
08
ENDCHAR
ENDFONT
